<svg width="32" height="32" viewBox="0 0 32 32" fill="none" xmlns="http://www.w3.org/2000/svg">
<path d="M2 16H6V17.5C6 18.163 6.26339 18.7989 6.73223 19.2678C7.20107 19.7366 7.83696 20 8.5 20C9.16304 20 9.79893 19.7366 10.2678 19.2678C10.7366 18.7989 11 18.163 11 17.5V16H21V14.5C21 13.837 21.2634 13.2011 21.7322 12.7322C22.2011 12.2634 22.837 12 23.5 12C24.163 12 24.7989 12.2634 25.2678 12.7322C25.7366 13.2011 26 13.837 26 14.5V16H30" stroke="#242457" stroke-width="2" stroke-miterlimit="10" stroke-linecap="square"/>
<path d="M16 30V26H17.5C18.163 26 18.7989 25.7366 19.2678 25.2678C19.7366 24.7989 20 24.163 20 23.5C20 22.837 19.7366 22.2011 19.2678 21.7322C18.7989 21.2634 18.163 21 17.5 21H16V11H14.5C13.837 11 13.2011 10.7366 12.7322 10.2678C12.2634 9.79893 12 9.16304 12 8.5C12 7.83696 12.2634 7.20107 12.7322 6.73223C13.2011 6.26339 13.837 6 14.5 6H16V2" stroke="#242457" stroke-width="2" stroke-miterlimit="10" stroke-linecap="square"/>
<path d="M30 2H2V30H30V2Z" stroke="#242457" stroke-width="2" stroke-miterlimit="10" stroke-linecap="square"/>
</svg>
