<svg width="30" height="32" viewBox="0 0 30 32" fill="none" xmlns="http://www.w3.org/2000/svg">
<path d="M21 31H7C6.20435 31 5.44129 30.6839 4.87868 30.1213C4.31607 29.5587 4 28.7956 4 28V4C4 3.20435 4.31607 2.44129 4.87868 1.87868C5.44129 1.31607 6.20435 1 7 1H21C21.7956 1 22.5587 1.31607 23.1213 1.87868C23.6839 2.44129 24 3.20435 24 4V28C24 28.7956 23.6839 29.5587 23.1213 30.1213C22.5587 30.6839 21.7956 31 21 31Z" stroke="#242457" stroke-width="2" stroke-miterlimit="10" stroke-linecap="square"/>
<path d="M14 26C15.1046 26 16 25.1046 16 24C16 22.8954 15.1046 22 14 22C12.8954 22 12 22.8954 12 24C12 25.1046 12.8954 26 14 26Z" stroke="#242457" stroke-width="2" stroke-miterlimit="10" stroke-linecap="square"/>
</svg>
