<svg width="1024" height="1024" viewBox="0 0 1024 1024" fill="none" xmlns="http://www.w3.org/2000/svg">
<path fill-rule="evenodd" clip-rule="evenodd" d="M214.518 166.956C200.832 166.956 187.706 172.393 178.028 182.071C168.35 191.749 162.913 204.875 162.913 218.561V591.936H96.1307V218.561C96.1307 187.163 108.604 157.051 130.806 134.849C153.008 112.647 183.12 100.174 214.518 100.174H809.49C840.891 100.174 871 112.647 893.202 134.848L893.204 134.85C915.404 157.051 927.877 187.163 927.877 218.561V591.936H861.095V218.561C861.095 204.876 855.658 191.75 845.981 182.072C836.302 172.393 823.177 166.956 809.49 166.956H214.518Z" fill="black"/>
<path fill-rule="evenodd" clip-rule="evenodd" d="M11.1297 695.152H1012.87V728.543C1012.87 782.483 991.443 834.216 953.3 872.358C915.158 910.501 863.425 931.927 809.485 931.927H214.513C160.573 931.927 108.841 910.501 70.6994 872.358C32.5589 834.216 11.1297 782.484 11.1297 728.543V695.152ZM82.0561 761.934C88.0366 785.655 100.334 807.547 117.923 825.136C143.539 850.753 178.283 865.145 214.513 865.145H809.485C845.715 865.145 880.46 850.753 906.078 825.136C923.667 807.547 935.963 785.655 941.943 761.934H82.0561Z" fill="black"/>
<path d="M426.999 303.565V558.554L639.49 431.059L426.999 303.565Z" fill="black"/>
</svg>
