<svg width="32" height="32" viewBox="0 0 32 32" fill="none" xmlns="http://www.w3.org/2000/svg">
<path d="M16.0004 11.4002L13.7344 9.33118C14.0741 8.18549 14.0907 6.96823 13.7825 5.81367C13.4742 4.65911 12.8531 3.61214 11.9875 2.78825C11.1219 1.96436 10.0456 1.39557 8.87722 1.14464C7.70887 0.8937 6.49391 0.970369 5.36636 1.36618L9.00036 5.00018L5.00036 9.00018L1.36636 5.36618C0.971717 6.49366 0.895902 7.70819 1.14727 8.876C1.39864 10.0438 1.96745 11.1196 2.79103 11.9848C3.61461 12.8501 4.66103 13.4713 5.81502 13.7799C6.969 14.0886 8.18579 14.0727 9.33137 13.7342L11.2004 15.7792" stroke="#242457" stroke-width="2" stroke-miterlimit="10"/>
<path d="M18.6426 23.9432L24.4846 30.3432C24.6668 30.5429 24.8877 30.7037 25.1338 30.8157C25.3799 30.9276 25.6461 30.9886 25.9165 30.9947C26.1868 31.0009 26.4555 30.9522 26.7065 30.8516C26.9575 30.7509 27.1854 30.6004 27.3766 30.4092L30.4146 27.3712C30.6058 27.18 30.7563 26.9521 30.8569 26.7011C30.9576 26.4502 31.0063 26.1814 31.0001 25.9111C30.9939 25.6408 30.933 25.3745 30.821 25.1284C30.7091 24.8823 30.5483 24.6614 30.3486 24.4792L23.6006 18.3252" stroke="#242457" stroke-width="2" stroke-miterlimit="10" stroke-linecap="square"/>
<path d="M30.6341 5.36624L27.0001 9.00024L23.0001 5.00024L26.6341 1.36624C25.5066 0.971594 24.292 0.89578 23.1242 1.14715C21.9564 1.39852 20.8807 1.96732 20.0154 2.79091C19.1502 3.61449 18.529 4.66091 18.2203 5.81489C17.9117 6.96888 17.9275 8.18567 18.2661 9.33124L1.65206 24.4842C1.4523 24.6665 1.29158 24.8873 1.17959 25.1334C1.06761 25.3795 1.00669 25.6458 1.00052 25.9161C0.994352 26.1864 1.04306 26.4552 1.1437 26.7062C1.24434 26.9571 1.39483 27.1851 1.58606 27.3762L4.62406 30.4142C4.81522 30.6055 5.04316 30.756 5.29413 30.8566C5.54509 30.9572 5.81385 31.0059 6.08417 30.9998C6.35449 30.9936 6.62076 30.9327 6.86687 30.8207C7.11298 30.7087 7.33382 30.548 7.51606 30.3482L22.6691 13.7342C23.8147 14.074 25.032 14.0906 26.1866 13.7824C27.3411 13.4741 28.3881 12.8529 29.212 11.9874C30.0359 11.1218 30.6047 10.0455 30.8556 8.8771C31.1065 7.70875 31.0299 6.49378 30.6341 5.36624Z" stroke="#242457" stroke-width="2" stroke-miterlimit="10" stroke-linecap="square"/>
</svg>
