<svg width="20" height="389" viewBox="0 0 20 389" fill="none" xmlns="http://www.w3.org/2000/svg">
<path d="M17.4251 1.97307C22.3751 -2.99975 6.01263 57.0565 4.91263 65.2808C3.81263 74.2701 1.33762 90.1451 5.46263 97.9868C8.35013 103.725 14.4001 99.5168 14.9501 109.08C16.0501 127.25 5.60012 148.48 3.81262 166.65C2.30012 182.142 14.1251 173.535 13.8501 183.672C13.3001 209.301 1.33762 233.974 2.16262 260.942C2.43762 272.8 12.0626 263.62 13.0251 273.374C14.8126 292.118 4.63762 310.288 3.53761 328.649C2.71261 343.376 12.0626 336.108 14.6751 346.436C17.2876 357.147 10.6876 376.656 8.90012 386.601" stroke="#285F5E" stroke-width="3" stroke-miterlimit="1.5" stroke-linecap="round"/>
</svg>
