<svg width="339" height="41" viewBox="0 0 339 41" fill="none" xmlns="http://www.w3.org/2000/svg">
<path d="M2.20211 26.3432C1.25724 27.133 3.77677 21.7622 6.61138 20.1826C11.3357 17.6551 16.5325 15.7596 21.5718 14.022C31.6504 10.5468 71.6497 -4.61776 80.626 5.33396C86.9251 12.2844 68.0279 34.8732 76.8467 38.5064C83.1458 41.0338 94.9565 33.1356 99.9958 31.0821C117.003 23.9737 138.105 7.3875 158.105 9.59899C176.53 11.4946 155.113 33.2936 163.617 34.8732C182.829 38.6643 200.624 15.2857 218.262 14.8118C228.025 14.4959 226.451 27.4489 233.537 28.0808C239.836 28.5547 259.363 16.3914 269.127 14.9698C280.465 13.2322 283.143 23.1839 293.694 23.4998C308.024 23.8157 323.299 16.0755 337 13.3901" stroke="#242457" stroke-width="4" stroke-miterlimit="1.5" stroke-linecap="round"/>
</svg>
