<svg width="461" height="34" viewBox="0 0 461 34" fill="none" xmlns="http://www.w3.org/2000/svg">
<g clip-path="url(#clip0_1483_26776)">
<path d="M142.784 24.7999C143.703 24.4999 144.163 24.4 144.163 24.2C143.014 24.4 142.324 24.4999 142.784 24.7999Z" fill="#72CBA6"/>
<path d="M268.208 19.4C267.518 19.4 266.943 19.5 266.483 19.6C267.058 19.6 267.633 19.6 268.438 19.6C268.323 19.5 268.208 19.5 268.208 19.4Z" fill="#72CBA6"/>
<path d="M213.946 21.7C213.831 21.7 213.601 21.7 213.486 21.7L212.451 21.9L213.946 21.7Z" fill="#72CBA6"/>
<path d="M90.3612 27C90.2463 27 90.1313 27 90.0164 27C87.3722 27.4 88.9817 27.2 90.3612 27Z" fill="#72CBA6"/>
<path d="M253.148 19.8C251.768 19.8 249.929 19.9001 248.779 19.9001C250.504 20.0001 251.883 19.9 253.148 19.8Z" fill="#72CBA6"/>
<path d="M229.121 20L225.672 20.1C225.672 20.1 225.557 20.2 225.672 20.2L229.121 20Z" fill="#72CBA6"/>
<path d="M72.6572 20.4999C73.5769 20.3999 74.4966 20.4 75.3014 20.2C73.8068 20.3 73.1171 20.3999 72.6572 20.4999Z" fill="#72CBA6"/>
<path d="M234.869 19.6C234.179 19.6 233.26 19.7 231.995 19.8C233.26 19.8 234.179 19.7 234.869 19.6Z" fill="#72CBA6"/>
<path d="M11.8415 24.2C12.4163 24.1 12.7612 24 12.6462 23.9C11.8415 24 11.7265 24.1 11.8415 24.2Z" fill="#72CBA6"/>
<path d="M301.433 10.5C298.673 10.7 301.088 10.8 302.467 10.9C302.582 10.8 302.582 10.6 301.433 10.5Z" fill="#72CBA6"/>
<path d="M262.575 12.4C263.035 12.3 263.38 12.3 263.725 12.2C263.035 12.2 262.69 12.3 262.575 12.4Z" fill="#72CBA6"/>
<path d="M102.433 17.7L105.767 17.6C105.767 17.5 105.882 17.3 107.491 17.1L102.433 17.7Z" fill="#72CBA6"/>
<path d="M356.614 17.9C359.718 17.8 362.937 17.7 366.271 17.6C369.605 17.5 372.939 17.3 376.388 17.2C383.17 16.9 390.183 16.7 397.196 16.5C411.221 16.1 425.247 15.9 436.973 16.7C438.237 16.6 439.617 16.5 441.111 16.5C442.606 16.5 444.1 16.6 445.48 16.8C446.17 16.9 446.86 17 447.204 17.1C447.319 17.1 447.319 17.1 447.319 17.1C447.319 17.2 447.434 16.9 447.434 16.8L447.549 16.4C447.664 16.2 447.779 15.9 447.894 15.7C448.009 15.5 448.124 15.2 448.239 15L448.469 14.7L448.584 14.4C448.814 14 449.044 13.7 449.274 13.4C449.504 13.1 449.619 12.9 449.964 12.7L450.079 12.6C449.849 12.8 450.653 12.1 449.504 13C449.619 12.9 449.619 12.8 449.734 12.8C449.849 12.7 450.193 12.5 450.308 12.4C450.423 12.3 450.653 12.2 450.768 12.2C450.883 12.1 450.998 12.1 451.113 12.1C451.228 12.1 451.228 12.1 451.113 12L450.883 11.8C450.768 11.7 450.653 11.5 450.538 11.4C450.079 10.7 449.734 9.60001 449.389 8.20001C449.274 7.80001 449.159 7.39998 449.159 7.09998L449.044 6.5V6.20001C449.044 6.20001 449.044 6.20001 448.929 6.20001C448.814 6.20001 448.699 6.20001 448.584 6.20001C448.009 6.30001 447.089 6.29999 446.17 6.29999L445.365 5.29999L443.526 5.40002L442.376 5.5L441.456 5.59998L438.237 5.90002C435.593 5.70002 443.181 5.49999 438.467 5.29999L436.053 6C435.478 5.7 419.499 6.49999 430.305 5.29999C422.028 5.69999 413.75 6.09999 405.358 6.29999C399.84 6.39999 402.139 7.20001 395.931 7.20001C394.667 6.90001 398.115 6.89998 397.656 6.59998C379.147 6.29998 376.388 9.1 359.028 9L360.523 8.79999C357.534 9.09999 352.015 9.19999 351.9 9.29999C354.2 10.3 355.005 8.70001 360.293 9.20001C359.833 10.1 353.74 9.80002 354.085 10.4C350.061 10.2 347.647 10.7 344.083 10.8C338.105 10.4 329.483 10.9 324.884 10.3C321.895 10.6 318.676 11.5 312.353 11.7C307.755 11.1 313.388 11 307.18 10.9L306.145 11.4C301.087 11.4 301.892 11.3 302.007 11C296.603 11.1 297.523 11.8 290.74 11.6L294.534 11C289.476 11.3 287.406 11.2 280.509 11.4C280.624 11.1 283.498 11.1 285.567 11.1C281.773 10.4 279.014 11.6 277.06 11.5C277.635 11.7 282.463 11.7 280.164 12.2C276.715 12.2 272.806 13 270.277 12.5L274.071 11.9C266.828 12.5 270.162 12.6 261.885 12.6C262.345 12.6 262.115 12.4 262.345 12.3C257.056 13.1 250.159 12.7 242.456 12.8L243.951 12.6C240.847 12.9 239.122 13.3 237.398 13.4C241.881 13.6 240.617 13.8 241.077 14.2C235.213 13.5 232.109 15.4 222.568 15.2C222.682 14.9 224.982 14.5 227.626 14.7C230.845 13.8 231.19 13 237.053 12.5C233.489 12.8 229.12 13 230.04 12.6L228.89 13.4C226.706 13.5 224.982 13.5 223.257 13.5C222.338 14 227.741 14.2 222.683 14.7C216.934 15.1 219.579 14 218.774 14.4C210.841 14.9 215.555 15.3 207.967 15.3C208.772 15.2 210.152 15 210.841 15.1C205.323 14.9 197.506 15.7 195.781 14.8C196.586 14.6 196.701 14.3 198.77 14.3L198.655 14.4C204.633 13.5 193.712 14.7 195.551 13.8C196.011 14.3 188.309 14.4 184.86 14.5L186.009 15C174.628 17.1 186.584 13.8 175.203 14.4C167.96 15.1 177.962 14.5 173.479 15C168.65 15.1 166.696 14.6 159.683 15.1C157.729 14.9 153.59 14.8 153.245 14.1C148.877 14.5 140.024 14.3 137.61 15.1C145.083 15.3 144.968 14.1 153.705 14.6L151.291 15.3C145.313 15.5 137.61 16.1 133.472 16.1C134.276 16.2 134.736 16.3 134.161 16.5C125.654 17.1 123.24 17.9 114.848 18.1C113.698 17.6 118.641 17.4 122.09 17.2C116.687 17 116.457 17.4 108.18 17.6C107.72 17.1 113.813 17.4 114.733 16.8L105.536 17.4V17.3C104.271 18.2 98.5229 17.6 92.8897 18.1C86.2219 18.5 82.3132 19 79.3242 19.5C76.2202 20 73.9209 20.6 70.2421 21.1C68.2877 21 67.598 20.8 68.5177 20.5C71.8516 20.7 71.1619 20.5 72.3115 20.2C67.8279 20.5 62.4247 19.8 64.9539 19.4C57.8262 20 67.598 19.7 63.2294 20.2L53.4576 20.6C54.6072 21 58.0561 20.9 52.9977 21.5C48.7441 21.8 46.6748 21.9 41.0416 22.1C41.8464 21.8 39.2022 21.5 43.4558 21.3C40.6967 21.3 36.5581 21.5 34.9486 22C41.0417 22 24.9469 22.9 29.5454 23.4H23.4524C24.8319 23.3 24.9469 23 27.0162 23C25.1768 22.4 22.0728 23.5 19.8885 23.7C17.7042 23.7 12.071 24.1 11.6112 23.9C10.6915 24.1 8.9671 24.2 7.35762 24.4C6.55289 24.5 5.74809 24.5 4.71343 24.7C4.59847 24.7 4.36858 24.8 4.25362 24.8C4.02369 24.9 3.79373 24.9 3.5638 25C3.5638 25 3.21896 25.1 3.10399 25.2C2.87407 25.3 2.75911 25.4 2.52918 25.5C2.18429 25.7 1.83939 26 1.72443 26.2C1.4945 26.4 1.37954 26.7 1.14962 26.9C1.14962 26.9 1.03464 27.2 0.919677 27.4C0.804714 27.6 0.8047 27.9 0.689738 28.1C0.574775 28.6 0.574775 29.1 0.689738 29.5C0.8047 30 1.14964 30.7 1.60949 31.2C1.83942 31.5 2.06929 31.7 2.41418 31.9C2.52914 32 2.64413 32.1 2.87405 32.2L3.10399 32.3C3.56384 32.5 4.02371 32.7 4.48356 32.8C4.82845 32.9 4.71347 32.9 4.82843 32.9H5.05837C5.17333 32.9 5.40322 32.9 5.51818 32.9C5.74811 32.9 6.09304 32.9 6.208 32.9C7.01274 32.8 7.24263 32.7 7.47256 32.7C7.70248 32.6 7.81747 32.6 7.93244 32.6C8.0474 32.5 8.0474 32.5 7.93244 32.4C7.70251 32.3 7.2426 32.3 7.58749 32.1L8.16231 32C8.27727 32 8.39229 32 8.50725 32L16.8995 31.6C17.4743 31.9 18.394 32.9 16.8995 33.1C20.5783 32.6 18.1641 31.9 23.7973 31.7C20.6933 32.6 31.2698 31.8 26.6713 32.9C29.8903 33.2 38.9723 32.6 44.0306 32.1C47.1346 31.3 38.6274 32.1 38.8573 31.5C52.8828 30.4 53.6875 28.7 64.0342 28.4H61.39C67.8279 27.7 67.1381 27.8 70.8169 27.1C69.0925 27.9 78.2895 28.6 88.8661 27.8C89.7858 27.4 82.888 27.5 84.6124 26.8L91.6252 26.3C92.085 26.3 91.3953 26.5 90.4756 26.6C96.7985 26 102.317 26.8 104.041 25.9L110.479 26.6L107.95 26.3C108.755 25.9 115.882 25.4 117.377 25.2C124.619 24.4 127.264 24.5 131.172 24.8C129.908 24.6 126.689 24.1 132.437 23.6C132.437 24.8 144.393 23.3 144.278 23.9C146.577 23.8 150.716 23.9 150.946 23.4L150.601 24.1C151.061 23 159.453 22.6 165.891 22.1C164.511 23.5 172.904 21.6 175.893 22.7C177.042 21.7 187.274 21.8 188.309 20.9C193.252 20.6 192.792 21.5 194.057 21.7L196.356 21.2C198.885 21.5 208.197 21.1 213.715 21.2L218.774 20.1L220.728 20.4C221.533 20.2 225.786 19.8 223.142 19.7L225.901 19.6C226.131 18.7 229.81 19.2 235.328 18.6C236.593 18.7 236.248 18.9 235.098 19.1C237.858 19 236.708 19.5 238.202 19.7C236.248 19.6 248.089 17.7 240.617 17.6C240.042 17.3 244.41 16.8 247.17 16.8L248.894 17.5L252.113 16.5C256.367 16.2 258.206 16.7 261.655 16.6C258.091 16.8 253.837 18.5 263.034 18.1C258.206 18.4 255.907 18.9 253.492 19.2C255.332 19.2 256.367 19.2 253.378 19.7C260.505 19.2 255.677 19.1 262.804 18.7C262.46 19.4 264.414 19.6 270.622 19.6L266.023 19.2C266.253 19.1 266.598 19 266.943 19C265.219 19 264.644 18.9 264.299 18.6C265.679 18.5 272.461 17.4 273.611 17.8C266.483 16.9 285.912 16.5 281.428 16C282.233 15.8 287.177 15.6 287.636 15.9C281.773 16.6 292.12 16.6 291.2 17.1C293.384 16.8 286.487 16.7 289.476 16.3C293.04 16.1 295.569 16.5 297.523 16.7L296.029 16.9L301.432 17.1C302.352 16.7 296.144 16.7 301.202 16.3C302.467 16.4 307.525 16.1 307.41 16.4C304.996 17 306.835 17.6 302.582 17.8C306.145 17.7 317.412 17.3 312.813 16.7L317.067 16.6C314.423 16.4 306.95 16 315.457 15.7L315.342 15.8L321.206 15.1L323.735 15.4C323.62 15.2 324.539 15 326.724 15C327.299 15.2 329.368 15.2 329.253 15.5C335.576 15.3 335.116 15 335.921 14.8C339.485 14.7 340.749 14.8 339.14 15.3C343.968 15.3 352.475 15.1 355.809 15.4C362.247 15 354.43 15.3 358.223 14.7C363.857 15.9 379.721 15 390.298 14.9C387.424 13.8 393.172 14.8 395.126 13.8C392.827 14.1 405.128 14.7 395.931 15L401.564 14.9C405.473 15.5 392.252 15.3 398 16.2C404.323 16.2 408.462 15 415.935 15.5C413.406 16.2 421.683 15.3 419.843 16.2C418.234 16.5 416.165 16.3 414.095 16.4L415.36 16.6C429.27 17 419.384 15.7 426.626 15.3C435.133 15.3 433.294 16.1 433.754 16.4C435.018 16.6 439.272 16.6 441.571 16.4C436.398 16.8 432.029 15.7 434.444 15.2C438.122 16.2 446.975 15.6 449.274 15.3C437.203 14.1 440.881 15 429.615 13.8C428.006 14.1 428.236 14.9 421.453 14.4C425.706 14.1 421.223 14 419.958 13.8C421.223 14.3 415.245 13.9 413.176 14.1C411.336 13.7 417.314 13.1 410.416 12.8L409.152 13.9C406.393 13.7 410.302 13.1 404.553 13.3C407.657 12.8 403.634 12.4 411.451 12.3C402.139 11.3 397.196 12.7 389.953 13.1C390.643 13 390.758 12.9 391.448 12.8C389.953 13.1 387.079 13.1 385.01 13.1C380.181 12.9 388.803 12.6 387.539 12.3H379.836C379.721 12.3 379.606 12.2 379.606 12.2C377.537 12.3 375.583 12.4 374.893 12.2C377.192 11.8 378.112 11.5 379.606 11.2L371.444 12C372.364 11.6 364.776 11.4 370.524 11.1L358.453 11.3L357.419 10.6C354.545 10.8 354.43 10.9 357.879 11C353.74 10.9 339.714 12.5 341.784 11.1C332.357 11.9 328.908 11.7 317.527 12.3C326.264 11.4 307.41 11.7 316.722 11.2C311.204 11 310.169 11.8 305.915 12.1C301.892 11.9 303.616 11.1 307.985 10.8L302.926 11.3L303.041 11.2L298.558 11.7C293.844 11.5 297.523 11 292.695 11.1L291.66 11.8L288.326 11.5C289.591 11.8 286.717 12 283.153 12.1L283.268 12L279.014 12.3C283.268 11.8 275.105 12.3 277.06 11.8C273.381 11.9 273.266 11.9 266.713 12.3L267.863 12.7C259.241 13.4 267.518 12.1 260.505 12.3L260.965 12.8C250.848 12.3 243.951 14 236.478 13.7C240.732 13.4 239.582 12.9 239.582 13C233.144 13.4 222.683 13.8 216.13 14.7C213.715 14.1 213.026 13.9 206.243 13.9C201.3 14.2 200.61 14.3 199 14.8C194.172 14.7 185.205 15.6 184.975 15.1C183.94 15.6 180.606 15.2 178.077 15.7L177.502 15.5L177.962 16C169.34 15.3 163.592 17.4 154.97 16.8L156.464 16.6L152.9 17C152.325 16.8 153.82 16.6 153.935 16.3L137.15 17.2L140.484 17.4C136.92 17.7 134.621 18.3 130.597 18.2C137.265 17.1 124.964 18.5 123.93 18L127.494 17.6C122.55 17.9 122.55 17.9 123.01 18.4C116.687 18.9 118.526 17.7 112.663 18.6L116.802 18.4C118.067 18.6 115.078 19.2 112.318 19.4C111.629 19.4 109.674 19.2 111.744 19.1C106.685 19.6 99.2127 19.8 97.0284 20.1C94.2693 20.1 95.189 19.7 96.5686 19.5C85.877 20.6 91.7402 19.7 80.9337 20.8L81.0486 20.5L77.3698 21.1L72.0816 20.8L74.0359 21.1C70.4721 21.4 68.2878 21.7 64.1491 21.8L65.7586 21.3C55.8718 22.1 54.1474 21.3 44.8354 22.5C44.1456 22.5 45.6402 22.2 46.4449 22.1C37.7077 23.3 39.777 21.8 31.0399 23.2C31.6147 23 30.5801 22.9 30.925 22.8L26.9013 23.3L27.1311 22.7L23.9122 23.8L21.383 23.3L19.8885 23.7C18.279 23.4 16.5546 23.3 14.6003 23.4C12.6459 23.5 10.5765 23.6 8.39224 23.6C8.04736 23.6 7.70248 23.6 7.47256 23.7L6.55287 23.8H5.97806H5.86305C5.86305 23.8 5.86305 23.7 5.86305 24L5.97806 25L6.09299 25.8L6.208 27.3C6.208 27.5 6.208 27.7 6.208 27.9C6.208 28.1 6.208 28.2 6.208 28.3C6.208 28.4 6.20796 28.6 6.09299 28.7C6.09299 28.8 6.09302 28.9 5.97806 28.9C5.8631 29 5.97802 29 5.86305 29H5.97806C5.97806 29 6.20797 29.1 6.32293 29.1L6.43787 29.2L6.55287 29.3C5.51821 28.5 6.20798 29.1 5.97806 28.9C6.09302 29 6.208 29.1 6.208 29.2C6.32296 29.3 6.20794 29.4 6.43787 29.6C6.89772 30.4 7.01271 30.9 7.47256 32.1C7.70248 32.6 7.81747 33.2 7.93244 33.7V33.9H8.04737H8.50725C8.16236 33.7 7.93239 33.5 7.81743 33.3C7.93239 33.2 8.27727 33.1 8.73712 33C9.08201 32.9 9.5419 32.8 10.0017 32.7C10.9214 32.5 11.8411 32.4 12.7608 32.3C14.7152 32.1 16.6696 31.9 18.7389 31.7C22.8775 31.4 27.1312 31.3 31.6147 31.2C40.4668 31 49.6638 30.9 58.6309 30.1L58.401 30.7L65.7586 29.7C69.7823 30 63.4594 30.3 64.609 30.5C72.4264 29.8 67.8279 29.5 77.0249 28.9C81.7384 29.1 75.4155 29.4 73.2312 29.7C77.4848 29.4 82.888 29 87.9464 28.6C92.8898 28.3 97.6032 28 100.707 28C100.822 27.9 101.167 27.8 100.937 27.8C106.685 27.2 114.273 27.1 120.596 26.8C120.481 27.1 118.871 27.2 117.377 27.3C119.676 27.2 122.78 27.3 124.734 26.9L122.435 27.5C127.264 27.4 136.576 26.5 137.725 27C137.15 26.8 137.38 26.4 141.519 26.2C143.933 27 152.9 25.3 159.683 25.6C158.878 25.8 153.935 26.1 155.314 26C158.648 26.1 161.752 25.6 164.626 25.2L163.707 25.6L179.342 24.5C181.756 25.3 194.172 23.9 193.137 24.5C198.77 24.3 188.424 24.3 195.551 23.9C197.506 24.2 201.989 23.5 201.644 24.1L200.84 24.2L205.783 24L202.679 24.7C206.933 24.4 210.037 23.8 210.267 23.3C214.29 23.5 220.038 23.1 221.878 23.5L220.383 23.7C231.765 23.1 239.237 24.7 248.089 23.5C248.779 23.6 248.664 23.7 247.284 23.7L254.297 23.6L252.688 24.1L264.299 23.2L264.184 23.5C271.887 23.4 283.843 23 293.729 22.7L292.235 22.9C302.926 22.2 302.582 23 310.514 22.5C310.284 22.6 309.939 22.6 309.709 22.6L316.837 22.5L315.227 22.8C320.401 22.1 330.288 23.3 326.954 22.9C329.943 22.6 335.001 22.2 335.921 21.8C343.623 21.6 337.875 22.1 342.589 22.3C348.222 22.2 349.141 21.7 356.729 21.8L356.614 22.1C360.178 22 362.362 21.7 367.305 21.6L365.811 21.8C373.858 21 375.928 22.5 382.136 21.1C385.47 21.3 391.907 20.9 391.677 21.5C401.679 20.9 409.497 20.5 419.499 19.8C421.108 20.7 421.683 19.6 427.776 19.9L427.316 19.4C430.88 19.2 434.559 19.1 438.352 19C440.192 19 442.146 18.9 444.101 18.9C445.25 18.9 447.319 19 449.619 19C450.193 19 450.883 19 451.573 18.9C451.918 18.9 452.378 18.8 452.838 18.8C453.298 18.7 453.987 18.6 454.907 18.3C455.137 18.2 455.482 18.1 455.712 18C456.172 17.8 456.516 17.6 456.861 17.4C457.091 17.2 457.436 17 457.666 16.8L458.011 16.5L458.241 16.3L458.471 16.1C459.161 15.4 459.735 14.7 460.08 13.5C460.54 12.4 460.54 11.4 460.425 10.3C460.31 9.69999 460.195 9.49998 460.08 9.09998C459.965 8.79998 459.85 8.39998 459.62 8.09998C459.391 7.59998 459.161 7.30002 458.816 6.90002C458.701 6.70002 458.586 6.6 458.471 6.5L458.126 6.20001C457.666 5.80001 457.321 5.50001 456.861 5.20001C456.402 4.80001 456.057 4.7 455.827 4.5C455.137 4.1 454.677 3.90001 454.102 3.70001C453.642 3.50001 453.183 3.39999 452.838 3.29999L451.688 3L450.653 2.79999L449.734 2.59998C448.584 2.39998 447.434 2.2 446.285 2C441.916 1.4 437.893 1.2 433.869 1L433.409 0.5L430.19 1C413.061 0.3 391.333 0.500024 377.997 0.900024C375.813 1.10002 373.054 1.39998 369.95 1.59998C366.846 1.89998 363.627 2 360.178 2L360.868 1.90002C348.797 2.40002 336.036 2.90002 322.815 2.90002C323.62 2.70002 322.355 2.50002 323.735 2.40002C320.631 3.00002 316.032 2.60001 313.158 2.70001L316.492 3C312.813 3.6 307.41 3.3 305.456 3L299.592 3.70001C299.248 3.70001 298.558 3.6 298.558 3.5L297.523 3.79999L294.304 3.20001C292.81 3.40001 284.992 3.79998 282.578 4.59998C282.003 4.39998 276.485 4.39998 280.739 4.09998L259.126 4.79999L262.46 4.90002C262.919 5.40002 256.367 6.00002 253.033 5.90002C257.401 5.30002 253.378 5.20002 251.423 4.90002C248.549 5.30002 253.952 5.19998 252.458 5.59998C248.779 6.09998 240.962 6.6 239.007 6.5L241.191 6.20001C236.133 6.60001 233.834 5.79998 228.89 6.09998C224.522 6.69998 221.188 6.49999 222.108 7.29999C215.67 7.79999 219.579 6.79999 217.509 6.79999C214.52 7.39999 205.553 7.60001 204.289 7.20001C200.84 8.70001 186.929 7.69999 185.78 8.79999L180.491 8.5C180.376 8.8 179.342 9.50002 175.088 9.90002C171.064 9.80002 171.984 9.3 170.719 9L168.075 10.2C162.212 10.2 156.004 10.5 149.451 10.7C146.232 10.9 142.898 11 139.45 11.2C137.725 11.3 136.116 11.4 134.391 11.5C132.782 11.6 131.057 11.6 129.448 11.7C116.112 12.2 101.972 11.9 88.8661 12.1C83.003 12.5 76.3352 13.1 69.4374 14.2C65.9885 14.7 62.4247 15.4 58.8609 16.2C57.0215 16.6 55.297 17.1 53.4576 17.6C53.2277 17.7 53.1127 17.7 52.193 18C52.193 18 51.3883 18.3 50.8135 18.6L50.6985 18.7C50.4685 18.8 50.3536 18.9 50.1237 19.1C49.7788 19.4 49.4339 19.7 49.089 20C48.7441 20.3 48.5142 20.7 48.2843 21C48.1693 21.2 48.0544 21.4 47.9394 21.5C47.8244 21.7 47.3646 22.6 47.2496 23.4C47.1346 24.3 47.1346 25.3 47.4795 26.3C47.8244 27.3 48.2843 28.1 48.8591 28.8C49.4339 29.5 50.1237 29.9 50.1237 29.9C50.2386 30 50.4686 30.1 50.5835 30.2C51.2733 30.6 52.0781 30.9 52.7678 31.2C52.8828 31.2 53.2277 31.3 53.3427 31.3H53.4576H53.6875L54.1473 31.4H54.6072H54.8372C55.0671 31.4 55.4119 31.4 55.5269 31.4C56.1017 31.4 56.4466 31.4 56.6765 31.4L57.4813 31.3C58.401 31.2 59.3207 31.2 60.1254 31.1L58.6309 31.4L61.9649 31.1C63.1145 31 64.0342 30.9 64.9539 30.9L71.5067 30.6L66.6783 30.7H64.379C63.8042 30.7 62.9995 30.7 62.1947 30.8C62.8845 30.7 63.4594 30.6 64.0342 30.5C64.494 30.4 65.1838 30.3 65.7586 30.3C67.0232 30.2 68.2877 30 69.6673 29.9C84.1526 29.4 103.351 28.8 121.056 27.2C132.437 25.3 128.758 27.8 139.68 26.3C138.76 26.5 138.415 26.7 137.61 26.8C149.451 25.7 155.889 25.1 167.615 23.9C166.351 25.2 175.318 23.5 174.283 24.2L175.203 23.7C177.847 23.9 184.055 23.8 183.25 24.2L188.424 23.4L188.884 23.9C195.781 23.7 210.726 22.8 214.405 23.7C231.535 22.4 258.781 22 280.394 21.8C283.383 21.3 289.706 21.2 294.649 21.1L299.937 21.6C304.996 21.3 310.284 20.5 314.997 20.8C314.997 20.9 314.768 20.9 314.423 21C319.481 20.8 324.424 21.1 329.138 20.4C334.771 20.4 340.174 20.6 338.45 21.2C339.025 20.2 350.291 21.2 350.291 21.2C350.291 21.2 368.225 21.1 396.276 21C403.289 21 410.876 21 419.154 20.8C423.292 20.7 427.546 20.7 431.799 20.6C433.869 20.6 436.053 20.5 438.237 20.5C439.387 20.5 440.537 20.5 441.801 20.4H442.836L443.526 20.3L444.101 20.2L444.56 20.1C444.79 20.1 444.905 20.1 445.25 20C446.285 19.7 445.135 20.3 448.009 19C452.033 22.4 453.757 2 448.699 5C445.825 3.5 447.09 4.29999 445.94 3.79999C445.365 3.69999 445.48 3.69998 445.25 3.59998C444.79 3.49998 444.675 3.5 444.445 3.5C444.215 3.5 444.216 3.50002 444.101 3.40002L443.181 3.29999C440.767 2.99999 438.237 2.70002 435.823 2.40002C433.409 2.20002 430.995 2.10002 428.466 1.90002C427.201 1.80002 425.936 1.70001 424.787 1.70001C423.522 1.70001 422.373 1.59998 421.108 1.59998C418.694 1.59998 416.165 1.5 413.635 1.5C408.692 1.6 403.634 1.50001 398.575 1.70001C396.046 1.80001 393.517 1.90002 390.988 1.90002C388.459 2.00002 385.929 2.09999 383.4 2.29999C363.052 3.29999 342.359 5.1 322.125 7C302.007 8.9 282.233 11 264.184 12.5C255.102 13.2 246.25 13.9 237.973 14.5C229.695 15.1 221.763 15.8 214.52 16.4C210.956 16.7 207.392 17 204.174 17.4C200.955 17.7 197.851 18 194.977 18.3C189.113 18.7 183.71 19.1 179.342 19.6C177.042 20.1 170.26 20.9 172.904 21.3C170.26 21.6 168.42 21.6 166.581 21.8C166.006 21.9 165.661 22 165.201 22.1C164.856 22.2 164.511 22.4 164.741 22.5C165.086 22.6 165.546 22.5 165.891 22.7C165.316 22.7 164.971 22.8 164.741 22.7C164.626 22.6 164.856 22.5 165.086 22.5C165.201 22.4 165.431 22.4 165.546 22.4C166.121 22.3 166.581 22.3 166.696 22.3C167.041 22.4 166.696 22.6 166.351 22.9C166.006 23.2 165.776 23.5 166.121 23.5C166.236 23.6 166.581 23.5 167.156 23.5C167.615 23.5 168.305 23.5 169.225 23.4C168.42 23.5 167.73 23.6 166.926 23.8C166.466 23.9 166.121 24 165.776 24.3C165.661 24.5 165.776 24.6 166.006 24.6C166.121 24.7 166.351 24.7 166.581 24.7C166.811 24.8 166.581 24.8 166.121 24.7C166.006 24.7 165.891 24.6 165.891 24.5C165.891 24.4 166.121 24.3 166.236 24.2C166.581 24 167.041 23.9 167.385 23.8C168.995 23.4 170.375 23.3 169.915 23.7L171.064 22.7C174.628 22.6 176.583 22.7 177.847 23C181.066 22.5 183.135 21.2 191.068 21.6L188.884 21.7C195.206 21.6 192.792 22.2 194.172 22.4H192.792L195.436 22.6H196.126C196.356 22.6 196.471 22.6 196.701 22.6H198.081C197.621 22.6 197.046 22.6 196.471 22.6C195.896 22.6 195.321 22.6 194.862 22.6C193.712 22.6 192.562 22.7 191.758 22.8C190.033 23 189.228 23.2 190.953 23.1C198.54 23.2 188.998 22.9 194.632 22.7C195.551 22.7 196.126 22.7 196.471 22.7C196.931 22.7 197.046 22.8 197.161 22.8C197.391 22.9 197.046 23.2 197.046 23.3L203.369 22.9C203.139 23.3 199.23 23.1 201.759 23.4L209.692 22.5C211.301 23.5 218.314 21.5 221.993 22.3C216.245 22.9 222.568 22.6 221.648 23L235.673 22.1C237.053 22.2 231.995 22.6 234.179 22.5C236.823 22.7 238.547 22 239.927 21.9C241.192 22.1 250.389 21.3 250.044 22C259.586 21.9 253.952 20.9 262.919 20.7C264.069 21.1 255.907 21.2 259.815 21.5C262.919 21.3 265.908 21 269.012 20.7C268.208 21 267.288 21.5 263.839 21.7C276.37 21.2 286.027 21 295.339 20.8C304.651 20.6 313.733 20.2 325.114 18.9C328.333 19.1 322.815 19.5 320.631 20C336.955 17.9 343.853 19.1 357.764 18L357.994 17.6C362.937 17.6 367.995 17.4 373.284 17.2C378.572 17 383.975 16.7 389.493 16.5C400.415 16.1 411.796 15.7 422.488 16.3L419.958 15.9C421.453 15.7 423.407 15.6 425.362 15.6C427.316 15.6 429.385 15.7 431.225 15.7C431.685 16 428.695 16.4 434.788 16.7C433.639 16.4 430.995 16.1 431.799 15.9C434.099 16.1 436.513 16.6 439.272 17C439.962 17.1 440.652 17.2 441.341 17.3H441.571C441.571 17.3 441.686 17.3 441.571 17.3L441.801 16.2L442.376 13.9C442.491 13.6 442.491 13.3 442.606 13C442.721 12.7 442.836 12.3 442.836 12.2C442.951 12 442.951 11.8 443.066 11.6C443.181 11.5 443.066 11.5 443.181 11.4L443.296 11.3C443.296 11.3 443.181 11.2 443.181 11.1C443.066 10.9 443.066 10.7 442.951 10.5C442.951 10.3 442.836 10 442.721 9.70001C442.606 9.40001 442.606 9.09999 442.606 8.79999C442.491 8.09999 442.376 7.3 442.261 6.5L442.146 5.90002L442.031 5.20001H441.916H441.456C439.962 5.20001 438.352 5.20001 436.628 5.20001C433.179 5.20001 429.385 5.20001 425.591 5.20001C421.798 5.20001 417.774 5.29999 413.75 5.29999C397.426 5.39999 379.606 5.50002 363.972 5.40002C321.665 6.20002 275.795 5.90001 234.179 7.20001C240.502 7.00001 237.858 8.1 233.029 8C219.923 6.5 210.382 8.90001 196.931 8.20001C172.674 9.60001 150.946 8.99999 128.528 11.8L128.068 11.3C124.734 11.3 123.815 11.7 120.251 11.9L120.366 11.8C111.974 12.1 101.972 13.2 97.1434 13.2L96.9134 13.8C91.97 14.1 94.2693 13.5 89.2109 14.1L89.3259 13.8L83.4628 14.7C83.9226 13.7 69.5524 15.5 65.5287 15.3C64.7239 15.4 63.8042 15.5 62.7695 15.6C61.6199 15.7 60.5853 15.9 59.4357 16C58.401 16.1 57.2514 16.3 56.2167 16.4C55.9868 16.4 55.7568 16.5 55.5269 16.5H55.297V16.9V18C55.297 18.6 55.297 19.2 55.297 19.8V20.7C55.297 20.9 55.297 21.2 55.297 21.4C55.297 22.4 55.1821 23.1 55.0671 23.4C54.9521 23.5 54.9521 23.5 54.9521 23.5C55.0671 23.5 55.0671 23.6 55.182 23.7C55.412 23.9 55.527 24.2 55.6419 24.5C55.8718 24.9 56.1017 25.4 56.3317 25.8L56.6765 26.5L57.0214 27.4C57.2513 28 57.4813 28.6 57.7112 29.2L57.8262 29.7C57.8262 29.8 57.9412 30.1 57.9412 30L58.7458 29.8C62.9995 28.5 67.9429 27.6 72.5414 27.1C73.0012 27.2 74.0359 27.1 75.4154 27C76.795 26.9 78.6344 26.8 80.5887 26.7C84.6124 26.5 89.211 26.3 93.0048 26.3C100.247 25.9 109.099 25.8 118.641 25.6C123.47 25.5 128.413 25.4 133.472 25.1C138.3 24.8 143.243 24.6 147.957 24.3L147.612 23.7L152.555 23.4C152.44 23.5 153.13 23.6 152.44 23.7C156.349 24.2 163.707 22.8 167.73 23C165.201 22.6 164.282 23.1 161.522 23.3C157.499 23.2 161.292 22.4 166.696 22.4L166.581 22.5L170.26 21.9C170.719 22.4 174.053 22.4 174.513 22.9C190.608 21.9 201.529 20.4 218.199 19.8C216.475 20.4 230.155 19.1 226.821 20.2C236.823 19.3 225.097 19.5 229.695 18.6C232.454 18.5 235.443 18.1 235.903 18.4C234.639 18.7 238.202 18.9 235.903 19.1L242.571 18.7C243.261 18.7 241.766 19 240.962 19.1C254.527 17.9 265.104 18.7 277.29 17.6C278.209 17.2 272.461 17.7 273.266 17.3C285.567 16.1 284.188 17.5 295.569 16.6L293.27 17.2C296.948 16.7 298.558 16.3 304.651 16.5C305.686 17.1 299.478 17.1 296.603 17.5C300.742 17.4 311.319 16.9 308.1 16.5C313.158 16.2 314.997 16.6 317.642 16.7C317.757 16.6 312.928 16.4 315.917 16.1C322.7 16.2 333.277 15.9 341.669 15.8C341.554 15.9 342.244 16.2 341.439 16.2C348.107 16.9 347.417 18.2 356.614 17.9Z" fill="#72CBA6"/>
<path d="M131.862 16.3C132.322 16.4 133.012 16.4001 133.702 16.4001C133.242 16.3001 132.667 16.3 131.862 16.3Z" fill="#72CBA6"/>
<path d="M217.05 14.3C219.119 14.3 221.993 14 223.603 13.6C221.533 13.7 219.579 13.8 217.05 14.3Z" fill="#72CBA6"/>
<path d="M101.627 28.3C101.168 28.3 100.708 28.3 100.248 28.3C100.018 28.4 100.133 28.5 101.627 28.3Z" fill="#72CBA6"/>
<path d="M314.309 21.9C313.734 21.9 313.159 21.9 312.699 22C313.389 21.9 313.849 21.9 314.309 21.9Z" fill="#72CBA6"/>
<path d="M171.755 21.7999C170.26 21.9999 168.88 22.1999 167.041 22.5999C168.88 22.2999 170.26 22.0999 171.755 21.7999Z" fill="#72CBA6"/>
<path d="M137.381 27.8C136.231 27.9 135.081 28 133.932 28.1C135.656 28 136.691 27.9 137.381 27.8Z" fill="#72CBA6"/>
<path d="M120.941 28.1C120.826 28.1 120.826 28.1 120.941 28.1C120.596 28.1 120.481 28.2 120.251 28.2L120.941 28.1Z" fill="#72CBA6"/>
<path d="M176.123 24.4H178.307C178.077 24.3 177.847 24.3 177.618 24.2C177.158 24.3 176.583 24.3 176.123 24.4Z" fill="#72CBA6"/>
<path d="M235.789 20.7L233.949 20.7999C234.869 20.6999 235.444 20.7 235.789 20.7Z" fill="#72CBA6"/>
<path d="M276.485 18.8C273.841 19.3 268.208 19.0001 268.323 19.4001C271.082 19.3001 275.221 19.4 276.485 18.8Z" fill="#72CBA6"/>
<path d="M297.983 4.09998L298.558 3.90002C298.098 4.00002 297.983 3.99998 297.983 4.09998Z" fill="#72CBA6"/>
<path d="M179.342 20.9C176.583 21 174.284 21.4 171.755 21.8C174.284 21.4 176.813 21.2 179.342 20.9Z" fill="#72CBA6"/>
<path d="M379.147 12.9001C379.607 12.9001 379.952 12.8 380.412 12.8C379.722 12.8 379.147 12.8001 379.147 12.9001Z" fill="#72CBA6"/>
<path d="M383.056 12.6C382.251 12.6 381.332 12.7 380.412 12.8C381.562 12.8 382.941 12.8 383.056 12.6Z" fill="#72CBA6"/>
<path d="M419.614 14.4001C419.499 14.4001 419.499 14.3 419.384 14.3C419.269 14.3 419.384 14.4001 419.614 14.4001Z" fill="#72CBA6"/>
<path d="M326.035 16.4L323.391 16.1C323.391 16.2 324.31 16.4 326.035 16.4Z" fill="#72CBA6"/>
<path d="M114.043 27.9C114.618 27.8 115.652 27.7 116.687 27.6C115.423 27.6 114.388 27.7 114.043 27.9Z" fill="#72CBA6"/>
<path d="M276.946 12.2C276.831 12.2 276.831 12.2 276.716 12.3C278.095 12.3 280.05 12.2 283.269 12.1L276.946 12.2Z" fill="#72CBA6"/>
<path d="M30.3506 22.8L32.075 22.6C30.9254 22.6 30.4655 22.7 30.3506 22.8Z" fill="#72CBA6"/>
<path d="M184.516 15.4999C184.631 15.3999 184.86 15.3 184.86 15.2C184.516 15.3 184.516 15.3999 184.516 15.4999Z" fill="#72CBA6"/>
</g>
<defs>
<clipPath id="clip0_1483_26776">
<rect width="461" height="34" fill="white"/>
</clipPath>
</defs>
</svg>
