<svg width="307" height="342" viewBox="0 0 307 342" fill="none" xmlns="http://www.w3.org/2000/svg">
<path d="M113.463 228.265C82.8669 212.3 55.4194 187.962 53.1423 148.723C49.1601 70.5865 138.685 23.2302 201.164 55.5386C261.354 86.4762 296.366 164.662 247.017 223.862C218.982 257.563 187.957 242.524 160.93 249.606C144.771 253.732 125.602 283.278 110.3 287.918C90.709 293.932 148.776 246.664 113.463 228.265Z" stroke="#7D2D63" stroke-width="5" stroke-miterlimit="1.5" stroke-linecap="round"/>
<path d="M173.522 124.784C170.806 115.656 168.091 103.37 161.797 96.4406C152.499 85.7374 141.336 94.0505 138.471 105.756C133.887 124.328 140.321 143.579 143.893 161.906C145.179 168.598 146.608 175.77 147.321 182.909C147.607 185.449 147.033 189.053 149.466 190.116C156.619 193.612 165.492 187.086 171.216 183.409C181.95 176.813 189.25 166.58 198.267 157.376C206.568 148.928 217.302 140.752 218.593 126.919C219.312 115.901 212.588 109.899 203.002 110.076C192.986 110.391 184.113 116.128 176.957 122.894" stroke="#7D2D63" stroke-width="5" stroke-miterlimit="1.5" stroke-linecap="round"/>
</svg>
