<svg width="399" height="330" viewBox="0 0 399 330" fill="none" xmlns="http://www.w3.org/2000/svg">
<path d="M106.18 256.368C107.41 254.318 101.462 255.138 99.2052 254.523C94.4872 253.088 89.7693 251.243 85.2564 249.399C71.9231 244.07 58.1795 237.716 46.8975 228.902" stroke="#242457" stroke-width="6" stroke-miterlimit="1.5" stroke-linecap="round"/>
<path d="M98.795 263.132C98.1796 264.976 78.077 256.163 76.6411 255.548" stroke="#242457" stroke-width="6" stroke-miterlimit="1.5" stroke-linecap="round"/>
<path d="M51.2053 106.125C52.2309 106.74 47.3078 124.778 46.6924 128.672C44.436 143.02 46.8976 157.983 50.5899 171.716" stroke="#242457" stroke-width="6" stroke-miterlimit="1.5" stroke-linecap="round"/>
<path d="M67.6153 14.5045C67.6153 11.6349 63.5127 18.3988 61.6666 20.2436C58.1794 23.933 54.8974 27.6224 51.6153 31.3118C41.1538 42.995 31.7179 54.8833 25.3589 69.4361" stroke="#242457" stroke-width="6" stroke-miterlimit="1.5" stroke-linecap="round"/>
<path d="M46.4872 3.02588C46.4872 3.02588 32.7436 15.1191 32.1282 15.734C20.4359 27.8271 8.74359 42.585 3 58.5725" stroke="#242457" stroke-width="6" stroke-miterlimit="1.5" stroke-linecap="round"/>
<path d="M369.769 75.9951C369.564 75.9951 370.18 75.9951 370.18 75.9951C373.872 77.8398 375.923 82.3491 377.359 85.8336C380.436 93.6224 381.257 102.846 381.257 111.045" stroke="#242457" stroke-width="6" stroke-miterlimit="1.5" stroke-linecap="round"/>
<path d="M371.205 240.585C363.615 254.933 337.769 269.486 321.154 274.2" stroke="#242457" stroke-width="6" stroke-miterlimit="1.5" stroke-linecap="round"/>
<path d="M341.667 280.964C346.59 283.219 373.461 262.107 377.154 258.007" stroke="#242457" stroke-width="6" stroke-miterlimit="1.5" stroke-linecap="round"/>
<path d="M220.231 265.796C181.461 262.722 143.307 265.181 106.179 250.424C80.9485 240.175 53.4614 219.268 38.8973 195.287C10.9998 149.374 32.5383 70.8707 72.7434 38.4856C132.846 -9.88706 288.128 -7.01744 351.102 36.231C416.743 81.5291 404.231 192.827 349.461 238.125C328.128 255.753 294.692 252.063 272.128 267.641C263.923 273.175 217.769 326.262 216.743 326.262C215.923 326.262 214.897 319.293 214.897 318.883C213.872 312.324 220.641 268.256 217.769 265.796" stroke="#242457" stroke-width="6" stroke-miterlimit="1.5" stroke-linecap="round"/>
</svg>
