<svg width="239" height="272" viewBox="0 0 239 272" fill="none" xmlns="http://www.w3.org/2000/svg">
<g opacity="0.5">
<path d="M88.4356 180.699C63.9969 167.847 42.0209 148.382 40.0048 117.272C36.4295 55.3273 107.451 18.3832 157.355 44.3929C205.43 69.3015 233.707 131.488 194.73 178.08C172.587 204.603 147.811 192.483 126.333 197.92C113.491 201.084 98.3843 224.372 86.2277 227.949C70.663 232.588 116.643 195.509 88.4356 180.699Z" stroke="#242457" stroke-width="3" stroke-miterlimit="1.5" stroke-linecap="round"/>
<path d="M135.832 98.9467C133.621 91.6938 131.396 81.9379 126.348 76.4045C118.89 67.8605 110.044 74.3768 107.824 83.6364C104.271 98.3267 109.493 113.628 112.432 128.177C113.491 133.489 114.666 139.184 115.271 144.847C115.511 146.862 115.074 149.715 117.016 150.573C122.73 153.391 129.761 148.275 134.3 145.399C142.812 140.24 148.571 132.177 155.703 124.941C162.269 118.299 170.773 111.889 171.73 100.933C172.245 92.2042 166.861 87.4027 159.228 87.4808C151.255 87.6652 144.219 92.155 138.556 97.4712" stroke="#242457" stroke-width="3" stroke-miterlimit="1.5" stroke-linecap="round"/>
</g>
</svg>
