<svg width="489" height="94" viewBox="0 0 489 94" fill="none" xmlns="http://www.w3.org/2000/svg">
<path d="M47.3176 65.7099C46.5024 65.6331 46.1764 66.6317 46.8285 66.8621C105.033 90.5977 165.03 84.5293 190.79 85.5279C258.776 88.2932 335.567 80.3046 396.216 65.6331C420.998 59.6416 457.192 51.192 464.366 36.8278C474.8 16.0112 391.162 6.87032 362.305 4.87315C271.33 -1.4256 172.53 2.33829 87.0986 19.0838C59.7084 24.4607 5.09111 36.5974 10.4713 54.9559C16.3406 75.3885 92.6418 82.8394 125.086 85.7584C217.039 93.9006 326.763 96.666 413.824 77.7697C446.432 70.7028 491.756 55.0327 485.397 35.2147C479.202 15.8576 424.422 9.71244 391.325 6.87032C291.221 -1.73285 174.975 5.41085 80.4141 22.4636C34.4377 30.6827 -43.0047 53.8037 35.905 69.781C46.6655 71.9318 57.915 73.4681 69.1645 74.6203" stroke="#4E61F3" stroke-width="4" stroke-miterlimit="1.5" stroke-linecap="round"/>
</svg>
