<svg width="37" height="35" viewBox="0 0 37 35" fill="none" xmlns="http://www.w3.org/2000/svg">
<path d="M13.9612 11.375H10.1775V19.25H13.9612" stroke="#242457" stroke-width="2" stroke-miterlimit="10"/>
<path d="M13.9612 19.25L16.2314 27.125C16.8335 27.125 17.4109 26.8987 17.8367 26.4959C18.2624 26.0932 18.5016 25.5469 18.5016 24.9773V20.6818H24.1771C24.5044 20.6818 24.8278 20.6148 25.1252 20.4855C25.4226 20.3562 25.6869 20.1676 25.9 19.9326C26.1131 19.6975 26.27 19.4217 26.3599 19.124C26.4498 18.8263 26.4706 18.5137 26.4208 18.2076L25.6058 13.1963C25.5234 12.6896 25.2522 12.2275 24.8411 11.8934C24.4301 11.5594 23.9062 11.3755 23.3644 11.375H13.9612V19.25Z" stroke="#242457" stroke-width="2" stroke-miterlimit="10" stroke-linecap="square"/>
<path d="M36 17.5C36 26.5612 28.2189 34 18.5021 34C8.78527 34 1.00415 26.5612 1.00415 17.5C1.00415 8.43883 8.78527 1 18.5021 1C28.2189 1 36 8.43883 36 17.5Z" stroke="#242457" stroke-width="2"/>
</svg>
