<svg width="114" height="119" viewBox="0 0 114 119" fill="none" xmlns="http://www.w3.org/2000/svg">
<path d="M9.60397 38.3027C10.7976 38.1981 9.06606 40.5887 8.79712 41.7317C8.39855 44.1127 8.37359 46.5442 8.34862 48.9758C8.36245 56.739 9.15193 64.1127 11.6479 71.5273C17.796 89.8991 36.6904 105.736 56.5795 104.397" stroke="#4E61F3" stroke-width="3" stroke-miterlimit="1.5" stroke-linecap="round"/>
<path d="M42.09 94.5211C44.4592 100.625 55.3381 102.327 58.0171 105.581C58.3401 106.005 56.9406 105.663 56.4499 105.635C55.6077 105.673 54.7655 105.711 53.9677 105.984C51.3178 106.728 48.9181 108.153 46.5185 109.578C44.9894 110.475 41.254 114.458 39.3132 114.461" stroke="#4E61F3" stroke-width="3" stroke-miterlimit="1.5" stroke-linecap="round"/>
<path d="M46.4791 58.7437C46.0674 57.851 46.834 60.618 47.0115 61.5551C47.5057 63.5244 48.0948 65.3543 48.9183 67.1398C50.8154 71.3916 53.8396 75.1872 56.3003 79.211C56.4618 79.4231 58.9508 82.956 58.4095 83.3012C58.0802 83.4849 51.2756 78.9489 50.579 78.4741C45.0665 75.635 40.6054 75.1449 34.9854 73.6609" stroke="#4E61F3" stroke-width="3" stroke-miterlimit="1.5" stroke-linecap="round"/>
<path d="M55.6735 81.0284C56.1864 81.174 54.9103 80.2022 54.5873 79.778C53.6848 78.8568 52.643 77.8406 51.7406 76.9194C49.1946 74.368 46.5094 71.7215 44.1756 69.0085C36.9461 60.3061 30.3939 49.4126 29.9995 37.7171C29.7549 31.9391 32.0811 26.2809 35.1705 21.449C44.7456 6.65249 59.7557 4.53846 76.2484 8.33211" stroke="#4E61F3" stroke-width="3" stroke-miterlimit="1.5" stroke-linecap="round"/>
<path d="M78.9475 39.2485C79.0868 39.3435 80.1979 38.1623 79.0203 38.992C75.7944 41.1803 72.6634 43.2292 70.0614 46.1487C64.8572 51.9878 62.3508 59.2574 65.9232 66.5896C71.627 78.1291 82.6688 89.0219 95.5204 92.1702C98.9494 92.977 102.496 93.7617 105.902 94.4514C107.419 94.7709 108.958 95.2076 110.474 95.5272C110.591 95.505 110.987 95.6727 110.965 95.5556" stroke="#4E61F3" stroke-width="3" stroke-miterlimit="1.5" stroke-linecap="round"/>
<path d="M89.9149 82.4322C89.7694 82.9451 90.7509 83.002 91.1688 83.2869C92.35 84.398 93.5311 85.5091 94.9243 86.4587C98.5688 89.0448 102.85 91.1465 106.874 93.1753C108.084 93.7957 111.278 94.6469 112.108 95.8245C112.292 96.1538 111.456 95.584 111.177 95.3941C110.525 95.1536 109.756 94.9352 109.008 94.834C106.884 94.5082 104.687 94.4389 102.467 94.2525C100.13 94.0882 97.7939 93.9239 95.3623 93.8989C91.4807 93.9058 88.0836 94.5491 84.4522 95.2366" stroke="#4E61F3" stroke-width="3" stroke-miterlimit="1.5" stroke-linecap="round"/>
</svg>
