<svg width="235" height="283" viewBox="0 0 235 283" fill="none" xmlns="http://www.w3.org/2000/svg">
<path d="M136.705 209.463C115.949 212.277 96.066 210.639 77.0146 201.982" stroke="#FF9594" stroke-width="4" stroke-miterlimit="1.5" stroke-linecap="round"/>
<path d="M76.0059 212.513C93.2548 223.279 113.143 229 133.432 223.951" stroke="#FF9594" stroke-width="4" stroke-miterlimit="1.5" stroke-linecap="round"/>
<path d="M138.257 232.61C119.406 240.719 90.5559 242.193 72.7793 230.415" stroke="#FF9594" stroke-width="4" stroke-miterlimit="1.5" stroke-linecap="round"/>
<path d="M78.5352 249.172C95.2679 251.053 111.581 255.385 128.186 251.533" stroke="#FF9594" stroke-width="4" stroke-miterlimit="1.5" stroke-linecap="round"/>
<path d="M121.756 260.772C109.224 264.61 96.0985 264.565 83.3701 261.771" stroke="#FF9594" stroke-width="4" stroke-miterlimit="1.5" stroke-linecap="round"/>
<path d="M100.405 205.514C106.034 189.933 104.742 170.647 98.9169 155.347C95.1597 145.491 85.7051 132.138 89.3978 120.948C90.2685 118.457 91.9349 116.51 93.6012 114.564C101.955 105.133 113.252 108.801 119.423 118.622C123.003 124.1 124.407 132.776 118.89 137.747C113.385 142.868 109.823 133.602 109.646 129.224C109.252 117.895 124.305 101.13 134.154 113.695C147.009 130.117 126.033 152.49 120.532 167.759C115.901 180.536 117.41 194.656 117.339 207.838" stroke="#FF9594" stroke-width="4" stroke-miterlimit="1.5" stroke-linecap="round"/>
<path d="M54.846 179.744C48.2152 183.89 42.0682 188.453 36.1388 193.908" stroke="#FF9594" stroke-width="4" stroke-miterlimit="1.5" stroke-linecap="round"/>
<path d="M42.3366 147.747C31.6552 148.118 21.3154 151.033 11.3318 154.676" stroke="#FF9594" stroke-width="4" stroke-miterlimit="1.5" stroke-linecap="round"/>
<path d="M9.10764 111.776C15.8933 109.74 22.7354 108.456 29.7386 107.311" stroke="#FF9594" stroke-width="4" stroke-miterlimit="1.5" stroke-linecap="round"/>
<path d="M43.5931 69.6281C35.4488 61.6286 26.7832 54.7294 17.7949 47.5523" stroke="#FF9594" stroke-width="4" stroke-miterlimit="1.5" stroke-linecap="round"/>
<path d="M61.9561 12.3128C67.7397 18.9834 72.7164 24.9591 75.1711 33.5536" stroke="#FF9594" stroke-width="4" stroke-miterlimit="1.5" stroke-linecap="round"/>
<path d="M123.19 36.1229C121.933 27.4324 122.052 18.9386 123.212 10.213" stroke="#FF9594" stroke-width="4" stroke-miterlimit="1.5" stroke-linecap="round"/>
<path d="M163.833 47.348C166.602 41.9844 169.394 36.922 172.636 31.8247" stroke="#FF9594" stroke-width="4" stroke-miterlimit="1.5" stroke-linecap="round"/>
<path d="M191.627 69.6152C202.776 61.3349 200.916 62.69 212.4 54.8379" stroke="#FF9594" stroke-width="4" stroke-miterlimit="1.5" stroke-linecap="round"/>
<path d="M204.591 103.995C210.072 102.665 215.958 100.699 221.679 100.56" stroke="#FF9594" stroke-width="4" stroke-miterlimit="1.5" stroke-linecap="round"/>
<path d="M201.015 138.525C207.663 136.649 211.93 137.226 217.378 141.494" stroke="#FF9594" stroke-width="4" stroke-miterlimit="1.5" stroke-linecap="round"/>
<path d="M190.75 165.807C193.736 167.392 196.11 168.874 198.829 170.934" stroke="#FF9594" stroke-width="4" stroke-miterlimit="1.5" stroke-linecap="round"/>
<path d="M164.928 183.065C168.762 189.888 171.06 196.375 173.276 203.777" stroke="#FF9594" stroke-width="4" stroke-miterlimit="1.5" stroke-linecap="round"/>
<path d="M98.1785 276.575C97.1728 277.259 93.1723 274.236 91.0632 272.28C77.0953 259.126 67.6943 242.438 70.3883 221.935C72.2494 208.464 79.5444 196.995 78.0467 183.026C74.3119 149.24 40.1804 132.953 60.7294 90.7744C63.6038 84.7969 67.7242 79.3286 72.3625 74.7288C77.8451 69.3065 83.6617 64.3126 90.5028 60.9052C99.6782 56.4084 110.523 54.054 120.716 55.0819C131.359 56.0749 140.598 60.5084 149.732 65.5559C157.137 69.6772 158.788 69.5493 164.965 75.4315C173.908 83.977 177.897 92.9062 178.959 105.091C181.929 140.754 149.603 158.705 138.601 189.24C133.1 204.508 140.309 220.154 137.855 235.792C134.722 256.48 114.495 268.647 97.4617 277.085" stroke="#FF9594" stroke-width="4" stroke-miterlimit="1.5" stroke-linecap="round"/>
</svg>
