<svg width="38" height="35" viewBox="0 0 38 35" fill="none" xmlns="http://www.w3.org/2000/svg">
<path d="M14.2239 25.375H10.4402V17.5H14.2239" stroke="#242457" stroke-width="2" stroke-miterlimit="10"/>
<path d="M14.2239 17.5L16.4941 9.625C17.0962 9.625 17.6736 9.85128 18.0994 10.2541C18.5251 10.6568 18.7643 11.2031 18.7643 11.7727V16.0682H24.4398C24.7671 16.0682 25.0905 16.1352 25.3879 16.2645C25.6853 16.3938 25.9496 16.5824 26.1627 16.8174C26.3758 17.0525 26.5327 17.3283 26.6226 17.626C26.7125 17.9237 26.7332 18.2363 26.6835 18.5424L25.8685 23.5537C25.7861 24.0604 25.5149 24.5225 25.1038 24.8566C24.6927 25.1906 24.1689 25.3745 23.6271 25.375H14.2239V17.5Z" stroke="#242457" stroke-width="2" stroke-miterlimit="10" stroke-linecap="square"/>
<path d="M36.2628 17.5C36.2628 26.5612 28.4817 34 18.7648 34C9.04797 34 1.26685 26.5612 1.26685 17.5C1.26685 8.43883 9.04797 1 18.7648 1C28.4817 1 36.2628 8.43883 36.2628 17.5Z" stroke="#242457" stroke-width="2"/>
</svg>
