<svg width="125" height="79" viewBox="0 0 125 79" fill="none" xmlns="http://www.w3.org/2000/svg">
<path d="M25.3245 25.3549C24.4023 25.2677 23.6549 25.0535 23.0904 24.7123C22.5259 24.3712 22.184 24.0459 22.0727 23.7286C22.0091 23.562 22.025 23.4112 22.1204 23.2764C22.2158 23.1415 22.3271 23.0463 22.4544 22.9987L23.5754 22.5941C23.7424 22.5306 23.9173 22.5623 24.116 22.6813C24.6805 22.9987 25.245 23.2129 25.8095 23.3081C26.374 23.4033 27.0419 23.3081 27.821 23.0304C28.6877 22.721 29.3237 22.2926 29.7371 21.7531C30.1506 21.2216 30.2539 20.6504 30.0393 20.0554C29.8962 19.6587 29.6656 19.3731 29.3476 19.1985C29.0295 19.024 28.5684 18.9367 27.9562 18.9447C27.344 18.9447 26.4694 19.0319 25.3166 19.1827C23.7583 19.389 22.5657 19.3096 21.7388 18.9288C20.9119 18.5559 20.3315 17.8895 19.9897 16.9454C19.7591 16.3187 19.7273 15.6443 19.8942 14.9383C20.0612 14.2322 20.4428 13.5658 21.0312 12.947C21.6275 12.3282 22.4305 11.8363 23.4402 11.4713C24.5056 11.0826 25.4756 10.9319 26.3502 11.0112C27.2247 11.0905 27.9323 11.2968 28.4809 11.63C29.0295 11.9632 29.3555 12.2964 29.4748 12.6058C29.5304 12.7566 29.5225 12.8994 29.4509 13.0342C29.3794 13.1691 29.2681 13.2722 29.117 13.3198L28.0675 13.7006C27.8687 13.772 27.67 13.7482 27.4792 13.6292C27.0975 13.4071 26.7795 13.2484 26.5251 13.1453C26.2707 13.0422 25.9367 12.9866 25.5392 12.9866C25.1337 12.9866 24.6567 13.0818 24.1081 13.2802C23.313 13.5658 22.7565 13.9625 22.4464 14.4623C22.1363 14.9621 22.0807 15.4777 22.2794 16.0252C22.4067 16.3742 22.6054 16.636 22.8757 16.8106C23.1461 16.9851 23.5754 17.0803 24.1717 17.0882C24.768 17.0962 25.6028 17.0327 26.6761 16.882C28.3776 16.644 29.6656 16.7154 30.5481 17.0962C31.4306 17.477 32.0508 18.1513 32.4006 19.1113C32.663 19.8253 32.6868 20.5472 32.4881 21.2771C32.2814 22.007 31.8361 22.6893 31.1524 23.3081C30.4686 23.9348 29.5702 24.4426 28.4571 24.8472C27.2963 25.2677 26.2468 25.4343 25.3245 25.347V25.3549Z" fill="white"/>
<path d="M36.2642 17.3026L34.69 10.4957L32.6705 10.9559C32.4956 10.9955 32.3446 10.9717 32.2094 10.8845C32.0742 10.7972 31.9788 10.6703 31.9391 10.4957L31.7403 9.61511C31.7006 9.44057 31.7244 9.28984 31.8119 9.15497C31.8993 9.0201 32.0265 8.93283 32.2015 8.88523L34.2209 8.42509L33.2271 4.11721C33.1873 3.94267 33.2112 3.79194 33.2986 3.64913C33.3861 3.51427 33.5133 3.427 33.6882 3.38733L34.9047 3.10966C35.0796 3.06999 35.2306 3.09379 35.3738 3.18106C35.5089 3.26833 35.6043 3.39526 35.6441 3.5698L36.6379 7.87768L39.842 7.13986C40.0169 7.1002 40.168 7.124 40.3111 7.21127C40.4463 7.29853 40.5337 7.42547 40.5735 7.60001L40.7722 8.47269C40.812 8.64722 40.7881 8.79796 40.7007 8.94076C40.6132 9.07563 40.486 9.1629 40.3111 9.20257L37.107 9.94038L38.6415 16.5648C38.8402 17.4216 39.1344 18.0405 39.5319 18.4133C39.9295 18.7862 40.4622 18.8893 41.13 18.7386L42.7043 18.3737C42.8792 18.334 43.0302 18.3578 43.1654 18.4451C43.3005 18.5323 43.396 18.6593 43.4357 18.8338L43.6504 19.762C43.6901 19.9366 43.6663 20.0873 43.5788 20.2301C43.4914 20.365 43.3642 20.4522 43.1892 20.4919L41.4083 20.9044C38.6892 21.5312 36.9798 20.3332 36.2801 17.3026H36.2642Z" fill="white"/>
<path d="M47.1486 19.5714C46.3694 19.3017 45.7334 18.8891 45.2404 18.3259C44.7475 17.7705 44.4533 17.12 44.3738 16.3822C44.2466 15.2239 44.6203 14.2243 45.5028 13.3754C46.3774 12.5265 47.6256 11.8997 49.2317 11.4951L53.0957 10.5193L53.0162 9.75771C52.8254 7.97267 51.6964 7.18726 49.6371 7.4094C48.8659 7.49666 48.2458 7.72674 47.7926 8.09961C47.3394 8.48042 47.0055 8.90089 46.8067 9.36103C46.7749 9.52763 46.7193 9.64664 46.6477 9.72597C46.5761 9.80531 46.4728 9.85291 46.3297 9.86877L45.1927 9.98778C45.0337 10.0036 44.8906 9.96398 44.7634 9.86084C44.6362 9.75771 44.5646 9.63077 44.5487 9.4721C44.5169 9.05163 44.668 8.55182 44.986 7.97267C45.304 7.39353 45.8367 6.86992 46.5841 6.38598C47.3315 5.90997 48.2855 5.60056 49.4463 5.48156C51.4181 5.26736 52.881 5.57676 53.843 6.40184C54.8051 7.22693 55.3616 8.32968 55.5047 9.69424L56.427 18.2148C56.4429 18.3893 56.4031 18.5401 56.2998 18.667C56.1964 18.7939 56.0613 18.8653 55.8863 18.8812L54.6699 19.0161C54.495 19.0319 54.3439 18.9923 54.2167 18.8891C54.0895 18.786 54.018 18.6511 54.0021 18.4766L53.8828 17.3421C53.5568 17.9451 53.048 18.4766 52.3483 18.9447C51.6487 19.4127 50.7343 19.7063 49.5894 19.8253C48.7308 19.9205 47.9119 19.8253 47.1327 19.5555L47.1486 19.5714ZM52.6266 16.3822C53.2785 15.5571 53.525 14.4464 53.374 13.0422L53.2944 12.3044L50.2812 13.0818C49.0488 13.3912 48.1424 13.7879 47.5541 14.2639C46.9657 14.7479 46.7034 15.3032 46.7749 15.9299C46.8544 16.6281 47.1963 17.1358 47.8244 17.4532C48.4446 17.7705 49.1522 17.8816 49.9393 17.7943C51.0842 17.6674 51.9746 17.1993 52.6266 16.3742V16.3822Z" fill="white"/>
<path d="M60.9591 14.1212L61.0386 7.13976L58.9714 7.11596C58.7965 7.11596 58.6455 7.0525 58.5342 6.94143C58.4228 6.82242 58.3672 6.67962 58.3672 6.50508V5.6086C58.3831 5.43407 58.4387 5.29126 58.558 5.17226C58.6773 5.06119 58.8204 5.00566 58.9953 5.00566L61.0625 5.02946L61.1102 0.610513C61.1102 0.435976 61.1738 0.293173 61.2851 0.174171C61.4043 0.0631027 61.5474 0.00756836 61.7224 0.00756836L62.9706 0.0234353C63.1455 0.0234353 63.2886 0.0869031 63.4079 0.197972C63.5192 0.316974 63.5749 0.459777 63.5749 0.634313L63.5272 5.05326L66.8108 5.09293C66.9857 5.09293 67.1288 5.15639 67.2481 5.26746C67.3594 5.38646 67.415 5.52927 67.415 5.7038V6.60029C67.3991 6.77482 67.3435 6.91763 67.2242 7.03663C67.1049 7.1477 66.9618 7.20323 66.7869 7.20323L63.4953 7.16356L63.4158 13.9626C63.4079 14.8432 63.551 15.5096 63.8452 15.9618C64.1394 16.414 64.6323 16.6441 65.324 16.652L66.938 16.6679C67.1129 16.6679 67.256 16.7313 67.3753 16.8424C67.4866 16.9614 67.5422 17.1042 67.5422 17.2787V18.2308C67.5263 18.4053 67.4707 18.5481 67.3514 18.6671C67.2322 18.7782 67.089 18.8337 66.9141 18.8337L65.0855 18.8099C62.2948 18.7782 60.9114 17.2073 60.9511 14.1054L60.9591 14.1212Z" fill="white"/>
<path d="M69.9194 18.8734C69.816 18.7464 69.7683 18.6036 69.7842 18.4212L70.7781 5.918C70.794 5.74347 70.8576 5.60066 70.9848 5.49753C71.112 5.39439 71.2551 5.34679 71.438 5.36266L72.7101 5.4658C72.885 5.48166 73.0281 5.54513 73.1315 5.67207C73.2348 5.799 73.2825 5.9418 73.2666 6.12427L72.2728 18.6274C72.2569 18.802 72.1933 18.9448 72.0661 19.0479C71.9389 19.151 71.7958 19.1986 71.6129 19.1828L70.3408 19.0796C70.1659 19.0638 70.0228 19.0003 69.9194 18.8734ZM71.0007 2.58594C70.8973 2.45901 70.8496 2.31621 70.8655 2.13374L70.9768 0.705711C70.9927 0.531174 71.0564 0.388372 71.1836 0.269369C71.3108 0.158301 71.4618 0.102767 71.6367 0.118633L73.2984 0.253503C73.4733 0.269369 73.6165 0.340771 73.7357 0.47564C73.847 0.610509 73.9027 0.761245 73.8868 0.935781L73.7755 2.36381C73.7596 2.53834 73.688 2.68115 73.5528 2.78428C73.4177 2.88742 73.2666 2.93502 73.0917 2.91915L71.43 2.78428C71.2551 2.76841 71.112 2.70495 71.0086 2.57801L71.0007 2.58594Z" fill="white"/>
<path d="M77.0512 18.3023C76.1925 17.0329 75.8983 15.5018 76.1528 13.7009L76.3277 12.5743L76.5582 11.4636C76.9478 9.70238 77.7747 8.38543 79.0388 7.48894C80.295 6.60039 81.8772 6.32272 83.7695 6.67179C85.6617 7.01293 87.0451 7.83008 87.9038 9.10737C88.7625 10.3847 89.0725 11.9158 88.8181 13.7009C88.8022 13.8913 88.7386 14.2721 88.6432 14.8274C88.5398 15.3828 88.4683 15.7556 88.4126 15.9381C88.0151 17.7152 87.1962 19.0401 85.9479 19.9286C84.6997 20.8172 83.1175 21.079 81.2094 20.7299C79.3012 20.3808 77.9098 19.5716 77.0591 18.3102L77.0512 18.3023ZM84.3578 18.1515C85.1211 17.5724 85.6458 16.6362 85.932 15.3431C85.9797 15.1765 86.0513 14.8433 86.1388 14.3593C86.2262 13.8754 86.2819 13.5422 86.2898 13.3676C86.4727 12.0586 86.3137 10.9955 85.8048 10.1863C85.296 9.37711 84.493 8.86937 83.3958 8.67103C82.2986 8.47269 81.3684 8.6631 80.5972 9.23431C79.8259 9.81345 79.3092 10.7496 79.0309 12.0428L78.8242 13.0265L78.6731 14.0182C78.4664 15.3272 78.6254 16.3824 79.1422 17.1995C79.659 18.0087 80.462 18.5165 81.5592 18.7148C82.6564 18.9131 83.5866 18.7227 84.3419 18.1436L84.3578 18.1515Z" fill="white"/>
<path d="M90.1782 22.1499C90.1066 22.0071 90.0987 21.8485 90.1623 21.6819L94.3205 9.84511C94.3761 9.67851 94.4795 9.5595 94.6305 9.4881C94.7736 9.4167 94.9327 9.40877 95.0996 9.47223L96.2763 9.88478C96.4433 9.94031 96.5625 10.0434 96.6341 10.1942C96.7056 10.3449 96.7136 10.4957 96.65 10.6623L96.2604 11.7571C96.9601 11.3128 97.6995 11.0351 98.4707 10.932C99.2499 10.8289 100.124 10.9479 101.11 11.2969C102.708 11.8602 103.782 12.8043 104.314 14.1451C104.847 15.4779 104.815 17.0011 104.219 18.6989L101.746 25.7359C101.691 25.9025 101.587 26.0215 101.436 26.0929C101.293 26.1643 101.134 26.1722 100.967 26.1087L99.7189 25.6724C99.552 25.6169 99.4327 25.5137 99.3612 25.363C99.2896 25.2202 99.2817 25.0615 99.3453 24.8949L101.778 17.9769C102.192 16.7948 102.231 15.7793 101.882 14.9305C101.532 14.0816 100.816 13.4628 99.7348 13.082C98.6854 12.717 97.7313 12.7488 96.8885 13.193C96.0378 13.6373 95.4097 14.4386 95.0042 15.6048L92.5713 22.5228C92.5157 22.6894 92.4123 22.8084 92.2612 22.8798C92.1181 22.9512 91.9591 22.9591 91.7922 22.8957L90.5439 22.4593C90.3769 22.4038 90.2577 22.3007 90.1861 22.1499H90.1782Z" fill="white"/>
<path d="M18.6522 78.7713C14.5099 78.7713 11.0593 78.2397 8.32432 77.1846C5.58135 76.1294 3.53009 74.749 2.16257 73.0512C0.803015 71.3535 0.0795064 69.5526 0 67.6565C0 67.3312 0.11926 67.0615 0.357779 66.8473C0.596298 66.6331 0.890472 66.522 1.24825 66.522H10.6539C11.2025 66.522 11.6397 66.6013 11.9578 66.7679C12.2758 66.9266 12.6097 67.1487 12.9675 67.4423C13.3253 67.8389 13.7387 68.2039 14.2078 68.545C14.6848 68.8862 15.2891 69.1559 16.0444 69.3542C16.7918 69.5526 17.6663 69.6478 18.6522 69.6478C20.465 69.6478 21.8722 69.4256 22.8581 68.9734C23.844 68.5292 24.3369 67.9103 24.3369 67.117C24.3369 66.5061 24.0666 66.0063 23.5339 65.6096C23.0012 65.213 22.1028 64.856 20.8386 64.5386C19.5745 64.2133 17.8571 63.8801 15.6866 63.5152C12.6495 63.0471 10.0258 62.3569 7.81548 61.4446C5.6052 60.5322 3.91967 59.2946 2.75092 57.7396C1.58218 56.1847 1.00178 54.2568 1.00178 51.9641C1.00178 49.6713 1.71734 47.5768 3.16436 45.7839C4.60342 43.9909 6.61493 42.5946 9.20684 41.595C11.7908 40.5954 14.8041 40.0876 18.2388 40.0876C21.0772 40.0876 23.5975 40.4288 25.7839 41.1111C27.9704 41.7933 29.8229 42.674 31.3176 43.7688C32.8203 44.8636 33.9651 46.0298 34.7523 47.2833C35.5394 48.5368 35.9528 49.7348 35.9926 50.8851C35.9926 51.2104 35.8653 51.4881 35.6109 51.7181C35.3565 51.9482 35.0703 52.0672 34.7523 52.0672H24.8617C24.3846 52.0672 23.995 51.9958 23.677 51.853C23.359 51.7102 23.0489 51.4801 22.7309 51.1548C22.5321 50.655 22.0392 50.2108 21.2521 49.8141C20.465 49.4174 19.4552 49.2191 18.2308 49.2191C16.8872 49.2191 15.8615 49.4253 15.1539 49.8379C14.4463 50.2504 14.0885 50.8534 14.0885 51.6388C14.0885 52.1783 14.3032 52.6384 14.7405 53.0351C15.1778 53.4318 15.941 53.7808 17.0462 54.0823C18.1513 54.3838 19.6937 54.717 21.6655 55.074C25.4182 55.5738 28.4474 56.2957 30.7531 57.224C33.0588 58.1522 34.7523 59.3739 35.8176 60.8734C36.883 62.3807 37.4157 64.2609 37.4157 66.5141C37.4157 69.0607 36.6048 71.2424 34.9908 73.0671C33.3768 74.8918 31.1506 76.296 28.3281 77.2798C25.5057 78.2635 22.2777 78.7554 18.6443 78.7554L18.6522 78.7713Z" fill="white"/>
<path d="M44.1098 78.2318C43.6725 78.2318 43.2988 78.0969 42.9888 77.8271C42.6707 77.5574 42.5117 77.2242 42.5117 76.8355V42.0313C42.5117 41.6346 42.6707 41.3094 42.9888 41.0396C43.3068 40.7699 43.6805 40.635 44.1098 40.635H51.9809C52.6885 40.635 53.2212 40.8175 53.579 41.1745C53.9368 41.5315 54.1674 41.7854 54.2866 41.9282L63.7638 56.859L73.233 41.9282C73.3523 41.7854 73.5908 41.5315 73.9406 41.1745C74.2984 40.8175 74.8311 40.635 75.5387 40.635H83.4098C83.8471 40.635 84.2128 40.7699 84.507 41.0396C84.8012 41.3094 84.9522 41.6426 84.9522 42.0313V76.8355C84.9522 77.2321 84.8012 77.5574 84.507 77.8271C84.2128 78.0969 83.8471 78.2318 83.4098 78.2318H74.529C74.0917 78.2318 73.7259 78.0969 73.4318 77.8271C73.1376 77.5574 72.9865 77.2242 72.9865 76.8355V59.4373L67.6596 67.9262C67.4608 68.2118 67.2064 68.4974 66.8884 68.783C66.5704 69.0686 66.1172 69.2114 65.5288 69.2114H61.9192C61.3627 69.2114 60.9334 69.0686 60.6153 68.783C60.2973 68.4974 60.0429 68.2118 59.8441 67.9262L54.5172 59.4373V76.8355C54.5172 77.2321 54.3661 77.5574 54.072 77.8271C53.7778 78.0969 53.412 78.2318 52.9748 78.2318H44.0939H44.1098Z" fill="white"/>
<path d="M93.9047 78.2318C93.5072 78.2318 93.1574 78.0969 92.8393 77.8271C92.5213 77.5574 92.3623 77.2242 92.3623 76.8355V42.0313C92.3623 41.6346 92.5213 41.3094 92.8393 41.0396C93.1574 40.7699 93.5072 40.635 93.9047 40.635H122.917C123.354 40.635 123.728 40.7699 124.038 41.0396C124.356 41.3094 124.515 41.6426 124.515 42.0313V48.3701C124.515 48.7272 124.356 49.0524 124.038 49.338C123.72 49.6236 123.346 49.7664 122.917 49.7664H104.622V55.0819H121.613C122.05 55.0819 122.424 55.2167 122.734 55.4865C123.052 55.7562 123.211 56.0894 123.211 56.4782V62.2775C123.211 62.6742 123.052 62.9995 122.734 63.2692C122.416 63.539 122.042 63.6738 121.613 63.6738H104.622V69.1003H123.394C123.831 69.1003 124.205 69.2431 124.523 69.5287C124.841 69.8143 125 70.1555 125 70.5521V76.8355C125 77.2321 124.841 77.5574 124.523 77.8271C124.205 78.0969 123.831 78.2318 123.394 78.2318H93.9047Z" fill="white"/>
</svg>
