<svg width="125" height="79" viewBox="0 0 125 79" fill="none" xmlns="http://www.w3.org/2000/svg">
<path d="M25.3246 25.3549C24.4023 25.2677 23.655 25.0535 23.0905 24.7123C22.526 24.3712 22.1841 24.0459 22.0728 23.7286C22.0092 23.562 22.0251 23.4112 22.1205 23.2764C22.2159 23.1415 22.3272 23.0463 22.4544 22.9987L23.5755 22.5941C23.7424 22.5306 23.9173 22.5623 24.1161 22.6813C24.6806 22.9987 25.2451 23.2129 25.8096 23.3081C26.3741 23.4033 27.0419 23.3081 27.8211 23.0304C28.6877 22.721 29.3238 22.2926 29.7372 21.7531C30.1506 21.2216 30.254 20.6504 30.0393 20.0554C29.8962 19.6587 29.6657 19.3731 29.3476 19.1985C29.0296 19.024 28.5685 18.9367 27.9563 18.9447C27.3441 18.9447 26.4695 19.0319 25.3166 19.1827C23.7583 19.389 22.5657 19.3096 21.7389 18.9288C20.912 18.5559 20.3316 17.8895 19.9897 16.9454C19.7591 16.3187 19.7273 15.6443 19.8943 14.9383C20.0613 14.2322 20.4429 13.5658 21.0313 12.947C21.6276 12.3282 22.4306 11.8363 23.4403 11.4713C24.5057 11.0826 25.4757 10.9319 26.3502 11.0112C27.2248 11.0905 27.9324 11.2968 28.481 11.63C29.0296 11.9632 29.3556 12.2964 29.4748 12.6058C29.5305 12.7566 29.5225 12.8994 29.451 13.0342C29.3794 13.1691 29.2681 13.2722 29.1171 13.3198L28.0676 13.7006C27.8688 13.772 27.67 13.7482 27.4792 13.6292C27.0976 13.4071 26.7796 13.2484 26.5251 13.1453C26.2707 13.0422 25.9368 12.9866 25.5393 12.9866C25.1338 12.9866 24.6567 13.0818 24.1082 13.2802C23.3131 13.5658 22.7565 13.9625 22.4465 14.4623C22.1364 14.9621 22.0807 15.4777 22.2795 16.0252C22.4067 16.3742 22.6055 16.636 22.8758 16.8106C23.1461 16.9851 23.5755 17.0803 24.1718 17.0882C24.7681 17.0962 25.6029 17.0327 26.6762 16.882C28.3776 16.644 29.6656 16.7154 30.5482 17.0962C31.4307 17.477 32.0508 18.1513 32.4007 19.1113C32.663 19.8253 32.6869 20.5472 32.4881 21.2771C32.2814 22.007 31.8362 22.6893 31.1524 23.3081C30.4687 23.9348 29.5702 24.4426 28.4572 24.8472C27.2964 25.2677 26.2469 25.4343 25.3246 25.347V25.3549Z" fill="#242457"/>
<path d="M36.2647 17.3026L34.6904 10.4957L32.671 10.9559C32.4961 10.9955 32.345 10.9717 32.2098 10.8845C32.0747 10.7972 31.9793 10.6703 31.9395 10.4957L31.7407 9.61511C31.701 9.44057 31.7248 9.28984 31.8123 9.15497C31.8998 9.0201 32.027 8.93283 32.2019 8.88523L34.2213 8.42509L33.2275 4.11721C33.1878 3.94267 33.2116 3.79194 33.2991 3.64913C33.3865 3.51427 33.5137 3.427 33.6886 3.38733L34.9051 3.10966C35.08 3.06999 35.2311 3.09379 35.3742 3.18106C35.5093 3.26833 35.6048 3.39526 35.6445 3.5698L36.6383 7.87768L39.8424 7.13986C40.0174 7.1002 40.1684 7.124 40.3115 7.21127C40.4467 7.29853 40.5342 7.42547 40.5739 7.60001L40.7727 8.47269C40.8124 8.64722 40.7886 8.79796 40.7011 8.94076C40.6137 9.07563 40.4864 9.1629 40.3115 9.20257L37.1074 9.94038L38.6419 16.5648C38.8407 17.4216 39.1348 18.0405 39.5324 18.4133C39.9299 18.7862 40.4626 18.8893 41.1305 18.7386L42.7047 18.3737C42.8796 18.334 43.0307 18.3578 43.1658 18.4451C43.301 18.5323 43.3964 18.6593 43.4361 18.8338L43.6508 19.762C43.6906 19.9366 43.6667 20.0873 43.5793 20.2301C43.4918 20.365 43.3646 20.4522 43.1897 20.4919L41.4087 20.9044C38.6896 21.5312 36.9802 20.3332 36.2806 17.3026H36.2647Z" fill="#242457"/>
<path d="M47.1491 19.5714C46.3699 19.3017 45.7339 18.8891 45.2409 18.3259C44.748 17.7705 44.4538 17.12 44.3743 16.3822C44.2471 15.2239 44.6208 14.2243 45.5033 13.3754C46.3779 12.5265 47.6261 11.8997 49.2322 11.4951L53.0962 10.5193L53.0167 9.75771C52.8258 7.97267 51.6969 7.18726 49.6376 7.4094C48.8664 7.49666 48.2463 7.72674 47.7931 8.09961C47.3399 8.48042 47.006 8.90089 46.8072 9.36103C46.7754 9.52763 46.7197 9.64664 46.6482 9.72597C46.5766 9.80531 46.4733 9.85291 46.3302 9.86877L45.1932 9.98778C45.0342 10.0036 44.8911 9.96398 44.7639 9.86084C44.6367 9.75771 44.5651 9.63077 44.5492 9.4721C44.5174 9.05163 44.6685 8.55182 44.9865 7.97267C45.3045 7.39353 45.8372 6.86992 46.5846 6.38598C47.3319 5.90997 48.286 5.60056 49.4468 5.48156C51.4186 5.26736 52.8815 5.57676 53.8435 6.40184C54.8056 7.22693 55.3621 8.32968 55.5052 9.69424L56.4275 18.2148C56.4434 18.3893 56.4036 18.5401 56.3003 18.667C56.1969 18.7939 56.0618 18.8653 55.8868 18.8812L54.6704 19.0161C54.4955 19.0319 54.3444 18.9923 54.2172 18.8891C54.09 18.786 54.0184 18.6511 54.0025 18.4766L53.8833 17.3421C53.5573 17.9451 53.0485 18.4766 52.3488 18.9447C51.6491 19.4127 50.7348 19.7063 49.5899 19.8253C48.7313 19.9205 47.9123 19.8253 47.1332 19.5555L47.1491 19.5714ZM52.6271 16.3822C53.279 15.5571 53.5255 14.4464 53.3744 13.0422L53.2949 12.3044L50.2816 13.0818C49.0493 13.3912 48.1429 13.7879 47.5546 14.2639C46.9662 14.7479 46.7038 15.3032 46.7754 15.9299C46.8549 16.6281 47.1968 17.1358 47.8249 17.4532C48.445 17.7705 49.1526 17.8816 49.9398 17.7943C51.0847 17.6674 51.9751 17.1993 52.6271 16.3742V16.3822Z" fill="#242457"/>
<path d="M60.9594 14.1212L61.0389 7.13976L58.9717 7.11596C58.7968 7.11596 58.6458 7.0525 58.5345 6.94143C58.4231 6.82242 58.3675 6.67962 58.3675 6.50508V5.6086C58.3834 5.43407 58.439 5.29126 58.5583 5.17226C58.6776 5.06119 58.8207 5.00566 58.9956 5.00566L61.0628 5.02946L61.1105 0.610513C61.1105 0.435976 61.1741 0.293173 61.2854 0.174171C61.4046 0.0631027 61.5478 0.00756836 61.7227 0.00756836L62.9709 0.0234353C63.1458 0.0234353 63.2889 0.0869031 63.4082 0.197972C63.5195 0.316974 63.5752 0.459777 63.5752 0.634313L63.5275 5.05326L66.8111 5.09293C66.986 5.09293 67.1291 5.15639 67.2484 5.26746C67.3597 5.38646 67.4153 5.52927 67.4153 5.7038V6.60029C67.3994 6.77482 67.3438 6.91763 67.2245 7.03663C67.1052 7.1477 66.9621 7.20323 66.7872 7.20323L63.4957 7.16356L63.4161 13.9626C63.4082 14.8432 63.5513 15.5096 63.8455 15.9618C64.1397 16.414 64.6326 16.6441 65.3243 16.652L66.9383 16.6679C67.1132 16.6679 67.2563 16.7313 67.3756 16.8424C67.4869 16.9614 67.5425 17.1042 67.5425 17.2787V18.2308C67.5266 18.4053 67.471 18.5481 67.3517 18.6671C67.2325 18.7782 67.0893 18.8337 66.9144 18.8337L65.0858 18.8099C62.2951 18.7782 60.9117 17.2073 60.9515 14.1054L60.9594 14.1212Z" fill="#242457"/>
<path d="M69.9198 18.8734C69.8164 18.7464 69.7687 18.6036 69.7846 18.4212L70.7784 5.918C70.7943 5.74347 70.858 5.60066 70.9852 5.49753C71.1124 5.39439 71.2555 5.34679 71.4383 5.36266L72.7104 5.4658C72.8854 5.48166 73.0285 5.54513 73.1318 5.67207C73.2352 5.799 73.2829 5.9418 73.267 6.12427L72.2732 18.6274C72.2573 18.802 72.1937 18.9448 72.0664 19.0479C71.9392 19.151 71.7961 19.1986 71.6133 19.1828L70.3412 19.0796C70.1662 19.0638 70.0231 19.0003 69.9198 18.8734ZM71.0011 2.58594C70.8977 2.45901 70.85 2.31621 70.8659 2.13374L70.9772 0.705711C70.9931 0.531174 71.0567 0.388372 71.1839 0.269369C71.3111 0.158301 71.4622 0.102767 71.6371 0.118633L73.2988 0.253503C73.4737 0.269369 73.6168 0.340771 73.7361 0.47564C73.8474 0.610509 73.903 0.761245 73.8871 0.935781L73.7758 2.36381C73.7599 2.53834 73.6884 2.68115 73.5532 2.78428C73.4181 2.88742 73.267 2.93502 73.0921 2.91915L71.4304 2.78428C71.2555 2.76841 71.1124 2.70495 71.009 2.57801L71.0011 2.58594Z" fill="#242457"/>
<path d="M77.0515 18.3023C76.1928 17.0329 75.8986 15.5018 76.1531 13.7009L76.328 12.5743L76.5585 11.4636C76.9481 9.70238 77.775 8.38543 79.0391 7.48894C80.2953 6.60039 81.8775 6.32272 83.7698 6.67179C85.662 7.01293 87.0454 7.83008 87.9041 9.10737C88.7628 10.3847 89.0728 11.9158 88.8184 13.7009C88.8025 13.8913 88.7389 14.2721 88.6435 14.8274C88.5402 15.3828 88.4686 15.7556 88.4129 15.9381C88.0154 17.7152 87.1965 19.0401 85.9482 19.9286C84.7 20.8172 83.1178 21.079 81.2097 20.7299C79.3015 20.3808 77.9101 19.5716 77.0594 18.3102L77.0515 18.3023ZM84.3581 18.1515C85.1214 17.5724 85.6461 16.6362 85.9323 15.3431C85.98 15.1765 86.0516 14.8433 86.1391 14.3593C86.2265 13.8754 86.2822 13.5422 86.2901 13.3676C86.473 12.0586 86.314 10.9955 85.8051 10.1863C85.2963 9.37711 84.4933 8.86937 83.3961 8.67103C82.2989 8.47269 81.3687 8.6631 80.5975 9.23431C79.8262 9.81345 79.3095 10.7496 79.0312 12.0428L78.8245 13.0265L78.6734 14.0182C78.4667 15.3272 78.6257 16.3824 79.1425 17.1995C79.6593 18.0087 80.4623 18.5165 81.5595 18.7148C82.6567 18.9131 83.5869 18.7227 84.3422 18.1436L84.3581 18.1515Z" fill="#242457"/>
<path d="M90.1779 22.1499C90.1064 22.0071 90.0984 21.8485 90.162 21.6819L94.3202 9.84511C94.3759 9.67851 94.4792 9.5595 94.6303 9.4881C94.7734 9.4167 94.9324 9.40877 95.0994 9.47223L96.2761 9.88478C96.443 9.94031 96.5623 10.0434 96.6338 10.1942C96.7054 10.3449 96.7134 10.4957 96.6498 10.6623L96.2602 11.7571C96.9598 11.3128 97.6992 11.0351 98.4704 10.932C99.2496 10.8289 100.124 10.9479 101.11 11.2969C102.708 11.8602 103.781 12.8043 104.314 14.1451C104.847 15.4779 104.815 17.0011 104.219 18.6989L101.746 25.7359C101.69 25.9025 101.587 26.0215 101.436 26.0929C101.293 26.1643 101.134 26.1722 100.967 26.1087L99.7187 25.6724C99.5517 25.6169 99.4325 25.5137 99.3609 25.363C99.2894 25.2202 99.2814 25.0615 99.345 24.8949L101.778 17.9769C102.191 16.7948 102.231 15.7793 101.881 14.9305C101.531 14.0816 100.816 13.4628 99.7346 13.082C98.6851 12.717 97.731 12.7488 96.8883 13.193C96.0375 13.6373 95.4095 14.4386 95.004 15.6048L92.5711 22.5228C92.5154 22.6894 92.4121 22.8084 92.261 22.8798C92.1179 22.9512 91.9589 22.9591 91.7919 22.8957L90.5437 22.4593C90.3767 22.4038 90.2574 22.3007 90.1859 22.1499H90.1779Z" fill="#242457"/>
<path d="M18.6522 78.7713C14.5099 78.7713 11.0593 78.2397 8.32432 77.1846C5.58135 76.1294 3.53009 74.749 2.16257 73.0512C0.803015 71.3535 0.0795064 69.5526 0 67.6565C0 67.3312 0.11926 67.0615 0.357779 66.8473C0.596298 66.6331 0.890472 66.522 1.24825 66.522H10.6539C11.2025 66.522 11.6397 66.6013 11.9578 66.7679C12.2758 66.9266 12.6097 67.1487 12.9675 67.4423C13.3253 67.8389 13.7387 68.2039 14.2078 68.545C14.6848 68.8862 15.2891 69.1559 16.0444 69.3542C16.7918 69.5526 17.6663 69.6478 18.6522 69.6478C20.465 69.6478 21.8722 69.4256 22.8581 68.9734C23.844 68.5292 24.3369 67.9103 24.3369 67.117C24.3369 66.5061 24.0666 66.0063 23.5339 65.6096C23.0012 65.213 22.1028 64.856 20.8386 64.5386C19.5745 64.2133 17.8571 63.8801 15.6866 63.5152C12.6495 63.0471 10.0258 62.3569 7.81548 61.4446C5.6052 60.5322 3.91967 59.2946 2.75092 57.7396C1.58218 56.1847 1.00178 54.2568 1.00178 51.9641C1.00178 49.6713 1.71734 47.5768 3.16436 45.7839C4.60342 43.9909 6.61493 42.5946 9.20684 41.595C11.7908 40.5954 14.8041 40.0876 18.2388 40.0876C21.0772 40.0876 23.5975 40.4288 25.7839 41.1111C27.9704 41.7933 29.8229 42.674 31.3176 43.7688C32.8203 44.8636 33.9651 46.0298 34.7523 47.2833C35.5394 48.5368 35.9528 49.7348 35.9926 50.8851C35.9926 51.2104 35.8653 51.4881 35.6109 51.7181C35.3565 51.9482 35.0703 52.0672 34.7523 52.0672H24.8617C24.3846 52.0672 23.995 51.9958 23.677 51.853C23.359 51.7102 23.0489 51.4801 22.7309 51.1548C22.5321 50.655 22.0392 50.2108 21.2521 49.8141C20.465 49.4174 19.4552 49.2191 18.2308 49.2191C16.8872 49.2191 15.8615 49.4253 15.1539 49.8379C14.4463 50.2504 14.0885 50.8534 14.0885 51.6388C14.0885 52.1783 14.3032 52.6384 14.7405 53.0351C15.1778 53.4318 15.941 53.7808 17.0462 54.0823C18.1513 54.3838 19.6937 54.717 21.6655 55.074C25.4182 55.5738 28.4474 56.2957 30.7531 57.224C33.0588 58.1522 34.7523 59.3739 35.8176 60.8734C36.883 62.3807 37.4157 64.2609 37.4157 66.5141C37.4157 69.0607 36.6048 71.2424 34.9908 73.0671C33.3768 74.8918 31.1506 76.296 28.3281 77.2798C25.5057 78.2635 22.2777 78.7554 18.6443 78.7554L18.6522 78.7713Z" fill="#242457"/>
<path d="M44.1102 78.2318C43.6729 78.2318 43.2992 78.0969 42.9891 77.8271C42.6711 77.5574 42.5121 77.2242 42.5121 76.8355V42.0313C42.5121 41.6346 42.6711 41.3094 42.9891 41.0396C43.3071 40.7699 43.6808 40.635 44.1102 40.635H51.9813C52.6889 40.635 53.2216 40.8175 53.5794 41.1745C53.9372 41.5315 54.1677 41.7854 54.287 41.9282L63.7641 56.859L73.2334 41.9282C73.3526 41.7854 73.5911 41.5315 73.941 41.1745C74.2988 40.8175 74.8314 40.635 75.5391 40.635H83.4102C83.8475 40.635 84.2132 40.7699 84.5074 41.0396C84.8016 41.3094 84.9526 41.6426 84.9526 42.0313V76.8355C84.9526 77.2321 84.8016 77.5574 84.5074 77.8271C84.2132 78.0969 83.8475 78.2318 83.4102 78.2318H74.5293C74.092 78.2318 73.7263 78.0969 73.4321 77.8271C73.138 77.5574 72.9869 77.2242 72.9869 76.8355V59.4373L67.66 67.9262C67.4612 68.2118 67.2068 68.4974 66.8888 68.783C66.5707 69.0686 66.1175 69.2114 65.5292 69.2114H61.9196C61.3631 69.2114 60.9337 69.0686 60.6157 68.783C60.2977 68.4974 60.0432 68.2118 59.8445 67.9262L54.5176 59.4373V76.8355C54.5176 77.2321 54.3665 77.5574 54.0723 77.8271C53.7781 78.0969 53.4124 78.2318 52.9751 78.2318H44.0943H44.1102Z" fill="#242457"/>
<path d="M93.905 78.2318C93.5074 78.2318 93.1576 78.0969 92.8396 77.8271C92.5216 77.5574 92.3625 77.2242 92.3625 76.8355V42.0313C92.3625 41.6346 92.5216 41.3094 92.8396 41.0396C93.1576 40.7699 93.5074 40.635 93.905 40.635H122.917C123.354 40.635 123.728 40.7699 124.038 41.0396C124.356 41.3094 124.515 41.6426 124.515 42.0313V48.3701C124.515 48.7272 124.356 49.0524 124.038 49.338C123.72 49.6236 123.346 49.7664 122.917 49.7664H104.622V55.0819H121.613C122.05 55.0819 122.424 55.2167 122.734 55.4865C123.052 55.7562 123.211 56.0894 123.211 56.4782V62.2775C123.211 62.6742 123.052 62.9995 122.734 63.2692C122.416 63.539 122.042 63.6738 121.613 63.6738H104.622V69.1003H123.394C123.831 69.1003 124.205 69.2431 124.523 69.5287C124.841 69.8143 125 70.1555 125 70.5521V76.8355C125 77.2321 124.841 77.5574 124.523 77.8271C124.205 78.0969 123.831 78.2318 123.394 78.2318H93.905Z" fill="#242457"/>
</svg>
