<?xml version="1.0" encoding="utf-8"?>
<svg width="340.28" height="114.24" viewBox="21.72 120.96 340.28 114.24" fill="none" xmlns="http://www.w3.org/2000/svg">
  <path d="M174.237 185.384C173.582 185.589 173.214 185.943 172.702 186.223C171.754 186.639 170.663 186.98 169.572 187.321C166.517 188.276 163.394 189.013 160.202 189.531C150.484 191.011 140.651 190.971 130.974 190.282C106.206 188.441 81.473 180.96 56.8882 188.524C45.1788 192.064 33.7147 197.923 33.2427 211.365C32.4838 228.49 53.2695 226.785 64.4536 224.247C80.7183 220.721 87.6078 204.435 85.2227 189.131C84.1868 182.747 81.2758 176.111 76.8846 171.255C71.5798 165.008 64.8087 159.818 57.2804 156.422C50.6864 153.333 34.1635 147.598 27.1253 152.672" stroke="#242457" stroke-width="3" stroke-miterlimit="1.5" stroke-linecap="round" />
  <path d="M224.908 163.559C223.81 160.428 231.161 161.724 234.36 160.844C240.395 159.078 246.506 157.168 252.398 155.326C279.097 146.862 307.991 140.825 335.692 136.719C343.235 135.559 350.702 134.543 358.306 133.963C358.524 133.895 359.826 133.847 359.895 134.065C359.956 134.645 357.685 136.193 357.317 136.548C344.815 147.522 329.607 156.347 316.329 166.366C300.118 178.5 283.566 189.542 266.434 200.645C264.238 202.05 252.746 213.188 249.589 211.899C243.349 209.178 238.421 190.716 234.985 185.083C230.921 178.208 227.219 171.34 226.142 163.293" stroke="#242457" stroke-width="3" stroke-miterlimit="1.5" stroke-linecap="round" />
  <path d="M358.831 132.961C360.338 133.568 355.442 132.463 353.853 132.361C350.893 132.088 347.933 131.815 345.117 131.617C335.372 130.711 325.62 130.165 315.726 129.545C289.512 127.677 263.135 126.818 236.948 127.337C228.485 127.467 220.247 127.167 211.873 126.431C211.007 126.342 199.905 124.542 199.83 124.685C199.496 127.065 209.172 131.587 210.74 132.773C215.943 136.777 215.472 146.386 221.998 145.424C226.71 144.79 231.634 144.449 236.407 144.394C276.342 143.411 315.411 138.506 355.175 135.061" stroke="#242457" stroke-width="3" stroke-miterlimit="1.5" stroke-linecap="round" />
  <path d="M218.684 144.783C218.329 144.415 216.658 148.65 216.576 149.155C214.973 153.608 213.588 157.994 212.347 162.454C210.177 170.079 207.797 177.411 205.845 184.967C205.695 185.254 204.058 191.515 204.201 191.59C205.279 191.972 209.453 185.397 210.046 184.613C215.468 177.049 220.107 168.892 226.456 161.997" stroke="#242457" stroke-width="3" stroke-miterlimit="1.5" stroke-linecap="round" />
  <path d="M204.345 191.665C204.624 192.176 207.836 190.573 209.364 190.096C210.019 189.891 214.329 187.586 214.983 187.381C219.873 185.015 226.263 179.784 232.053 179.531" stroke="#242457" stroke-width="3" stroke-miterlimit="1.5" stroke-linecap="round" />
</svg>