<svg width="42" height="50" viewBox="0 0 42 50" fill="none" xmlns="http://www.w3.org/2000/svg">
<path d="M28.4696 12.55C26.3925 15.4224 24.2898 18.3025 22.1571 21.1396C21.2373 22.3632 20.3347 23.5365 19.5395 24.8683C18.2088 27.097 16.9535 29.399 15.523 31.5655C15.0262 32.318 14.6234 33.0973 14.0954 33.8274" stroke="#242457" stroke-width="2" stroke-linecap="round"/>
<path d="M9.22864 30.2055C9.13605 31.068 8.72899 31.868 8.62193 32.7237C8.46315 33.9927 8.25413 35.2794 7.9564 36.5204C7.68966 37.6322 7.40713 38.6875 7.06634 39.7725C6.79113 40.6488 6.62261 41.5733 6.47388 42.4809C6.39029 42.991 6.27068 43.4924 6.23253 44.0041C6.20111 44.4256 6.17198 45.0435 6.00499 45.4304C5.87583 45.7297 5.45815 46.3209 6.02087 45.976C7.43927 45.1065 8.77153 44.0669 10.2863 43.3657C11.8599 42.6374 13.366 41.9518 14.823 41.0023C15.9884 40.2428 17.1427 39.4149 18.2533 38.5752C18.7766 38.1796 19.3175 37.7561 19.9061 37.4712C19.9955 37.4279 20.336 37.2525 20.2072 37.1324C20.0927 37.0256 20.4065 36.7169 20.4771 36.6193C24.6592 30.8359 28.7748 25.0045 32.9509 19.2294C33.6922 18.2043 34.3631 17.1365 35.1053 16.1102C35.4733 15.6012 35.7271 15.0427 36.0551 14.509C36.8271 13.2533 37.7259 12.0447 38.4261 10.7482C38.8424 9.97763 39.3849 9.35118 39.6234 8.49395C39.7553 8.01983 39.4474 7.5578 39.2563 7.14357C38.8369 6.23474 37.6869 5.47434 36.9482 4.83927C35.8973 3.93585 34.5479 3.25154 33.331 2.61155C32.9137 2.39207 32.2978 2.35508 31.8346 2.33329C31.217 2.30424 30.6866 2.18491 30.0601 2.31501C29.2537 2.48247 28.5696 2.78458 27.9818 3.36996C26.9293 4.41821 26.2405 5.86638 25.5788 7.1751C24.8597 8.59732 24.1189 10.0072 23.1233 11.2627C21.7526 12.991 20.2935 14.6614 18.9827 16.4367C16.3833 19.9575 13.4917 23.2551 10.963 26.8275C10.2332 27.8586 9.54862 28.9234 8.80595 29.9504C8.67112 30.1369 8.21739 30.56 8.53044 30.6113" stroke="#242457" stroke-width="2" stroke-linecap="round"/>
<path d="M8.66313 30.7072C9.11152 30.4142 9.58832 29.9713 10.1359 29.8833C10.5258 29.8207 10.8988 29.851 11.2893 29.8742C11.8083 29.905 12.3972 30.0786 12.8252 30.3777C13.4512 30.8152 14.0205 31.2207 14.4529 31.8583C14.7441 32.2877 14.4575 32.7805 14.2646 33.1837C14.1868 33.3465 14.1487 33.4762 14.0364 33.6315C13.7619 34.0111 14.6248 33.4234 14.7036 33.3775C16.5553 32.2974 18.1933 34.1458 19.2682 35.4921C19.6829 36.0115 19.9106 36.3837 20.0169 37.0454C20.1135 37.6466 19.8853 37.7172 19.5528 38.177" stroke="#242457" stroke-width="2" stroke-linecap="round"/>
<path d="M10.1149 43.3934C10.2857 42.7354 10.196 42.5903 9.8206 42.09C9.40705 41.5389 8.80792 41.1095 8.24413 40.7252C7.80451 40.4255 6.59422 40.2259 6.56368 41.0278" stroke="#242457" stroke-width="2" stroke-linecap="round"/>
<path d="M23.6605 10.3867C24.5618 10.2419 25.3323 10.0873 26.2132 10.355C26.8403 10.5456 27.3541 10.7303 27.8885 11.1167C29.2713 12.1167 30.6594 13.1813 31.9049 14.3471C32.5592 14.9596 33.1111 15.4573 33.4835 16.2532C33.5797 16.4587 33.6687 16.7044 33.779 16.8941C33.8808 17.0693 33.8452 17.2751 33.9522 17.4241" stroke="#242457" stroke-width="2" stroke-linecap="round"/>
<path d="M35.7049 14.4412C35.4088 12.7308 34.0039 11.6934 32.6899 10.7433C31.8586 10.1421 31.0389 9.69084 30.1165 9.2646C29.0773 8.78441 27.9466 8.39763 26.8345 8.12813C26.2035 7.9752 25.7046 7.87777 25.1137 8.09798" stroke="#242457" stroke-width="2" stroke-linecap="round"/>
</svg>
