<svg width="401" height="29" viewBox="0 0 401 29" fill="none" xmlns="http://www.w3.org/2000/svg">
<path d="M353.062 19.1921C353.572 18.5714 354.705 18.7387 355.526 18.512C361.102 17.1743 366.679 15.8366 372.255 14.4989C393.749 9.11974 399.339 7.39942 399.181 7.2662C398.391 6.6001 308.584 26.0673 304.946 23.1308C303.993 22.459 341.278 12.0124 348.487 10.4763C349.963 10.1447 358.319 8.3933 360.615 7.83498C361.928 7.49772 366.007 7.12935 364.725 6.57378C362.956 6.00119 360.971 6.9535 359.175 7.14619C341.353 9.84409 323.658 13.568 305.98 16.7818C304.343 17.1077 272.136 21.8573 272.33 20.9702C273.28 17.0446 316.773 5.79316 323.009 4.22307C325.634 3.54855 333.503 1.78008 330.872 2.58215C310.467 9.404 288.183 14.1171 267.023 19.2524C261.279 20.712 231.276 27.5818 231.804 26.4509C235.847 17.7806 289.026 13.2526 296.788 5.22297C298.818 2.9952 289.935 5.87756 286.501 6.39617C277.662 8.00305 277.825 8.0087 268.327 9.84798C241.139 15.2837 182.16 27.5268 180.273 25.673C178.386 23.8193 185.403 23.1704 188.195 22.374C205.61 17.3632 232.959 16.6581 248.044 8.50116C249.37 7.78127 244.791 8.51528 243.157 8.71365C233.849 9.79332 224.523 11.3832 215.201 12.8455C197.045 15.7871 178.89 18.7288 160.729 21.798C151.403 23.3878 141.91 25.0996 132.435 26.3011C130.802 26.4995 127.179 27.7777 127.548 26.5136C128.085 25.1276 173.135 15.8461 191.502 11.5071C192.978 11.1755 196.055 11.5384 195.937 10.2573C195.982 8.98178 192.838 10.5321 191.204 10.7305C173.712 13.3122 156.503 17.0531 139.151 20.2782C122.286 23.5204 112.468 25.2208 113.46 24.7446C128.861 16.8541 157.52 20.5366 170.719 10.5259C171.887 9.67279 167.47 10.4125 165.999 10.6165C158.324 11.4978 150.631 12.8893 143.11 14.0314C129.367 16.3609 115.623 18.6904 101.88 21.02C95.5003 22.0742 94.5167 22.2952 88.6331 23.1114C87.4871 23.3268 84.374 23.9843 85.2085 23.3749C94.2476 16.0284 119.391 17.9281 131.111 12.9739C132.596 12.3872 124.104 13.3677 108.569 15.7623C98.1062 17.3125 69.8186 26.2855 59.854 22.8726C58.7302 22.4503 61.9925 22.1811 63.1385 21.9657C64.6138 21.6341 73.9443 19.9167 74.761 19.8175C87.0378 17.5645 99.7841 15.8387 111.921 12.9422C112.575 12.8374 98.6871 14.651 90.1821 16.0142C74.6431 18.5364 58.0671 22.8102 42.1075 23.4022C38.8498 23.5439 48.3472 21.7046 51.6228 21.0528C56.5361 20.075 67.1217 19.6784 70.9558 17.0029C72.7917 15.6623 66.0781 16.9603 63.6325 17.1303C57.7623 17.5638 57.7579 17.6913 51.3958 18.2354C44.5376 19.0175 18.9515 25.1477 13.0479 21.8766C10.8138 20.6493 17.9748 20.5163 20.5917 20.0968C27.4677 18.8045 34.4973 17.773 41.5314 16.6139C43.4941 16.2993 49.5401 15.4888 47.5774 15.8034C35.472 17.807 5.33979 19.0534 2.39354 19.5891" stroke="#FF9594" stroke-width="3" stroke-miterlimit="1.5" stroke-linecap="round"/>
</svg>
