<svg width="205" height="101" viewBox="0 0 205 101" fill="none" xmlns="http://www.w3.org/2000/svg">
<path d="M21.7263 70.6242C21.3894 70.5415 21.2547 71.6171 21.5242 71.8653C45.5755 97.4317 70.3678 90.8953 81.0124 91.9709C109.106 94.9495 140.837 86.3447 165.899 70.5415C176.14 64.0878 191.096 54.9865 194.06 39.5143C198.372 17.092 163.811 7.246 151.886 5.09478C114.293 -1.68984 73.4669 2.36438 38.1647 20.4015C26.8465 26.1933 4.27732 39.2661 6.50054 59.0407C8.92588 81.0494 40.4553 89.0751 53.862 92.2191C91.859 100.989 137.199 103.968 173.175 83.6143C186.649 76.0023 205.378 59.1235 202.751 37.7768C200.191 16.9265 177.554 10.3074 163.878 7.246C122.513 -2.02079 74.4774 5.67395 35.4025 24.042C16.404 32.8951 -15.597 57.7996 17.0104 75.0094C21.4568 77.3261 26.1054 78.9809 30.7539 80.222" stroke="#FFE352" stroke-width="4" stroke-miterlimit="1.5" stroke-linecap="round"/>
</svg>
