<svg width="176" height="127" viewBox="0 0 176 127" fill="none" xmlns="http://www.w3.org/2000/svg">
<path d="M16.8431 113.352C14.5722 114.679 7.75932 99.1356 7.19158 97.8087C2.83889 84.5401 8.45275e-05 53.264 18.9248 49.6625C45.2302 44.7341 65.8581 71.6505 76.8344 91.7431C80.8086 98.9461 89.3249 115.248 80.0518 122.071C70.5894 129.085 60.1807 109.371 57.7205 103.306C49.7721 83.9714 44.2839 52.8849 61.6947 36.7729C84.2151 16.1117 104.843 35.8252 121.497 53.0744C125.66 57.2446 136.826 73.1669 127.742 78.2849C119.983 82.6446 112.602 64.0684 110.899 59.5192C106.357 46.8192 103.708 29.949 110.331 17.4386C118.847 1.32665 137.961 0.189336 147.802 15.5431C151.776 21.6087 154.804 28.4326 158.022 35.067C160.671 40.1849 171.837 55.9177 170.701 61.9834" stroke="#FFE352" stroke-width="4" stroke-miterlimit="1.5" stroke-linecap="round"/>
<path d="M166.916 21.04C166.538 16.6803 168.809 28.6221 168.998 30.1385C169.377 38.2893 170.323 46.44 171.269 54.5908C171.458 55.7281 172.972 64.4475 172.026 65.2057C171.269 65.7744 171.08 63.6893 170.512 62.9311C167.862 59.5191 165.024 56.4863 161.807 53.643C154.426 47.0087 143.828 38.0997 133.798 36.0147" stroke="#FFE352" stroke-width="4" stroke-miterlimit="1.5" stroke-linecap="round"/>
</svg>
