<svg width="220" height="244" viewBox="0 0 220 244" fill="none" xmlns="http://www.w3.org/2000/svg">
<path d="M160.475 30.0311C160.137 30.3583 160.026 28.8703 160.6 28.6055C164.364 27.7253 171.98 35.1581 174.079 36.7553C183.11 44.5623 191.544 53.6703 197.548 63.3859C211.98 87.0008 208.156 117.665 179.634 128.252C146.908 140.435 91.8378 119.825 76.7788 90.001C70.5018 77.5041 63.7059 46.9479 89.8809 50.9537C129.328 57.2197 132.636 104.775 123.154 127.275C105.825 168.955 57.032 198.979 3.24716 198.298" stroke="#FFE352" stroke-width="4" stroke-miterlimit="1.5" stroke-linecap="round"/>
<path d="M56.3848 213.813C56.9592 213.548 55.1548 213.696 54.6835 213.571C53.6892 213.517 52.5108 213.205 51.5681 212.956C48.217 212.278 44.9175 211.405 41.6179 210.532C32.6104 208.358 23.5514 206.379 14.75 203.426C11.7377 202.42 8.77683 201.22 5.81598 200.02C4.4534 199.452 1.38951 198.641 1.38951 198.641C1.38951 198.641 6.09547 198.01 8.23852 197.535C13.0475 196.515 17.6723 195.238 21.9288 193.446C35.1696 188.196 48.4247 180.031 55.3382 169.148" stroke="#FFE352" stroke-width="4" stroke-miterlimit="1.5" stroke-linecap="round"/>
</svg>
