<svg width="45" height="42" viewBox="0 0 45 42" fill="none" xmlns="http://www.w3.org/2000/svg">
<path fill-rule="evenodd" clip-rule="evenodd" d="M20.1331 15.5492C15.9251 12.0913 12.5154 7.97328 9.95317 3.17551C9.44073 2.2199 8.24834 1.85538 7.28257 2.36767C6.32666 2.87995 5.96197 4.07203 6.47442 5.03749C9.29287 10.2884 13.018 14.8005 17.6301 18.5934C18.4677 19.283 19.7192 19.1648 20.409 18.3274C21.0989 17.4801 20.9707 16.2388 20.1331 15.5492Z" fill="#242457"/>
<path fill-rule="evenodd" clip-rule="evenodd" d="M17.8887 2.08185C18.1055 6.06192 18.3027 10.042 18.5491 14.0221C18.618 15.1058 19.5542 15.9333 20.6383 15.8643C21.7223 15.7954 22.5501 14.8595 22.4811 13.7758C22.2347 9.80556 22.0376 5.83535 21.8208 1.85528C21.7616 0.774549 20.8255 -0.0579227 19.7414 0.0031577C18.6574 0.0642381 17.8198 0.995207 17.8887 2.08185Z" fill="#242457"/>
<path fill-rule="evenodd" clip-rule="evenodd" d="M32.5196 2.88979C29.9968 6.69254 27.139 10.1997 24.2614 13.7463C23.5716 14.5935 23.6996 15.8349 24.5471 16.5147C25.3947 17.2043 26.6364 17.0762 27.3164 16.2289C30.2728 12.5937 33.2095 8.97809 35.8112 5.06697C36.4123 4.16062 36.156 2.93905 35.2494 2.3381C34.3526 1.73715 33.1207 1.98343 32.5196 2.88979Z" fill="#242457"/>
<path fill-rule="evenodd" clip-rule="evenodd" d="M42.2914 17.027C35.4522 17.3324 28.1893 17.3422 21.3501 16.9088C20.266 16.8497 19.3298 17.6674 19.2609 18.7609C19.1919 19.8446 20.0197 20.7805 21.1037 20.8494C28.0809 21.2829 35.4917 21.2731 42.4688 20.9677C43.5529 20.9184 44.4003 19.9924 44.351 18.9087C44.3017 17.825 43.3754 16.9777 42.2914 17.027Z" fill="#242457"/>
<path fill-rule="evenodd" clip-rule="evenodd" d="M17.6247 18.278C21.8426 23.4402 26.2083 28.504 30.1206 33.9028C30.7612 34.7796 31.9931 34.9765 32.88 34.3362C33.7571 33.6958 33.9541 32.4643 33.3135 31.5875C29.3519 26.1297 24.937 21.0068 20.6699 15.7855C19.9801 14.9481 18.7384 14.82 17.9007 15.5096C17.0532 16.1993 16.9349 17.4406 17.6247 18.278Z" fill="#242457"/>
<path fill-rule="evenodd" clip-rule="evenodd" d="M18.9015 19.7759C20.0053 25.1549 20.3108 30.2975 20.3896 35.7455C20.3995 36.8291 21.2963 37.6961 22.3803 37.6862C23.4742 37.6665 24.3413 36.7798 24.3216 35.6863C24.2428 29.9822 23.9176 24.613 22.7646 18.9779C22.538 17.9139 21.5032 17.2242 20.4291 17.4508C19.3647 17.6676 18.6749 18.7119 18.9015 19.7759Z" fill="#242457"/>
<path fill-rule="evenodd" clip-rule="evenodd" d="M19.0795 19.3426C15.8866 25.7265 14.2408 32.8197 10.8212 39.0657C10.2989 40.0115 10.6536 41.2133 11.6095 41.7355C12.5654 42.2576 13.7579 41.9029 14.2802 40.9572C17.7196 34.6718 19.385 27.5392 22.6075 21.1061C23.0903 20.1308 22.6961 18.9485 21.7304 18.456C20.7548 17.9732 19.5722 18.3673 19.0795 19.3426Z" fill="#242457"/>
<path fill-rule="evenodd" clip-rule="evenodd" d="M20.837 17.8938C14.4807 19.0169 8.13426 19.5292 1.73853 20.2878C0.654505 20.4159 -0.114166 21.3912 0.0139459 22.4749C0.142058 23.5586 1.11777 24.327 2.20179 24.1989C8.66651 23.4404 15.0918 22.9083 21.5269 21.7754C22.5913 21.5784 23.3106 20.5538 23.1234 19.4898C22.9263 18.416 21.9112 17.6968 20.837 17.8938Z" fill="#242457"/>
<path fill-rule="evenodd" clip-rule="evenodd" d="M25.2605 14.8994C23.9498 14.8403 22.7081 14.7516 21.427 14.5644C20.3429 14.4068 19.3476 15.1555 19.1899 16.2294C19.0322 17.3032 19.7811 18.3081 20.8553 18.4657C22.2744 18.6726 23.6442 18.7711 25.083 18.8302C26.1671 18.8795 27.0934 18.042 27.1328 16.9485C27.1821 15.8648 26.3445 14.9487 25.2605 14.8994Z" fill="#242457"/>
</svg>
