<svg width="69" height="64" viewBox="0 0 69 64" fill="none" xmlns="http://www.w3.org/2000/svg">
<path d="M11.7223 18.6131L11.7232 18.6113C14.1367 13.9159 15.9036 8.84881 17.5741 3.94295L17.5744 3.94215C17.97 2.76764 17.3705 1.45249 16.1784 1.11166C15.0168 0.69793 13.7512 1.34855 13.3672 2.45418L13.3667 2.45582C11.7506 7.21485 10.0659 12.0999 7.77134 16.5355C7.21039 17.6084 7.63822 18.964 8.72153 19.5471C9.81434 20.1356 11.1634 19.6795 11.7223 18.6131Z" fill="#242457" stroke="#242457" stroke-width="0.5"/>
<path d="M57.7018 14.7462L57.7018 14.7461C57.0619 13.7126 55.6971 13.3349 54.6319 14.0305C49.63 17.0947 44.888 20.5136 40.1769 23.9518C39.7822 24.2398 39.3879 24.5279 38.9935 24.816C34.6771 27.9694 30.3706 31.1155 25.8876 34.0053L25.8876 34.0053L25.8835 34.008C24.8518 34.7022 24.5537 36.0911 25.22 37.1354L25.2197 37.1355L25.2273 37.1462C25.9013 38.0902 27.2599 38.4724 28.3084 37.7685C32.7924 34.8686 37.0988 31.7124 41.4015 28.5589C41.7957 28.27 42.1898 27.9812 42.584 27.6925C47.2839 24.2514 51.9996 20.841 56.9705 17.786C58.0174 17.174 58.3443 15.7852 57.7018 14.7462Z" fill="#242457" stroke="#242457" stroke-width="0.5"/>
<path d="M39.8252 58.3584L39.8252 58.3586C39.6342 59.6 40.4882 60.6738 41.6738 60.9156L41.6737 60.9159L41.686 60.9178C43.941 61.262 46.1959 61.6063 48.4507 61.9505C50.9137 62.3265 53.3766 62.7026 55.8395 63.0785L55.8395 63.0785L55.8452 63.0792C57.0656 63.2373 58.1977 62.3786 58.3807 61.1482L58.3807 61.1482L58.3809 61.1472C58.5476 59.9942 57.7156 58.8251 56.4919 58.6651C54.0326 58.2899 51.5735 57.9147 49.1142 57.5394C46.8656 57.1963 44.617 56.8531 42.368 56.5101C41.1502 56.2654 40.0142 57.1362 39.8252 58.3584Z" fill="#242457" stroke="#242457" stroke-width="0.5"/>
</svg>
