<svg width="135" height="324" viewBox="0 0 135 324" fill="none" xmlns="http://www.w3.org/2000/svg">
<path fill-rule="evenodd" clip-rule="evenodd" d="M33.1013 74.7599L33.2097 74.9591C33.7005 75.7806 34.2172 76.6038 34.4965 77.1983C38.2933 85.3082 45.1479 92.6113 51.4325 98.6835C66.4762 113.205 80.7902 128.558 94.8116 144.172C98.7407 148.547 102.164 153.413 105.814 158.035C106.893 159.405 107.946 160.785 109.004 162.167C109.459 162.773 110.698 163.784 111.224 164.416C111.607 164.867 111.783 165.297 111.849 165.576C111.999 166.284 111.805 166.825 111.427 167.237C111.186 167.508 110.739 167.874 109.881 167.807C100.859 167.075 89.2054 161.71 77.0848 154.717C59.2822 144.446 40.4254 130.706 27.5696 123.813C24.1884 122.003 17.8836 117.079 12.0369 113.55C9.44709 111.979 6.9767 110.65 4.96429 110.147C6.12593 111.419 7.71044 112.864 8.4687 113.828C11.7419 117.992 15.607 121.623 19.0986 125.577C29.7227 137.6 54.9124 180.546 62.1478 195.187C68.0047 207.028 95.2803 277.598 96.0076 321.618C96.0229 322.564 95.3093 323.329 94.409 323.328C93.5087 323.327 92.7676 322.556 92.752 321.617C92.0331 278.125 65.0508 208.417 59.2657 196.718C52.1076 182.24 27.2358 139.76 16.7355 127.883C13.194 123.878 9.29218 120.19 5.97564 115.975C4.77976 114.454 1.7524 111.758 0.923187 110.207C0.454436 109.333 0.444391 108.558 0.625816 108.017C0.851904 107.355 1.3728 106.665 2.63763 106.541C4.70829 106.344 7.56161 107.289 10.6834 108.923C17.1814 112.334 25.0784 118.669 29.007 120.778C41.8819 127.679 60.7772 141.436 78.6114 151.73C88.5521 157.461 98.1369 162.134 106.117 163.807C105.194 162.592 104.264 161.391 103.321 160.189C99.721 155.618 96.3465 150.817 92.4673 146.494C78.495 130.945 64.2374 115.643 49.2563 101.181C42.6779 94.8282 35.5538 87.1434 31.5782 78.6651C31.0198 77.4692 29.5203 75.311 29.2483 74.1283C29.0744 73.37 29.201 72.7491 29.4561 72.3082C29.7617 71.7614 30.2924 71.2848 31.2847 71.2719C35.3456 71.206 42.1084 72.9647 49.9695 75.6761C67.8233 81.8434 91.5223 92.8543 101.389 96.9378C108.015 99.6796 114.576 102.718 121.278 105.239C121.611 105.365 128.142 107.21 131.253 108.084C130.71 106.123 129.528 103.446 128.063 100.407C122.903 89.7308 113.834 75.0785 111.137 70.5982C105.966 62.0023 100.599 53.5638 95.6168 44.8442C87.7538 31.0837 80.3259 17.0799 72.3219 3.4055C71.8435 2.59858 72.0809 1.54724 72.8402 1.06624C73.6063 0.57887 74.6117 0.847436 75.0836 1.6539C83.1002 15.336 90.534 29.354 98.4029 43.1285C103.367 51.8195 108.722 60.2365 113.88 68.8111C116.602 73.3342 125.749 88.1289 130.956 98.9043C133.346 103.842 134.863 108.028 134.836 110.196C134.821 110.798 134.453 111.99 132.869 111.962C130.842 111.923 120.704 108.636 120.23 108.459C113.496 105.922 106.903 102.867 100.245 100.117C90.4104 96.0489 66.7945 85.0713 49.0047 78.929C42.6018 76.7163 36.9799 75.1125 33.1013 74.7599Z" fill="#242457"/>
</svg>
