<svg width="120" height="112" viewBox="0 0 120 112" fill="none" xmlns="http://www.w3.org/2000/svg">
<path fill-rule="evenodd" clip-rule="evenodd" d="M119.593 2.42579C119.632 2.36878 119.689 2.27345 119.734 2.14734C119.774 2.03545 119.842 1.79436 119.773 1.47511C119.692 1.0974 119.431 0.681436 118.955 0.374479C118.548 0.111575 118.155 0.0397801 117.964 0.0165504C117.612 -0.0262175 117.341 0.0259174 117.275 0.0387419L117.27 0.0395472C117.162 0.0602244 117.073 0.0856141 117.019 0.101913C116.965 0.118155 116.912 0.135789 116.866 0.151694C115.029 0.287038 113.095 0.215334 111.099 0.141317C110.393 0.115145 109.679 0.0886842 108.959 0.070985L108.938 0.0704624L108.917 0.0703618L108.523 0.0684331C102.734 0.0396578 96.1183 0.00677002 90.0186 2.50775C89.1841 2.84991 88.9496 3.73817 89.495 4.49173C90.0403 5.24529 91.1589 5.57879 91.9934 5.23663C97.424 3.01001 103.356 3.03829 109.3 3.06664L109.424 3.06722C110.016 3.08196 110.642 3.10539 111.292 3.12966L111.292 3.12966C113.434 3.20979 115.822 3.29908 118.007 3.11495L118.207 3.09806L118.365 3.05048C118.878 3.02351 119.338 2.808 119.593 2.42579ZM78.2231 4.58769C78.0229 4.72368 77.699 4.87661 77.3862 5.0192C77.085 5.1565 76.7408 5.20208 76.3973 5.16754C76.3316 5.18985 76.2644 5.21278 76.1959 5.23624C75.5028 5.47373 74.706 5.75735 74.0511 5.99451C73.7241 6.11292 73.4347 6.21893 73.2135 6.30094C73.1028 6.34201 73.0108 6.37644 72.9406 6.40306C72.9055 6.41639 72.8773 6.4272 72.8558 6.43556C72.8325 6.44459 72.8233 6.44833 72.8234 6.44829L72.8084 6.45447L72.7932 6.46038C68.695 8.05311 64.6852 10.2458 60.9653 12.8835C60.2661 13.3793 59.1219 13.2441 58.4097 12.5816C57.6976 11.9191 57.687 10.9801 58.3863 10.4843C62.2741 7.72747 66.4975 5.41131 70.8612 3.71426C71.2077 3.57497 73.0205 2.91276 74.4027 2.43914C75.0716 2.20998 75.781 1.97502 76.1555 1.89096C76.212 1.87829 76.3028 1.85918 76.4085 1.84555C76.4607 1.83883 76.5493 1.82905 76.6593 1.82708C76.7363 1.8257 76.9869 1.82263 77.2998 1.90685C77.6265 1.99477 78.4315 2.31262 78.7205 3.10647C78.9412 3.71262 78.6589 4.13325 78.6056 4.21265L78.605 4.21355C78.4596 4.4301 78.2626 4.5614 78.227 4.5851L78.2231 4.58769ZM52.5005 14.155C53.2173 13.7094 53.2763 12.7802 52.6323 12.0794C51.9884 11.3787 50.8853 11.1719 50.1685 11.6175C44.5537 15.1081 39.4572 20.0447 35.3637 25.2386C35.2678 25.3593 35.1164 25.5871 34.9744 25.8023C34.7993 26.0676 34.5694 26.4216 34.3048 26.8311C33.9626 27.3609 33.5583 27.9902 33.1348 28.6494L33.1338 28.6509C32.9032 29.0099 32.6669 29.3778 32.4318 29.7433C31.7626 30.7836 31.1024 31.8062 30.6007 32.5675C30.3491 32.9495 30.1423 33.2581 29.9962 33.4681C29.9384 33.5512 29.8956 33.611 29.8663 33.6504C29.5949 33.9196 29.4636 34.2977 29.5377 34.7185C29.684 35.5488 30.5746 36.2308 31.527 36.2417C31.9941 36.2471 32.2938 36.0838 32.3582 36.0487L32.3615 36.0469C32.4687 35.9887 32.5429 35.9305 32.5776 35.9023C32.6508 35.8426 32.7028 35.7872 32.7246 35.7634C32.7752 35.7086 32.8193 35.6527 32.8486 35.6147C32.9126 35.5318 32.9886 35.4254 33.0688 35.3101C33.2325 35.0748 33.4525 34.7461 33.7064 34.3606C34.216 33.5872 34.8826 32.5548 35.5514 31.5149C35.7885 31.1465 36.0257 30.7772 36.2567 30.4176C36.6793 29.7597 37.081 29.1345 37.4221 28.6065C37.6857 28.1983 37.9107 27.8521 38.0792 27.5967C38.2039 27.4078 38.2776 27.2997 38.3112 27.2505C38.3296 27.2236 38.3359 27.2143 38.332 27.2191L38.3415 27.2076L38.3508 27.1958C42.3216 22.1573 47.2112 17.4433 52.5005 14.155ZM11.9734 61.8607C11.7923 61.61 11.7229 61.3854 11.6943 61.2768C11.5416 60.6967 11.7805 60.1729 12.2582 59.8928C12.4094 59.6216 12.6157 59.2045 12.8705 58.6506C13.4721 57.3428 14.2662 55.4463 15.1011 53.4033C15.6266 52.1174 16.1702 50.7685 16.6893 49.4801L16.6896 49.4793L16.6897 49.4791L16.6899 49.4787L16.6903 49.4777L16.6906 49.477C17.8004 46.7226 18.7985 44.2456 19.2701 43.254C19.611 42.5371 20.6154 42.2961 21.5134 42.7156C22.4114 43.1352 22.863 44.0565 22.5221 44.7734C22.0814 45.7002 21.1364 48.0456 20.0509 50.7395C19.5217 52.0531 18.959 53.4496 18.4051 54.8049C17.5704 56.8475 16.7596 58.7856 16.135 60.1434C15.8274 60.8119 15.5446 61.385 15.3149 61.7635C15.2264 61.9092 15.0552 62.1853 14.8118 62.3851C14.7403 62.4438 14.6023 62.5475 14.397 62.6288C14.2019 62.706 13.7748 62.8294 13.2046 62.6831C12.5765 62.522 12.1758 62.1408 11.9734 61.8607ZM13.4345 93.2887C14.2782 91.4761 15.2006 89.687 16.214 87.918L16.2176 87.9118L16.2212 87.9056C16.4737 87.4771 16.7262 87.0429 16.9806 86.6053C18.011 84.8332 19.0733 83.006 20.3036 81.2792C20.4442 81.0713 20.8215 80.5435 21.1343 80.1269C21.288 79.9223 21.4575 79.7023 21.5815 79.5624C21.6119 79.5281 21.6642 79.4705 21.7276 79.4124C21.7552 79.3871 21.8221 79.3269 21.9176 79.2641C21.9639 79.2336 22.0578 79.1751 22.1912 79.1211C22.2871 79.0822 22.6125 78.9557 23.0879 78.9949C23.3583 79.0171 23.6881 79.0947 24.0173 79.2752C24.3465 79.4558 24.573 79.6834 24.7173 79.8887C24.9711 80.2497 24.9915 80.5661 24.9959 80.6601C25.006 80.8761 24.9545 81.0402 24.9431 81.0764L24.9421 81.0797C24.9087 81.1873 24.8637 81.2791 24.843 81.3205C24.7491 81.5094 24.6075 81.666 24.433 81.7869C24.3917 81.8404 24.3451 81.9018 24.2936 81.9703C23.987 82.3785 23.626 82.8855 23.5265 83.0338L23.517 83.048L23.507 83.0619C22.3428 84.6944 21.3466 86.4071 20.3189 88.174C20.0591 88.6206 19.7973 89.0707 19.5303 89.5238C16.9475 94.0333 14.9682 98.6934 13.3743 103.577L13.3576 103.629L13.3361 103.678C13.3402 103.668 13.3372 103.678 13.3252 103.714L13.3252 103.714C13.3104 103.759 13.2821 103.845 13.2371 103.987C13.1686 104.203 13.0788 104.492 12.9726 104.834L12.9688 104.846C12.7542 105.538 12.4768 106.431 12.191 107.313C11.9065 108.19 11.6072 109.075 11.3485 109.745C11.2213 110.075 11.0913 110.386 10.9676 110.626C10.9095 110.738 10.8266 110.887 10.7188 111.025C10.6683 111.089 10.5683 111.208 10.4122 111.322C10.3126 111.395 9.8724 111.709 9.12844 111.64L8.91386 111.62L8.7033 111.559C7.5511 111.227 7.20562 110.359 7.1281 110.128C7.02248 109.812 7.01018 109.512 7.00937 109.334C7.00846 109.132 7.02438 108.939 7.03701 108.802C7.04448 108.722 7.04554 108.712 7.04651 108.703C7.04741 108.695 7.04822 108.688 7.05386 108.627C7.05765 108.586 7.05848 108.571 7.05855 108.571L7.05897 108.554L7.06009 108.535C7.29642 104.437 7.48023 100.49 7.14459 96.556L7.14448 96.5546C6.43913 88.1824 3.93954 80.1418 0.166946 72.9849C-0.252049 72.19 0.144809 71.3597 1.05335 71.1304C1.9619 70.901 3.03808 71.3594 3.45708 72.1543C6.55092 78.0236 8.81893 84.4383 10.0136 91.1264C10.4246 87.5352 11.0334 82.6103 11.5555 78.3866L11.5556 78.3863L11.5557 78.3857C11.9324 75.3382 12.264 72.6558 12.4436 71.1031C12.5364 70.3004 13.4135 69.8141 14.4025 70.017C15.3916 70.2198 16.1181 71.035 16.0253 71.8376C15.8408 73.4327 15.5043 76.1541 15.1242 79.2286L15.1242 79.2287L15.1242 79.2288L15.1241 79.2297C14.5295 84.0386 13.8281 89.7111 13.4345 93.2887ZM21.4591 79.8409C21.4631 79.832 21.4639 79.8311 21.4595 79.8399L21.4591 79.8409Z" fill="#242457"/>
</svg>
