<?xml version="1.0" encoding="utf-8"?>
<svg width="225.58319" height="249.66" viewBox="48.96 41.04 225.58319 249.66" fill="none" xmlns="http://www.w3.org/2000/svg">
  <path d="M113.33 227.763C82.7341 211.797 55.2866 187.46 53.0095 148.22C49.0273 70.0841 138.553 22.7279 201.031 55.0362C261.221 85.9739 296.233 164.16 246.885 223.36C218.849 257.061 187.824 242.022 160.797 249.104C144.638 253.23 125.469 282.775 110.168 287.415C90.5762 293.43 148.643 246.162 113.33 227.763Z" stroke="#7D2D63" stroke-width="5" stroke-miterlimit="1.5" stroke-linecap="round" />
  <path d="M173.389 124.282C170.673 115.154 167.958 102.868 161.664 95.9382C152.366 85.2351 141.203 93.5481 138.338 105.254C133.755 123.826 140.188 143.077 143.76 161.403C145.046 168.096 146.475 175.268 147.189 182.407C147.474 184.947 146.901 188.551 149.333 189.613C156.486 193.11 165.359 186.583 171.084 182.907C181.817 176.311 189.117 166.078 198.134 156.874C206.435 148.425 217.169 140.25 218.46 126.417C219.179 115.399 212.456 109.396 202.869 109.574C192.853 109.889 183.98 115.626 176.824 122.392" stroke="#7D2D63" stroke-width="5" stroke-miterlimit="1.5" stroke-linecap="round" />
</svg>