<svg width="154" height="377" viewBox="0 0 154 377" fill="none" xmlns="http://www.w3.org/2000/svg">
<path fill-rule="evenodd" clip-rule="evenodd" d="M109.755 295.986L109.67 295.742C109.272 294.729 108.843 293.71 108.642 292.986C105.907 283.112 99.505 273.8 93.5105 265.987C79.1583 247.299 65.8092 227.735 52.8476 207.905C49.2154 202.349 46.2612 196.284 42.9982 190.475C42.0344 188.754 41.1033 187.023 40.165 185.291C39.7644 184.532 38.5458 183.208 38.0694 182.41C37.7194 181.839 37.6034 181.319 37.5838 180.988C37.5532 180.147 37.8841 179.543 38.3995 179.112C38.7297 178.827 39.3159 178.457 40.2868 178.639C50.4873 180.59 62.7807 188.238 75.2845 197.832C93.6499 211.924 112.531 230.17 125.898 239.739C129.414 242.253 135.662 248.736 141.662 253.545C144.318 255.683 146.886 257.527 149.094 258.357C148.015 256.739 146.487 254.868 145.81 253.658C142.888 248.426 139.18 243.741 135.966 238.726C126.183 223.478 105.873 170.566 100.5 152.694C96.1482 138.238 78.9646 53.0171 86.9244 1.84645C87.0957 0.747107 88.067 -0.0532984 89.0992 0.0579813C90.1314 0.169262 90.8275 1.15369 90.6579 2.24515C82.7939 52.8024 99.8135 136.987 104.111 151.269C109.428 168.943 129.467 221.274 139.137 236.338C142.398 241.418 146.136 246.174 149.098 251.471C150.166 253.382 153.099 256.88 153.74 258.78C154.103 259.852 153.96 260.752 153.644 261.359C153.252 262.099 152.517 262.836 151.042 262.825C148.627 262.802 145.544 261.357 142.29 259.079C135.519 254.328 127.728 246.012 123.643 243.086C110.256 233.505 91.3339 215.235 72.9368 201.113C62.6813 193.248 52.6222 186.655 43.8038 183.74C44.6196 185.262 45.4463 186.77 46.2877 188.28C49.5037 194.023 52.4147 200.007 56 205.497C68.9182 225.246 82.213 244.743 96.5053 263.354C102.781 271.529 109.416 281.317 112.282 291.64C112.683 293.096 113.972 295.784 114.047 297.189C114.095 298.091 113.826 298.796 113.446 299.276C112.986 299.873 112.282 300.362 111.141 300.255C106.471 299.836 99.0661 296.97 90.5923 292.864C71.3482 283.528 46.3682 267.857 35.8687 261.914C28.8166 257.924 21.8994 253.597 14.7168 249.853C14.3595 249.666 7.23805 246.728 3.84477 245.334C4.0755 247.676 4.89649 250.927 5.97013 254.632C9.75524 267.651 17.2282 285.761 19.4271 291.289C23.6399 301.895 28.1092 312.343 32.0814 323.069C38.3503 339.997 44.0716 357.154 50.5194 374C50.9068 374.994 50.4246 376.185 49.4577 376.651C48.4818 377.123 47.3823 376.688 47.0023 375.695C40.5414 358.839 34.8162 341.665 28.5433 324.72C24.5864 314.029 20.1265 303.608 15.9232 293.028C13.7053 287.447 6.17097 269.162 2.35103 256.023C0.596932 250.001 -0.307186 244.958 0.157701 242.446C0.294517 241.75 0.954821 240.41 2.76584 240.636C5.08304 240.929 16.0527 245.982 16.5618 246.245C23.7778 250.011 30.7284 254.36 37.8156 258.365C48.2817 264.286 73.173 279.907 92.3485 289.207C99.2498 292.556 105.377 295.103 109.755 295.986Z" fill="#242457"/>
</svg>
