<svg width="47" height="47" viewBox="0 0 47 47" fill="none" xmlns="http://www.w3.org/2000/svg">
<path fill-rule="evenodd" clip-rule="evenodd" d="M21.1328 17.5492C16.9249 14.0913 13.5152 9.97328 10.9529 5.17551C10.4405 4.2199 9.24809 3.85538 8.28233 4.36767C7.32642 4.87995 6.96172 6.07203 7.47417 7.03749C10.2926 12.2884 14.0178 16.8005 18.6298 20.5934C19.4675 21.283 20.719 21.1648 21.4088 20.3274C22.0986 19.4801 21.9705 18.2388 21.1328 17.5492Z" fill="#242457"/>
<path fill-rule="evenodd" clip-rule="evenodd" d="M18.8888 4.08185C19.1056 8.06192 19.3027 12.042 19.5491 16.0221C19.6181 17.1058 20.5543 17.9333 21.6383 17.8643C22.7223 17.7954 23.5501 16.8595 23.4811 15.7758C23.2348 11.8056 23.0376 7.83535 22.8208 3.85528C22.7617 2.77455 21.8255 1.94208 20.7415 2.00316C19.6575 2.06424 18.8198 2.99521 18.8888 4.08185Z" fill="#242457"/>
<path fill-rule="evenodd" clip-rule="evenodd" d="M33.5191 4.88991C30.9963 8.69266 28.1385 12.1998 25.2609 15.7464C24.5711 16.5937 24.6991 17.835 25.5466 18.5148C26.3942 19.2044 27.6359 19.0763 28.3159 18.2291C31.2723 14.5938 34.209 10.9782 36.8107 7.06709C37.4118 6.16074 37.1555 4.93917 36.2489 4.33822C35.3521 3.73727 34.1202 3.98356 33.5191 4.88991Z" fill="#242457"/>
<path fill-rule="evenodd" clip-rule="evenodd" d="M43.2917 19.027C36.4525 19.3324 29.1896 19.3422 22.3504 18.9088C21.2664 18.8497 20.3302 19.6674 20.2612 20.7609C20.1922 21.8446 21.02 22.7805 22.104 22.8494C29.0812 23.2829 36.492 23.2731 43.4692 22.9677C44.5532 22.9184 45.4006 21.9924 45.3513 20.9087C45.3021 19.825 44.3757 18.9777 43.2917 19.027Z" fill="#242457"/>
<path fill-rule="evenodd" clip-rule="evenodd" d="M18.6245 20.278C22.8423 25.4402 27.208 30.504 31.1203 35.9028C31.7609 36.7796 32.9928 36.9765 33.8797 36.3362C34.7568 35.6958 34.9538 34.4643 34.3133 33.5875C30.3517 28.1297 25.9368 23.0068 21.6697 17.7855C20.9798 16.9481 19.7381 16.82 18.9004 17.5096C18.0529 18.1993 17.9346 19.4406 18.6245 20.278Z" fill="#242457"/>
<path fill-rule="evenodd" clip-rule="evenodd" d="M19.9018 21.7759C21.0056 27.1549 21.3111 32.2975 21.3899 37.7455C21.3998 38.8291 22.2966 39.6961 23.3806 39.6862C24.4745 39.6665 25.3417 38.7798 25.322 37.6863C25.2431 31.9822 24.918 26.613 23.765 20.9779C23.5383 19.9139 22.5035 19.2242 21.4294 19.4508C20.3651 19.6676 19.6752 20.7119 19.9018 21.7759Z" fill="#242457"/>
<path fill-rule="evenodd" clip-rule="evenodd" d="M20.0798 21.3426C16.8868 27.7265 15.2411 34.8197 11.8215 41.0656C11.2992 42.0114 11.6539 43.2133 12.6098 43.7354C13.5657 44.2576 14.7582 43.9029 15.2805 42.9571C18.7198 36.6717 20.3852 29.5391 23.6077 23.106C24.0906 22.1307 23.6964 20.9485 22.7307 20.4559C21.755 19.9732 20.5725 20.3673 20.0798 21.3426Z" fill="#242457"/>
<path fill-rule="evenodd" clip-rule="evenodd" d="M21.837 19.8938C15.4807 21.0169 9.13423 21.5292 2.7385 22.2878C1.65447 22.4159 0.885804 23.3912 1.01392 24.4749C1.14203 25.5586 2.11774 26.327 3.20176 26.1989C9.66648 25.4404 16.0918 24.9083 22.5269 23.7754C23.5912 23.5784 24.3106 22.5538 24.1234 21.4898C23.9263 20.416 22.9112 19.6968 21.837 19.8938Z" fill="#242457"/>
<path fill-rule="evenodd" clip-rule="evenodd" d="M26.2602 16.8995C24.9495 16.8404 23.7078 16.7517 22.4266 16.5645C21.3426 16.4069 20.3473 17.1556 20.1896 18.2295C20.0319 19.3033 20.7808 20.3082 21.855 20.4658C23.2741 20.6727 24.6439 20.7712 26.0827 20.8303C27.1667 20.8796 28.093 20.0422 28.1325 18.9486C28.1817 17.8649 27.3442 16.9488 26.2602 16.8995Z" fill="#242457"/>
</svg>
