<svg width="135" height="324" viewBox="0 0 135 324" fill="none" xmlns="http://www.w3.org/2000/svg">
<path fill-rule="evenodd" clip-rule="evenodd" d="M33.1017 74.7599L33.2101 74.9591C33.7008 75.7806 34.2175 76.6038 34.4969 77.1983C38.2937 85.3082 45.1483 92.6113 51.4329 98.6835C66.4766 113.205 80.7905 128.558 94.812 144.172C98.741 148.547 102.165 153.413 105.815 158.035C106.894 159.405 107.946 160.785 109.005 162.167C109.46 162.773 110.698 163.784 111.224 164.416C111.608 164.867 111.784 165.297 111.849 165.576C111.999 166.284 111.805 166.825 111.427 167.237C111.187 167.508 110.739 167.874 109.881 167.807C100.859 167.075 89.2057 161.71 77.0852 154.717C59.2826 144.446 40.4258 130.706 27.57 123.813C24.1888 122.003 17.8839 117.079 12.0372 113.55C9.44746 111.979 6.97707 110.65 4.96465 110.147C6.12629 111.419 7.71081 112.864 8.46907 113.828C11.7423 117.992 15.6073 121.623 19.099 125.577C29.7231 137.6 54.9127 180.546 62.1482 195.187C68.0051 207.028 95.2807 277.598 96.0079 321.618C96.0233 322.564 95.3096 323.329 94.4094 323.328C93.5091 323.327 92.768 322.556 92.7523 321.617C92.0335 278.125 65.0512 208.417 59.2661 196.718C52.1079 182.24 27.2362 139.76 16.7359 127.883C13.1944 123.878 9.29255 120.19 5.976 115.975C4.78012 114.454 1.75276 111.758 0.923553 110.207C0.454802 109.333 0.444757 108.558 0.626182 108.017C0.85227 107.355 1.37317 106.665 2.63799 106.541C4.70866 106.344 7.56197 107.289 10.6837 108.923C17.1818 112.334 25.0788 118.669 29.0073 120.778C41.8823 127.679 60.7776 141.436 78.6118 151.73C88.5524 157.461 98.1373 162.134 106.118 163.807C105.195 162.592 104.265 161.391 103.322 160.189C99.7214 155.618 96.3469 150.817 92.4677 146.494C78.4954 130.945 64.2378 115.643 49.2566 101.181C42.6783 94.8282 35.5542 87.1434 31.5785 78.6651C31.0201 77.4692 29.5207 75.311 29.2487 74.1283C29.0747 73.37 29.2014 72.7491 29.4564 72.3082C29.7621 71.7614 30.2928 71.2848 31.285 71.2719C35.346 71.206 42.1088 72.9647 49.9698 75.6761C67.8237 81.8434 91.5227 92.8543 101.389 96.9378C108.015 99.6796 114.576 102.718 121.278 105.239C121.612 105.365 128.142 107.21 131.253 108.084C130.711 106.123 129.528 103.446 128.063 100.407C122.903 89.7308 113.835 75.0785 111.137 70.5982C105.966 62.0023 100.6 53.5638 95.6172 44.8442C87.7542 31.0837 80.3263 17.0799 72.3223 3.4055C71.8439 2.59858 72.0813 1.54724 72.8405 1.06624C73.6066 0.57887 74.612 0.847436 75.0839 1.6539C83.1006 15.336 90.5344 29.354 98.4033 43.1285C103.367 51.8195 108.722 60.2365 113.881 68.8111C116.603 73.3342 125.749 88.1289 130.957 98.9043C133.346 103.842 134.864 108.028 134.836 110.196C134.822 110.798 134.454 111.99 132.87 111.962C130.842 111.923 120.705 108.636 120.23 108.459C113.496 105.922 106.904 102.867 100.245 100.117C90.4107 96.0489 66.7949 85.0713 49.0051 78.929C42.6022 76.7163 36.9803 75.1125 33.1017 74.7599Z" fill="#242457"/>
</svg>
