<svg width="97" height="106" viewBox="0 0 97 106" fill="none" xmlns="http://www.w3.org/2000/svg">
<path d="M94.1045 65.3423C90.0507 61.567 76.5866 54.7424 72.6776 50.6766C62.6881 40.6574 53.4224 30.0574 44.4463 19.0217C43.5776 18.0053 30.5477 2.17795 30.2582 2.46836C29.6791 3.19439 41.2612 63.1642 41.8403 73.0382C42.4194 83.2026 43.7224 96.5615 43.1432 101.934C43.1432 102.079 42.8537 103.531 43.288 103.386C44.591 102.805 51.6851 71.2958 53.7119 65.1972C55.7388 58.9533 77.3104 16.1177 75.7179 13.3588C75.4283 12.778 61.8194 23.6683 40.103 41.5286C37.3522 43.8519 34.4567 46.1752 31.7059 48.4985C25.6253 53.8711 6.37012 65.3423 3.4746 72.893C2.60594 75.3615 8.68657 72.893 11.1478 72.6026C18.5313 71.7314 26.0597 70.4245 33.4433 69.1176C52.1194 65.7779 75.4284 63.3095 94.394 65.6328" stroke="#242457" stroke-width="4" stroke-miterlimit="1.5" stroke-linecap="round"/>
</svg>
