<svg width="14" height="156" viewBox="0 0 14 156" fill="none" xmlns="http://www.w3.org/2000/svg">
<path d="M11.725 1.96907C14.875 0.000133092 4.46254 23.7788 3.76254 27.0351C3.06254 30.5943 1.48754 36.8798 4.11254 39.9847C5.95004 42.2565 9.80004 40.5904 10.15 44.3768C10.85 51.571 4.20004 59.9769 3.06254 67.171C2.10004 73.305 9.62504 69.8972 9.45004 73.9108C9.10004 84.0584 1.48754 93.8273 2.01254 104.505C2.18754 109.2 8.31254 105.565 8.92504 109.427C10.0625 116.849 3.58754 124.043 2.88754 131.313C2.36254 137.144 8.31254 134.266 9.97504 138.356C11.6375 142.596 7.43754 150.321 6.30004 154.258" stroke="#285F5E" stroke-width="3" stroke-miterlimit="1.5" stroke-linecap="round"/>
</svg>
