<svg width="105" height="129" viewBox="0 0 105 129" fill="none" xmlns="http://www.w3.org/2000/svg">
<path d="M81.1009 2.2998C98.5009 11.4998 109.601 34.1998 97.901 52.0998C95.601 55.5998 92.701 59.4998 88.801 61.4998C70.501 70.8998 47.8009 63.5998 31.1009 54.6998C22.0009 49.8998 4.70092 34.6998 7.60092 22.9998C10.2009 12.4998 27.801 15.1998 35.401 16.8998C54.301 21.1998 67.6009 38.5998 63.1009 57.7998C58.9009 75.8998 37.301 83.0998 20.801 78.4998C14.101 76.5998 -2.69906 70.7998 4.50094 60.3998C6.10094 58.0998 8.80097 57.2998 11.401 56.9998C24.501 55.1998 35.4009 65.9998 42.0009 75.9998C50.0009 87.9998 48.7009 104.3 38.7009 114.7C35.2009 118.3 30.801 120 26.901 122.8" stroke="#242457" stroke-width="4" stroke-miterlimit="1.5" stroke-linecap="round"/>
<path d="M30.6 111.6C30.7 114.3 30.1 117.3 28.8 119.7C28.4 120.5 27 122.6 27 122.7C27.1 122.8 28 122.7 28.1 122.7C29.2 122.7 30.3 122.6 31.5 122.6C34.7 122.5 38.6 123.2 40.2 126.3" stroke="#242457" stroke-width="4" stroke-miterlimit="1.5" stroke-linecap="round"/>
</svg>
