<svg width="224" height="28" viewBox="0 0 224 28" fill="none" xmlns="http://www.w3.org/2000/svg">
<g clip-path="url(#clip0_1505_27787)">
<path d="M69.3786 20.4235C69.8255 20.1765 70.0489 20.0941 70.0489 19.9294C69.4903 20.0941 69.1551 20.1765 69.3786 20.4235Z" fill="#72CBA6"/>
<path d="M130.322 15.9764C129.987 15.9764 129.708 16.0588 129.484 16.1411C129.764 16.1411 130.043 16.1411 130.434 16.1411C130.378 16.0588 130.322 16.0588 130.322 15.9764Z" fill="#72CBA6"/>
<path d="M103.956 17.8706C103.9 17.8706 103.789 17.8706 103.733 17.8706L103.23 18.0353L103.956 17.8706Z" fill="#72CBA6"/>
<path d="M43.9062 22.2354C43.8504 22.2354 43.7945 22.2354 43.7387 22.2354C42.4539 22.5648 43.2359 22.4001 43.9062 22.2354Z" fill="#72CBA6"/>
<path d="M123.005 16.3059C122.334 16.3059 121.44 16.3883 120.882 16.3883C121.72 16.4706 122.39 16.3883 123.005 16.3059Z" fill="#72CBA6"/>
<path d="M111.33 16.4706L109.654 16.5529C109.654 16.5529 109.598 16.6353 109.654 16.6353L111.33 16.4706Z" fill="#72CBA6"/>
<path d="M35.3042 16.8823C35.7511 16.7999 36.198 16.8 36.589 16.6353C35.8628 16.7176 35.5276 16.7999 35.3042 16.8823Z" fill="#72CBA6"/>
<path d="M114.123 16.1411C113.788 16.1411 113.341 16.2235 112.727 16.3058C113.341 16.3058 113.788 16.2235 114.123 16.1411Z" fill="#72CBA6"/>
<path d="M5.7537 19.9294C6.033 19.8471 6.20059 19.7647 6.14473 19.6824C5.7537 19.7647 5.69784 19.8471 5.7537 19.9294Z" fill="#72CBA6"/>
<path d="M146.466 8.64709C145.125 8.8118 146.298 8.89417 146.969 8.97653C147.025 8.89417 147.025 8.72945 146.466 8.64709Z" fill="#72CBA6"/>
<path d="M127.585 10.2118C127.809 10.1295 127.976 10.1295 128.144 10.0471C127.809 10.0471 127.641 10.1295 127.585 10.2118Z" fill="#72CBA6"/>
<path d="M49.772 14.5764L51.3919 14.494C51.3919 14.4117 51.4478 14.247 52.2298 14.0823L49.772 14.5764Z" fill="#72CBA6"/>
<path d="M173.279 14.7412C174.787 14.6588 176.351 14.5764 177.971 14.4941C179.591 14.4117 181.211 14.247 182.887 14.1647C186.183 13.9176 189.59 13.7529 192.998 13.5882C199.813 13.2588 206.628 13.0941 212.325 13.7529C212.94 13.6706 213.61 13.5882 214.336 13.5882C215.062 13.5882 215.789 13.6706 216.459 13.8353C216.794 13.9176 217.129 14 217.297 14.0823C217.353 14.0823 217.353 14.0823 217.353 14.0823C217.353 14.1647 217.409 13.9176 217.409 13.8353L217.465 13.5059C217.52 13.3412 217.576 13.0941 217.632 12.9294C217.688 12.7647 217.744 12.5176 217.8 12.3529L217.911 12.1059L217.967 11.8588C218.079 11.5294 218.191 11.2824 218.302 11.0353C218.414 10.7882 218.47 10.6235 218.638 10.4588L218.693 10.3764C218.582 10.5411 218.973 9.96468 218.414 10.7059C218.47 10.6235 218.47 10.5411 218.526 10.5411C218.582 10.4588 218.749 10.2941 218.805 10.2118C218.861 10.1294 218.973 10.047 219.029 10.047C219.084 9.96469 219.14 9.96466 219.196 9.96466C219.252 9.96466 219.252 9.96468 219.196 9.88233L219.084 9.71762C219.029 9.63526 218.973 9.47059 218.917 9.38823C218.693 8.81176 218.526 7.90587 218.358 6.75293C218.302 6.42352 218.247 6.09408 218.247 5.84702L218.191 5.35292V5.10587C218.191 5.10587 218.191 5.10587 218.135 5.10587C218.079 5.10587 218.023 5.10587 217.967 5.10587C217.688 5.18822 217.241 5.1882 216.794 5.1882L216.403 4.36467L215.509 4.44706L214.951 4.52939L214.504 4.61172L212.94 4.85882C211.655 4.69412 215.342 4.52938 213.052 4.36467L211.879 4.94115C211.599 4.6941 203.835 5.35291 209.085 4.36467C205.064 4.69409 201.042 5.0235 196.964 5.1882C194.282 5.27056 195.4 5.9294 192.383 5.9294C191.769 5.68234 193.445 5.68231 193.221 5.43525C184.228 5.18819 182.887 7.4941 174.452 7.41174L175.178 7.24703C173.726 7.49409 171.045 7.57644 170.989 7.65879C172.106 8.48232 172.497 7.16469 175.067 7.57646C174.843 8.31764 171.882 8.07059 172.05 8.5647C170.095 8.4 168.922 8.81173 167.19 8.89409C164.285 8.56467 160.096 8.97644 157.862 8.48232C156.409 8.72938 154.845 9.47058 151.773 9.63528C149.538 9.14116 152.276 9.05882 149.259 8.97647L148.756 9.38823C146.298 9.38823 146.689 9.30586 146.745 9.0588C144.12 9.14115 144.567 9.7176 141.271 9.5529L143.114 9.0588C140.657 9.30586 139.651 9.22353 136.299 9.38823C136.355 9.14117 137.752 9.14113 138.757 9.14113C136.914 8.56466 135.573 9.55292 134.624 9.47057C134.903 9.63527 137.249 9.63528 136.132 10.047C134.456 10.047 132.557 10.7059 131.328 10.2941L133.171 9.8C129.652 10.2941 131.272 10.3764 127.25 10.3764C127.473 10.3764 127.362 10.2117 127.474 10.1294C124.904 10.7882 121.552 10.4588 117.81 10.5411L118.536 10.3764C117.028 10.6235 116.19 10.9529 115.352 11.0353C117.53 11.2 116.916 11.3647 117.139 11.6941C114.29 11.1176 112.782 12.6823 108.146 12.5176C108.202 12.2706 109.319 11.9412 110.604 12.1059C112.168 11.3647 112.335 10.7059 115.184 10.2941C113.453 10.5412 111.33 10.7058 111.777 10.3764L111.218 11.0353C110.157 11.1176 109.319 11.1176 108.481 11.1176C108.034 11.5294 110.66 11.6941 108.202 12.1059C105.409 12.4353 106.693 11.5294 106.302 11.8588C102.448 12.2706 104.738 12.6 101.052 12.6C101.443 12.5176 102.113 12.3529 102.448 12.4353C99.7668 12.2705 95.9683 12.9294 95.1304 12.1882C95.5214 12.0235 95.5773 11.7764 96.5827 11.7764L96.5269 11.8588C99.4316 11.1176 94.1249 12.1059 95.0186 11.3647C95.2421 11.7764 91.4994 11.8588 89.8236 11.9412L90.3822 12.3529C84.8521 14.0823 90.6615 11.3647 85.1314 11.8588C81.6122 12.4353 86.472 11.9412 84.2935 12.3529C81.9473 12.4353 80.9977 12.0235 77.5902 12.4353C76.6406 12.2705 74.6296 12.1882 74.462 11.6117C72.3393 11.9411 68.0381 11.7764 66.865 12.4353C70.496 12.6 70.4401 11.6117 74.6855 12.0235L73.5124 12.6C70.6077 12.7647 66.865 13.2588 64.854 13.2588C65.2451 13.3411 65.4685 13.4235 65.1892 13.5882C61.0556 14.0823 59.8825 14.7411 55.8047 14.9058C55.2461 14.4941 57.6481 14.3294 59.3239 14.1647C56.6985 14 56.5867 14.3294 52.5648 14.4941C52.3413 14.0823 55.3019 14.3294 55.7488 13.8353L51.28 14.3294V14.247C50.6655 14.9882 47.8725 14.4941 45.1353 14.9058C41.8955 15.2353 39.9962 15.647 38.5438 16.0588C37.0356 16.4706 35.9184 16.9647 34.1309 17.3764C33.1812 17.2941 32.8461 17.1294 33.293 16.8823C34.9129 17.047 34.5778 16.8823 35.1364 16.6353C32.9578 16.8823 30.3324 16.3059 31.5613 15.9765C28.098 16.4706 32.8461 16.2235 30.7234 16.6353L25.9753 16.9647C26.5339 17.2941 28.2097 17.2117 25.7518 17.7059C23.685 17.9529 22.6795 18.0353 19.9424 18.2C20.3334 17.9529 19.0486 17.7059 21.1154 17.5411C19.7748 17.5411 17.7638 17.7059 16.9818 18.1176C19.9424 18.1176 12.1219 18.8588 14.3563 19.2706H11.3957C12.0661 19.1882 12.1219 18.9412 13.1274 18.9412C12.2336 18.447 10.7254 19.3529 9.66404 19.5176C8.60269 19.5176 5.86553 19.8471 5.64208 19.6824C5.1952 19.8471 4.35732 19.9294 3.57528 20.0941C3.18426 20.1765 2.79321 20.1765 2.29046 20.3412C2.2346 20.3412 2.1229 20.4235 2.06704 20.4235C1.95532 20.5058 1.84358 20.5059 1.73186 20.5882C1.73186 20.5882 1.5643 20.6706 1.50844 20.7529C1.39672 20.8353 1.34086 20.9176 1.22914 21C1.06156 21.1647 0.893969 21.4118 0.838109 21.5765C0.726388 21.7412 0.670528 21.9882 0.558807 22.1529C0.558807 22.1529 0.50294 22.4 0.44708 22.5647C0.391219 22.7294 0.391213 22.9764 0.335352 23.1411C0.279492 23.5529 0.279492 23.9647 0.335352 24.2941C0.391213 24.7059 0.558821 25.2823 0.782262 25.6941C0.893983 25.9412 1.00568 26.1059 1.17326 26.2706C1.22912 26.3529 1.28499 26.4353 1.39671 26.5176L1.50844 26.6C1.73188 26.7647 1.95533 26.9294 2.17877 27.0117C2.34635 27.0941 2.29048 27.0941 2.34634 27.0941H2.45807C2.51393 27.0941 2.62563 27.0941 2.68149 27.0941C2.79321 27.0941 2.96082 27.0941 3.01668 27.0941C3.4077 27.0118 3.51941 26.9294 3.63113 26.9294C3.74285 26.847 3.79872 26.847 3.85458 26.847C3.91044 26.7647 3.91044 26.7647 3.85458 26.6824C3.74286 26.6 3.51939 26.6 3.68697 26.4353L3.96627 26.3529C4.02213 26.3529 4.07802 26.3529 4.13388 26.3529L8.21168 26.0235C8.49098 26.2705 8.93787 27.0941 8.21168 27.2588C9.99921 26.847 8.82615 26.2706 11.5633 26.1059C10.0551 26.847 15.1942 26.1882 12.9598 27.0941C14.5239 27.3412 18.9369 26.847 21.3947 26.4353C22.9029 25.7764 18.7693 26.4353 18.881 25.9412C25.696 25.0353 26.087 23.6353 31.1144 23.3882H29.8296C32.9578 22.8118 32.6226 22.8941 34.4102 22.3176C33.5723 22.9764 38.0411 23.5529 43.1802 22.8941C43.6271 22.5647 40.2755 22.647 41.1134 22.0706L44.5209 21.6588C44.7443 21.6588 44.4092 21.8235 43.9623 21.9058C47.0346 21.4117 49.7159 22.0706 50.5538 21.3294L53.682 21.9058L52.4531 21.6588C52.8441 21.3294 56.3074 20.9176 57.0336 20.7529C60.5528 20.0941 61.8376 20.1764 63.7368 20.4235C63.1224 20.2588 61.5583 19.847 64.3513 19.4353C64.3513 20.4235 70.1608 19.1882 70.1049 19.6824C71.2221 19.6 73.2331 19.6824 73.3448 19.2706L73.1772 19.847C73.4007 18.9411 77.4785 18.6117 80.6067 18.2C79.9363 19.3529 84.0142 17.7882 85.4665 18.6941C86.0251 17.8706 90.9967 17.9529 91.4994 17.2118C93.9014 16.9647 93.678 17.7059 94.2924 17.8706L95.4097 17.4588C96.6386 17.7059 101.163 17.3765 103.845 17.4588L106.302 16.5529L107.252 16.8C107.643 16.6353 109.71 16.3059 108.425 16.2235L109.766 16.1411C109.877 15.4 111.665 15.8117 114.346 15.3176C114.961 15.4 114.793 15.5647 114.235 15.7294C115.575 15.647 115.017 16.0588 115.743 16.2235C114.793 16.1412 120.547 14.5764 116.916 14.4941C116.637 14.247 118.759 13.8353 120.1 13.8353L120.938 14.4117L122.502 13.5882C124.569 13.3412 125.463 13.7529 127.138 13.6705C125.407 13.8353 123.34 15.2353 127.809 14.9058C125.463 15.1529 124.345 15.5647 123.172 15.8118C124.066 15.8118 124.569 15.8118 123.116 16.2235C126.58 15.8118 124.234 15.7294 127.697 15.4C127.529 15.9765 128.479 16.1411 131.495 16.1411L129.261 15.8118C129.373 15.7294 129.54 15.647 129.708 15.647C128.87 15.647 128.591 15.5647 128.423 15.3176C129.093 15.2353 132.389 14.3294 132.948 14.6588C129.484 13.9176 138.925 13.5882 136.746 13.1764C137.137 13.0117 139.539 12.8471 139.763 13.0941C136.914 13.6706 141.941 13.6705 141.494 14.0823C142.556 13.8353 139.204 13.7529 140.657 13.4235C142.388 13.2588 143.617 13.5882 144.567 13.7529L143.841 13.9176L146.466 14.0823C146.913 13.7529 143.896 13.7529 146.354 13.4235C146.969 13.5058 149.427 13.2588 149.371 13.5059C148.198 14 149.091 14.4941 147.025 14.6588C148.756 14.5764 154.231 14.247 151.996 13.7529L154.063 13.6705C152.778 13.5058 149.147 13.1765 153.281 12.9294L153.225 13.0117L156.074 12.4353L157.303 12.6824C157.247 12.5176 157.694 12.3529 158.755 12.3529C159.035 12.5176 160.04 12.5176 159.984 12.7647C163.057 12.6 162.833 12.3529 163.224 12.1882C164.956 12.1059 165.57 12.1882 164.788 12.6C167.134 12.6 171.268 12.4353 172.888 12.6824C176.016 12.3529 172.218 12.6 174.061 12.1059C176.798 13.0941 184.507 12.3529 189.646 12.2706C188.25 11.3647 191.043 12.1882 191.992 11.3647C190.875 11.6117 196.852 12.1059 192.383 12.3529L195.12 12.2706C197.02 12.7647 190.596 12.6 193.389 13.3412C196.461 13.3412 198.472 12.3529 202.103 12.7647C200.874 13.3412 204.896 12.6 204.002 13.3412C203.22 13.5882 202.215 13.4235 201.209 13.5059L201.824 13.6705C208.583 14 203.779 12.9294 207.298 12.6C211.432 12.6 210.538 13.2588 210.761 13.5059C211.376 13.6706 213.443 13.6706 214.56 13.5059C212.046 13.8353 209.923 12.9294 211.096 12.5176C212.884 13.3412 217.185 12.847 218.302 12.6C212.437 11.6117 214.225 12.3529 208.75 11.3647C207.968 11.6117 208.08 12.2706 204.784 11.8588C206.851 11.6118 204.673 11.5294 204.058 11.3647C204.673 11.7764 201.768 11.447 200.762 11.6117C199.869 11.2823 202.773 10.7882 199.422 10.5411L198.807 11.4471C197.467 11.2824 199.366 10.7882 196.573 10.9529C198.081 10.5411 196.126 10.2117 199.924 10.1294C195.4 9.30585 192.998 10.4588 189.478 10.7882C189.814 10.7058 189.87 10.6235 190.205 10.5411C189.478 10.7882 188.082 10.7882 187.077 10.7882C184.73 10.6235 188.92 10.3764 188.305 10.1294H184.563C184.507 10.1294 184.451 10.047 184.451 10.047C183.446 10.1294 182.496 10.2118 182.161 10.047C183.278 9.71764 183.725 9.47058 184.451 9.22352L180.485 9.88233C180.932 9.55292 177.245 9.38819 180.038 9.14113L174.173 9.30585L173.67 8.72937C172.274 8.89408 172.218 8.97645 173.893 9.0588C171.882 8.97645 165.068 10.2941 166.073 9.14113C161.492 9.79996 159.817 9.63526 154.286 10.1294C158.532 9.3882 149.371 9.63528 153.895 9.22352C151.214 9.05881 150.711 9.7176 148.645 9.96466C146.689 9.79996 147.527 9.14114 149.65 8.89409L147.192 9.30585L147.248 9.22352L145.07 9.63528C142.779 9.47058 144.567 9.05878 142.221 9.14113L141.718 9.71762L140.098 9.47057C140.712 9.71762 139.316 9.88231 137.584 9.96466L137.64 9.88233L135.573 10.1294C137.64 9.71762 133.674 10.1294 134.624 9.71762C132.836 9.79997 132.78 9.79997 129.596 10.1294L130.155 10.4588C125.965 11.0353 129.987 9.96467 126.58 10.1294L126.803 10.5411C121.887 10.1294 118.536 11.5294 114.905 11.2823C116.972 11.0353 116.413 10.6235 116.413 10.7059C113.285 11.0353 108.202 11.3647 105.018 12.1059C103.845 11.6118 103.509 11.4471 100.214 11.4471C97.8117 11.6941 97.4765 11.7764 96.6944 12.1882C94.3483 12.1059 89.9912 12.847 89.8795 12.4353C89.3768 12.847 87.7568 12.5176 86.5279 12.9294L86.2486 12.7647L86.472 13.1764C82.2825 12.6 79.4895 14.3294 75.2999 13.8353L76.0261 13.6705L74.2945 14C74.0152 13.8353 74.7413 13.6706 74.7972 13.4235L66.6416 14.1647L68.2615 14.3294C66.5299 14.5765 65.4127 15.0706 63.4575 14.9882C66.6974 14.0823 60.7204 15.2353 60.2176 14.8235L61.9493 14.4941C59.5473 14.7411 59.5473 14.7412 59.7708 15.1529C56.6984 15.5647 57.5922 14.5764 54.7433 15.3176L56.7543 15.1529C57.3688 15.3176 55.9164 15.8118 54.5758 15.9765C54.2406 15.9765 53.291 15.8117 54.2965 15.7294C51.8386 16.1411 48.2077 16.3058 47.1463 16.5529C45.8057 16.5529 46.2526 16.2235 46.9229 16.0588C41.7279 16.9647 44.5768 16.2235 39.3259 17.1294L39.3817 16.8823L37.5942 17.3764L35.0246 17.1294L35.9743 17.3764C34.2426 17.6235 33.1812 17.8706 31.1703 17.9529L31.9523 17.5411C27.1483 18.2 26.3104 17.5412 21.7857 18.5294C21.4506 18.5294 22.1768 18.2823 22.5678 18.2C18.3224 19.1882 19.3279 17.9529 15.0825 19.1059C15.3618 18.9412 14.8591 18.8588 15.0266 18.7764L13.0715 19.1882L13.1832 18.6941L11.6191 19.6L10.3902 19.1882L9.66404 19.5176C8.88199 19.2706 8.0441 19.1882 7.09447 19.2706C6.14485 19.3529 5.13935 19.4353 4.078 19.4353C3.91042 19.4353 3.74285 19.4353 3.63113 19.5176L3.18425 19.6H2.90495H2.84907C2.84907 19.6 2.84907 19.5176 2.84907 19.7647L2.90495 20.5882L2.96079 21.247L3.01668 22.4823C3.01668 22.647 3.01668 22.8118 3.01668 22.9765C3.01668 23.1412 3.01668 23.2235 3.01668 23.3058C3.01668 23.3882 3.01666 23.5529 2.96079 23.6353C2.96079 23.7176 2.96081 23.8 2.90495 23.8C2.84909 23.8824 2.90493 23.8823 2.84907 23.8823H2.90495C2.90495 23.8823 3.01666 23.9647 3.07252 23.9647L3.12837 24.047L3.18425 24.1294C2.68151 23.4706 3.01667 23.9647 2.90495 23.8C2.96081 23.8824 3.01668 23.9647 3.01668 24.047C3.07254 24.1294 3.01665 24.2117 3.12837 24.3764C3.35181 25.0353 3.40768 25.447 3.63113 26.4353C3.74285 26.847 3.79872 27.3412 3.85458 27.7529V27.9176H3.91043H4.13388C3.9663 27.7529 3.85456 27.5882 3.7987 27.4235C3.85456 27.3411 4.02213 27.2588 4.24558 27.1764C4.41316 27.0941 4.63662 27.0118 4.86006 26.9294C5.30694 26.7647 5.75381 26.6823 6.20069 26.6C7.15031 26.4353 8.09995 26.2706 9.10543 26.1059C11.1164 25.8588 13.1832 25.7765 15.3618 25.6941C19.663 25.5294 24.1319 25.447 28.489 24.7882L28.3773 25.2823L31.9523 24.4588C33.9074 24.7059 30.8351 24.9529 31.3937 25.1176C35.1922 24.5412 32.9578 24.2941 37.4266 23.8C39.7169 23.9647 36.6446 24.2118 35.5832 24.4588C37.6501 24.2118 40.2755 23.8823 42.7334 23.5529C45.1354 23.3058 47.4256 23.0588 48.9338 23.0588C48.9897 22.9764 49.1573 22.8941 49.0456 22.8941C51.8386 22.4 55.5254 22.3176 58.5977 22.0706C58.5419 22.3176 57.7598 22.4 57.0336 22.4823C58.1508 22.4 59.659 22.4823 60.6087 22.1529L59.4915 22.647C61.8376 22.5647 66.3623 21.8235 66.9209 22.2353C66.6416 22.0706 66.7533 21.7412 68.7643 21.5765C69.9373 22.2353 74.2945 20.8353 77.5902 21.0823C77.1992 21.247 74.7972 21.4941 75.4675 21.4117C77.0875 21.4941 78.5957 21.0823 79.9922 20.7529L79.5453 21.0823L87.1423 20.1764C88.3154 20.8353 94.3483 19.6823 93.8456 20.1764C96.5827 20.0117 91.5553 20.0118 95.0186 19.6824C95.9683 19.9294 98.1468 19.3529 97.9793 19.847L97.5882 19.9294L99.9902 19.7647L98.482 20.3412C100.549 20.0941 102.057 19.6 102.169 19.1882C104.124 19.3529 106.917 19.0235 107.811 19.3529L107.084 19.5176C112.615 19.0235 116.246 20.3412 120.547 19.3529C120.882 19.4353 120.826 19.5176 120.156 19.5176L123.563 19.4353L122.781 19.847L128.423 19.1059L128.367 19.3529C132.11 19.2706 137.919 18.9412 142.723 18.6941L141.997 18.8588C147.192 18.2824 147.025 18.9412 150.879 18.5294C150.767 18.6117 150.6 18.6117 150.488 18.6117L153.951 18.5294L153.169 18.7764C155.683 18.2 160.487 19.1882 158.867 18.8588C160.319 18.6118 162.777 18.2823 163.224 17.9529C166.967 17.7882 164.174 18.2 166.464 18.3647C169.201 18.2823 169.648 17.8706 173.335 17.9529L173.279 18.2C175.011 18.1176 176.072 17.8705 178.474 17.7882L177.748 17.9529C181.658 17.2941 182.664 18.5294 185.68 17.3764C187.3 17.5411 190.428 17.2117 190.316 17.7059C195.176 17.2117 198.975 16.8823 203.835 16.3059C204.617 17.047 204.896 16.1412 207.857 16.3882L207.633 15.9765C209.365 15.8118 211.152 15.7294 212.996 15.647C213.889 15.647 214.839 15.5647 215.789 15.5647C216.347 15.5647 217.353 15.647 218.47 15.647C218.749 15.647 219.084 15.6471 219.42 15.5647C219.587 15.5647 219.811 15.4823 220.034 15.4823C220.258 15.4 220.593 15.3176 221.04 15.0706C221.151 14.9882 221.319 14.9059 221.431 14.8235C221.654 14.6588 221.822 14.4941 221.989 14.3294C222.101 14.1647 222.268 14 222.38 13.8353L222.548 13.5882L222.66 13.4235L222.771 13.2588C223.106 12.6823 223.386 12.1059 223.553 11.1176C223.777 10.2117 223.777 9.3882 223.721 8.48232C223.665 7.9882 223.609 7.82349 223.553 7.49408C223.497 7.24702 223.442 6.9176 223.33 6.67055C223.218 6.25878 223.106 6.01176 222.939 5.68235C222.883 5.51765 222.827 5.43527 222.771 5.35292L222.604 5.10587C222.38 4.77646 222.213 4.5294 221.989 4.28234C221.766 3.95293 221.598 3.87057 221.486 3.70586C221.151 3.37645 220.928 3.21175 220.649 3.04705C220.425 2.88234 220.202 2.79997 220.034 2.71762L219.476 2.47057L218.973 2.30585L218.526 2.14113C217.967 1.97643 217.409 1.81174 216.85 1.64704C214.727 1.15292 212.772 0.988214 210.817 0.823508L210.594 0.411743L209.03 0.823508C200.706 0.247037 190.149 0.411763 183.669 0.741175C182.608 0.905881 181.267 1.1529 179.759 1.31761C178.251 1.56466 176.686 1.64704 175.011 1.64704L175.346 1.5647C169.48 1.97647 163.28 2.38823 156.856 2.38823C157.247 2.22353 156.633 2.05882 157.303 1.97647C155.795 2.47059 153.56 2.14116 152.164 2.22352L153.784 2.47057C151.996 2.96468 149.371 2.71763 148.421 2.47057L145.572 3.04705C145.405 3.04705 145.07 2.96468 145.07 2.88233L144.567 3.12938L143.003 2.63528C142.276 2.79999 138.478 3.12937 137.305 3.78819C137.026 3.62349 134.344 3.62349 136.411 3.37643L125.909 3.95291L127.529 4.03529C127.753 4.44706 124.569 4.94117 122.949 4.85882C125.071 4.3647 123.116 4.28235 122.167 4.03529C120.77 4.3647 123.396 4.28231 122.669 4.61172C120.882 5.02349 117.083 5.43527 116.134 5.35292L117.195 5.10587C114.737 5.43528 113.62 4.77643 111.218 5.02349C109.095 5.51761 107.476 5.35291 107.922 6.01173C104.794 6.4235 106.693 5.59997 105.688 5.59997C104.236 6.09409 99.8785 6.25881 99.264 5.9294C97.5882 7.16469 90.8291 6.34114 90.2705 7.24703L87.7009 6.99998C87.6451 7.24704 87.1423 7.82353 85.0755 8.15294C83.1204 8.07059 83.5673 7.6588 82.9528 7.41174L81.668 8.39999C78.8192 8.39999 75.8027 8.64705 72.6186 8.81175C71.0546 8.97646 69.4346 9.05881 67.7588 9.22352C66.9209 9.30587 66.1389 9.38821 65.301 9.47057C64.5189 9.55292 63.681 9.55293 62.8989 9.63528C56.4191 10.047 49.5483 9.79996 43.1802 9.96466C40.3314 10.2941 37.0915 10.7882 33.7399 11.6941C32.0641 12.1059 30.3324 12.6823 28.6007 13.3412C27.7069 13.6706 26.869 14.0823 25.9753 14.4941C25.8635 14.5764 25.8077 14.5764 25.3608 14.8235C25.3608 14.8235 24.9698 15.0705 24.6905 15.3176L24.6346 15.4C24.5229 15.4823 24.467 15.5647 24.3553 15.7294C24.1877 15.9764 24.0202 16.2235 23.8526 16.4706C23.685 16.7176 23.5733 17.047 23.4615 17.2941C23.4057 17.4588 23.3498 17.6235 23.294 17.7059C23.2381 17.8706 23.0147 18.6118 22.9588 19.2706C22.9029 20.0118 22.9029 20.8353 23.0705 21.6588C23.2381 22.4823 23.4615 23.1411 23.7408 23.7176C24.0202 24.2941 24.3553 24.6235 24.3553 24.6235C24.4112 24.7059 24.5229 24.7882 24.5788 24.8706C24.9139 25.2 25.305 25.447 25.6401 25.6941C25.696 25.6941 25.8636 25.7764 25.9194 25.7764H25.9753H26.087L26.3104 25.8588H26.5339H26.6456C26.7573 25.8588 26.9249 25.8588 26.9807 25.8588C27.26 25.8588 27.4276 25.8588 27.5393 25.8588L27.9304 25.7764C28.3773 25.6941 28.8241 25.6941 29.2152 25.6117L28.489 25.8588L30.1089 25.6117C30.6675 25.5294 31.1144 25.4471 31.5613 25.4471L34.7453 25.2L32.3992 25.2823H31.282C31.0027 25.2823 30.6117 25.2823 30.2206 25.3647C30.5558 25.2823 30.8351 25.2 31.1144 25.1176C31.3379 25.0353 31.673 24.9529 31.9523 24.9529C32.5668 24.8706 33.1812 24.7059 33.8516 24.6235C40.89 24.2118 50.2186 23.7176 58.8211 22.4C64.3513 20.8353 62.5638 22.8941 67.8705 21.6588C67.4236 21.8235 67.2561 21.9882 66.865 22.0706C72.6187 21.1647 75.7468 20.6706 81.4446 19.6824C80.8301 20.7529 85.1872 19.3529 84.6845 19.9294L85.1314 19.5176C86.4162 19.6823 89.4326 19.6 89.0416 19.9294L91.5553 19.2706L91.7787 19.6824C95.1304 19.5176 102.392 18.7765 104.18 19.5176C112.503 18.447 125.742 18.1176 136.244 17.9529C137.696 17.5411 140.768 17.4588 143.17 17.3764L145.74 17.7882C148.198 17.5411 150.767 16.8823 153.058 17.1294C153.058 17.2117 152.946 17.2117 152.778 17.2941C155.236 17.1294 157.638 17.3765 159.928 16.8C162.666 16.8 165.291 16.9647 164.453 17.4588C164.732 16.6353 170.207 17.4588 170.207 17.4588C170.207 17.4588 178.921 17.3764 192.551 17.2941C195.958 17.2941 199.645 17.2941 203.667 17.1294C205.678 17.047 207.745 17.047 209.812 16.9647C210.817 16.9647 211.878 16.8823 212.94 16.8823C213.498 16.8823 214.057 16.8824 214.672 16.8H215.174L215.509 16.7176L215.789 16.6353L216.012 16.5529C216.124 16.5529 216.18 16.5529 216.347 16.4706C216.85 16.2235 216.291 16.7176 217.688 15.647C219.643 18.447 220.481 1.64704 218.023 4.11763C216.627 2.88233 217.241 3.54114 216.682 3.12938C216.403 3.04703 216.459 3.04702 216.347 2.96466C216.124 2.88231 216.068 2.88233 215.956 2.88233C215.845 2.88233 215.845 2.88235 215.789 2.8L215.342 2.71762C214.169 2.47056 212.94 2.22353 211.767 1.97647C210.594 1.81176 209.421 1.72941 208.192 1.5647C207.577 1.48235 206.963 1.39999 206.404 1.39999C205.79 1.39999 205.231 1.31761 204.617 1.31761C203.444 1.31761 202.215 1.23527 200.986 1.23527C198.584 1.31763 196.126 1.23528 193.668 1.39999C192.439 1.48234 191.21 1.5647 189.981 1.5647C188.752 1.64706 187.523 1.72938 186.294 1.89409C176.407 2.71762 166.352 4.19998 156.521 5.76468C146.745 7.32939 137.137 9.0588 128.367 10.2941C123.954 10.8706 119.653 11.447 115.631 11.9412C111.609 12.4353 107.755 13.0118 104.236 13.5059C102.504 13.7529 100.772 14 99.2082 14.3294C97.6441 14.5765 96.1358 14.8235 94.7393 15.0706C91.8904 15.4 89.265 15.7294 87.1423 16.1411C86.0251 16.5529 82.7294 17.2117 84.0142 17.5411C82.7294 17.7882 81.8356 17.7882 80.9418 17.9529C80.6625 18.0353 80.495 18.1176 80.2715 18.2C80.1039 18.2823 79.9363 18.447 80.0481 18.5294C80.2156 18.6117 80.4391 18.5294 80.6067 18.6941C80.3274 18.6941 80.1598 18.7765 80.0481 18.6941C79.9922 18.6118 80.1039 18.5294 80.2156 18.5294C80.2715 18.447 80.3832 18.4471 80.4391 18.4471C80.7184 18.3647 80.9418 18.3647 80.9977 18.3647C81.1653 18.447 80.9977 18.6118 80.8301 18.8588C80.6625 19.1059 80.5508 19.3529 80.7184 19.3529C80.7743 19.4353 80.9418 19.3529 81.2212 19.3529C81.4446 19.3529 81.7797 19.3529 82.2266 19.2706C81.8356 19.3529 81.5004 19.4353 81.1094 19.6C80.886 19.6823 80.7184 19.7647 80.5508 20.0117C80.495 20.1764 80.5508 20.2588 80.6625 20.2588C80.7184 20.3411 80.8301 20.3412 80.9418 20.3412C81.0536 20.4235 80.9418 20.4235 80.7184 20.3412C80.6625 20.3412 80.6067 20.2588 80.6067 20.1764C80.6067 20.0941 80.7184 20.0118 80.7742 19.9294C80.9418 19.7647 81.1653 19.6823 81.3328 19.6C82.1149 19.2706 82.7852 19.1882 82.5618 19.5176L83.1204 18.6941C84.8521 18.6118 85.8017 18.6941 86.4162 18.9412C87.9802 18.5294 88.9857 17.4588 92.8401 17.7882L91.7787 17.8706C94.8511 17.7882 93.678 18.2824 94.3483 18.4471H93.678L94.9628 18.6117H95.2979C95.4097 18.6117 95.4655 18.6117 95.5772 18.6117H96.2476C96.0241 18.6117 95.7448 18.6117 95.4655 18.6117C95.1862 18.6117 94.9069 18.6117 94.6835 18.6117C94.1249 18.6117 93.5663 18.6941 93.1752 18.7764C92.3373 18.9411 91.9463 19.1058 92.7842 19.0235C96.471 19.1058 91.8346 18.8588 94.5718 18.6941C95.0186 18.6941 95.298 18.6941 95.4655 18.6941C95.689 18.6941 95.7448 18.7764 95.8007 18.7764C95.9124 18.8588 95.7448 19.1059 95.7448 19.1882L98.8172 18.8588C98.7054 19.1882 96.8062 19.0235 98.0351 19.2706L101.889 18.5294C102.672 19.3529 106.079 17.7059 107.867 18.3647C105.073 18.8588 108.146 18.6117 107.699 18.9412L114.514 18.2C115.184 18.2823 112.726 18.6117 113.788 18.5294C115.073 18.6941 115.91 18.1176 116.581 18.0353C117.195 18.2 121.664 17.5412 121.496 18.1176C126.133 18.0353 123.396 17.2118 127.753 17.047C128.311 17.3765 124.345 17.4588 126.245 17.7059C127.753 17.5412 129.205 17.2941 130.713 17.047C130.322 17.2941 129.875 17.7059 128.2 17.8706C134.288 17.4588 138.981 17.2941 143.505 17.1294C148.03 16.9647 152.443 16.6353 157.973 15.5647C159.537 15.7294 156.856 16.0588 155.795 16.4706C163.727 14.7412 167.078 15.7294 173.838 14.8235L173.949 14.4941C176.351 14.4941 178.809 14.3294 181.379 14.1647C183.948 14 186.574 13.7529 189.255 13.5882C194.562 13.2588 200.092 12.9294 205.287 13.4235L204.058 13.0941C204.784 12.9294 205.734 12.847 206.683 12.847C207.633 12.847 208.639 12.9294 209.532 12.9294C209.756 13.1765 208.303 13.5059 211.264 13.7529C210.705 13.5059 209.421 13.2588 209.812 13.0941C210.929 13.2588 212.102 13.6706 213.443 14C213.778 14.0823 214.113 14.1647 214.448 14.247H214.56C214.56 14.247 214.616 14.247 214.56 14.247L214.672 13.3412L214.951 11.4471C215.007 11.2 215.007 10.9529 215.063 10.7059C215.118 10.4588 215.174 10.1294 215.174 10.047C215.23 9.88234 215.23 9.7176 215.286 9.5529C215.342 9.47055 215.286 9.47059 215.342 9.38823L215.398 9.30585C215.398 9.30585 215.342 9.22349 215.342 9.14113C215.286 8.97643 215.286 8.81174 215.23 8.64704C215.23 8.48233 215.174 8.23528 215.118 7.98822C215.063 7.74116 215.063 7.49409 215.063 7.24703C215.007 6.67056 214.951 6.01174 214.895 5.35292L214.839 4.85882L214.783 4.28234H214.727H214.504C213.778 4.28234 212.996 4.28234 212.158 4.28234C210.482 4.28234 208.639 4.28234 206.795 4.28234C204.952 4.28234 202.997 4.36467 201.042 4.36467C193.109 4.44703 184.451 4.52941 176.854 4.44706C156.297 5.10588 134.009 4.85881 113.788 5.9294C116.86 5.76469 115.575 6.67057 113.229 6.58821C106.861 5.35292 102.225 7.3294 95.689 6.75293C83.9024 7.90587 73.3448 7.41173 62.4521 9.71762L62.2286 9.30585C60.6087 9.30585 60.1618 9.63529 58.4301 9.8L58.486 9.71762C54.4082 9.96467 49.5483 10.8706 47.2022 10.8706L47.0905 11.3647C44.6885 11.6117 45.8057 11.1176 43.3478 11.6117L43.4037 11.3647L40.5548 12.1059C40.7782 11.2823 33.7957 12.7647 31.8406 12.6C31.4496 12.6823 31.0027 12.7647 30.4999 12.847C29.9413 12.9294 29.4386 13.0941 28.88 13.1764C28.3773 13.2588 27.8187 13.4235 27.3159 13.5059C27.2042 13.5059 27.0925 13.5882 26.9807 13.5882H26.869V13.9176V14.8235C26.869 15.3176 26.869 15.8117 26.869 16.3059V17.047C26.869 17.2118 26.869 17.4588 26.869 17.6235C26.869 18.4471 26.8132 19.0235 26.7573 19.2706C26.7015 19.3529 26.7014 19.3529 26.7014 19.3529C26.7573 19.3529 26.7573 19.4353 26.8132 19.5176C26.9249 19.6823 26.9808 19.9294 27.0366 20.1764C27.1483 20.5059 27.26 20.9176 27.3718 21.247L27.5393 21.8235L27.7069 22.5647C27.8186 23.0588 27.9304 23.5529 28.0421 24.047L28.0979 24.4588C28.0979 24.5412 28.1538 24.7882 28.1538 24.7059L28.5448 24.5411C30.6117 23.4706 33.0137 22.7294 35.2481 22.3176C35.4715 22.4 35.9742 22.3176 36.6446 22.2353C37.3149 22.1529 38.2087 22.0706 39.1583 21.9882C41.1134 21.8235 43.3478 21.6588 45.1912 21.6588C48.7104 21.3294 53.0117 21.247 57.6481 21.0823C59.9942 21 62.3962 20.9176 64.854 20.6705C67.2002 20.4235 69.6022 20.2588 71.8925 20.0117L71.7249 19.5176L74.1269 19.2706C74.071 19.3529 74.4062 19.4353 74.071 19.5176C75.9703 19.9294 79.5453 18.7764 81.5005 18.9412C80.2715 18.6117 79.8246 19.0235 78.484 19.1882C76.5289 19.1059 78.3723 18.4471 80.9977 18.4471L80.9418 18.5294L82.7294 18.0353C82.9528 18.4471 84.5728 18.4471 84.7962 18.8588C92.6166 18.0353 97.9234 16.8 106.023 16.3059C105.185 16.8 111.833 15.7294 110.213 16.6353C115.072 15.8941 109.375 16.0588 111.609 15.3176C112.95 15.2353 114.402 14.9059 114.626 15.1529C114.011 15.4 115.743 15.5647 114.626 15.7294L117.866 15.4C118.201 15.4 117.474 15.647 117.083 15.7294C123.675 14.7411 128.814 15.4 134.735 14.4941C135.182 14.1647 132.389 14.5764 132.78 14.247C138.757 13.2588 138.087 14.4117 143.617 13.6705L142.5 14.1647C144.287 13.7529 145.07 13.4235 148.03 13.5882C148.533 14.0823 145.516 14.0823 144.12 14.4117C146.131 14.3294 151.27 13.9176 149.706 13.5882C152.164 13.3412 153.058 13.6706 154.342 13.7529C154.398 13.6706 152.052 13.5058 153.504 13.2588C156.8 13.3411 161.939 13.0941 166.017 13.0117C165.961 13.0941 166.296 13.3412 165.905 13.3412C169.145 13.9176 168.81 14.9882 173.279 14.7412Z" fill="#72CBA6"/>
<path d="M64.0723 13.4235C64.2957 13.5058 64.6309 13.5058 64.966 13.5058C64.7426 13.4235 64.4633 13.4235 64.0723 13.4235Z" fill="#72CBA6"/>
<path d="M105.464 11.7764C106.47 11.7764 107.866 11.5294 108.648 11.2C107.643 11.2823 106.693 11.3647 105.464 11.7764Z" fill="#72CBA6"/>
<path d="M49.3809 23.3059C49.1574 23.3059 48.934 23.3059 48.7106 23.3059C48.5988 23.3883 48.6547 23.4706 49.3809 23.3059Z" fill="#72CBA6"/>
<path d="M152.722 18.0353C152.443 18.0353 152.164 18.0353 151.94 18.1176C152.276 18.0353 152.499 18.0353 152.722 18.0353Z" fill="#72CBA6"/>
<path d="M83.4558 17.9529C82.7296 18.1176 82.0593 18.2823 81.1655 18.6117C82.0593 18.3646 82.7296 18.1999 83.4558 17.9529Z" fill="#72CBA6"/>
<path d="M66.7534 22.8942C66.1948 22.9765 65.6362 23.0589 65.0776 23.1412C65.9155 23.0589 66.4183 22.9765 66.7534 22.8942Z" fill="#72CBA6"/>
<path d="M58.7654 23.1411C58.7095 23.1411 58.7095 23.1411 58.7654 23.1411C58.5978 23.1411 58.5419 23.2235 58.4302 23.2235L58.7654 23.1411Z" fill="#72CBA6"/>
<path d="M85.5781 20.0942H86.6395C86.5277 20.0118 86.416 20.0118 86.3043 19.9294C86.0809 20.0118 85.8016 20.0118 85.5781 20.0942Z" fill="#72CBA6"/>
<path d="M114.57 17.0471L113.676 17.1295C114.123 17.0471 114.402 17.0471 114.57 17.0471Z" fill="#72CBA6"/>
<path d="M134.344 15.4823C133.06 15.8941 130.322 15.647 130.378 15.9764C131.719 15.8941 133.73 15.9764 134.344 15.4823Z" fill="#72CBA6"/>
<path d="M144.79 3.37646L145.069 3.21179C144.846 3.29414 144.79 3.2941 144.79 3.37646Z" fill="#72CBA6"/>
<path d="M87.1423 17.2118C85.8017 17.2941 84.6845 17.6235 83.4556 17.9529C84.6845 17.6235 85.9134 17.4589 87.1423 17.2118Z" fill="#72CBA6"/>
<path d="M184.228 10.6235C184.451 10.6235 184.619 10.5411 184.842 10.5411C184.507 10.5411 184.228 10.5412 184.228 10.6235Z" fill="#72CBA6"/>
<path d="M186.127 10.3765C185.736 10.3765 185.289 10.4588 184.842 10.5412C185.401 10.5412 186.071 10.5412 186.127 10.3765Z" fill="#72CBA6"/>
<path d="M203.891 11.8589C203.835 11.8589 203.835 11.7765 203.779 11.7765C203.723 11.7765 203.779 11.8589 203.891 11.8589Z" fill="#72CBA6"/>
<path d="M158.42 13.5059L157.135 13.2588C157.135 13.3411 157.582 13.5059 158.42 13.5059Z" fill="#72CBA6"/>
<path d="M55.4136 22.9765C55.6929 22.8941 56.1956 22.8117 56.6984 22.7294C56.0839 22.7294 55.5812 22.8118 55.4136 22.9765Z" fill="#72CBA6"/>
<path d="M134.568 10.0471C134.512 10.0471 134.512 10.0471 134.456 10.1294C135.126 10.1294 136.076 10.0471 137.64 9.96472L134.568 10.0471Z" fill="#72CBA6"/>
<path d="M14.7476 18.7764L15.5855 18.6117C15.0269 18.6117 14.8034 18.6941 14.7476 18.7764Z" fill="#72CBA6"/>
<path d="M89.6562 12.7647C89.7124 12.6824 89.8246 12.6001 89.8246 12.5177C89.6562 12.6001 89.6562 12.6824 89.6562 12.7647Z" fill="#72CBA6"/>
</g>
<defs>
<clipPath id="clip0_1505_27787">
<rect width="224" height="28" fill="white"/>
</clipPath>
</defs>
</svg>
