<svg width="257" height="21" viewBox="0 0 257 21" fill="none" xmlns="http://www.w3.org/2000/svg">
<path d="M198.951 10.9401C200.686 10.8773 202.484 10.8143 204.348 10.7515C206.211 10.6886 208.074 10.5629 210.001 10.5C213.792 10.3114 217.711 10.1856 221.63 10.0599C229.467 9.80838 237.305 9.68264 243.858 10.1856C244.565 10.1228 245.336 10.0599 246.171 10.0599C247.006 10.0599 247.842 10.1227 248.612 10.2485C248.998 10.3114 249.383 10.3742 249.576 10.4371C249.64 10.4371 249.64 10.4371 249.64 10.4371C249.64 10.5 249.705 10.3114 249.705 10.2485L249.769 9.99701C249.833 9.87127 249.897 9.68264 249.962 9.55689C250.026 9.43114 250.09 9.24251 250.154 9.11676L250.283 8.92814L250.347 8.73953C250.476 8.48803 250.604 8.29941 250.733 8.11079C250.861 7.92216 250.925 7.79641 251.118 7.67066L251.182 7.60776C251.054 7.73351 251.503 7.29341 250.861 7.85928C250.925 7.7964 250.925 7.73352 250.989 7.73352C251.054 7.67065 251.246 7.54492 251.311 7.48205C251.375 7.41917 251.503 7.35629 251.568 7.35629C251.632 7.29342 251.696 7.29339 251.76 7.29339C251.825 7.29339 251.825 7.29341 251.76 7.23053L251.632 7.10478C251.568 7.0419 251.503 6.91618 251.439 6.8533C251.182 6.41318 250.99 5.72156 250.797 4.84132C250.733 4.58982 250.668 4.3383 250.668 4.14968L250.604 3.77245V3.58384C250.604 3.58384 250.604 3.58384 250.54 3.58384C250.476 3.58384 250.411 3.58384 250.347 3.58384C250.026 3.64671 249.512 3.6467 248.998 3.6467L248.548 3.01795L247.52 3.08085L246.878 3.14371L246.364 3.20657L244.565 3.39522C243.087 3.26947 247.328 3.1437 244.694 3.01795L243.344 3.45808C243.023 3.26946 234.093 3.77244 240.132 3.01795C235.506 3.26945 230.881 3.52095 226.191 3.6467C223.107 3.70957 224.392 4.21258 220.923 4.21258C220.216 4.02396 222.143 4.02393 221.887 3.83531C211.543 3.64669 210.001 5.40718 200.3 5.34431L201.135 5.21855C199.465 5.40717 196.381 5.47005 196.317 5.53292C197.602 6.16166 198.052 5.15569 201.007 5.47006C200.75 6.03593 197.345 5.84732 197.538 6.22456C195.289 6.09881 193.94 6.41316 191.948 6.47604C188.608 6.22454 183.789 6.53891 181.219 6.16166C179.549 6.35029 177.75 6.91617 174.217 7.04192C171.647 6.66467 174.795 6.60181 171.326 6.53893L170.747 6.8533C167.921 6.8533 168.37 6.79041 168.435 6.60179C165.415 6.66467 165.929 7.10477 162.139 6.97902L164.259 6.60179C161.432 6.79041 160.275 6.72756 156.421 6.8533C156.485 6.66468 158.091 6.66465 159.248 6.66465C157.127 6.22453 155.586 6.97904 154.493 6.91616C154.815 7.04191 157.513 7.04192 156.228 7.35629C154.301 7.35629 152.116 7.85928 150.703 7.5449L152.823 7.16767C148.776 7.54492 150.639 7.60776 146.013 7.60776C146.27 7.60776 146.142 7.48202 146.27 7.41915C143.315 7.92214 139.46 7.67065 135.156 7.73352L135.991 7.60776C134.256 7.79639 133.293 8.04791 132.329 8.11079C134.834 8.23654 134.128 8.36228 134.385 8.61377C131.108 8.17365 129.374 9.36826 124.041 9.24252C124.105 9.05389 125.39 8.8024 126.868 8.92814C128.667 8.36228 128.86 7.85928 132.136 7.5449C130.145 7.73353 127.703 7.85926 128.217 7.60776L127.575 8.11079C126.354 8.17366 125.39 8.17365 124.427 8.17365C123.913 8.48802 126.932 8.61377 124.105 8.92814C120.893 9.17964 122.371 8.48803 121.921 8.73953C117.488 9.0539 120.122 9.30537 115.882 9.30537C116.332 9.2425 117.103 9.11674 117.488 9.17962C114.404 9.05387 110.036 9.55687 109.072 8.991C109.522 8.86526 109.586 8.67663 110.743 8.67663L110.678 8.73953C114.019 8.17366 107.916 8.92813 108.944 8.36226C109.201 8.67663 104.896 8.73951 102.969 8.80239L103.611 9.11676C97.251 10.4371 103.933 8.36228 97.5723 8.73953C93.5248 9.17965 99.1141 8.80239 96.6086 9.11676C93.9103 9.17963 92.8181 8.86525 88.8992 9.17962C87.807 9.05387 85.4942 8.991 85.3014 8.55088C82.8601 8.80237 77.9133 8.67663 76.5641 9.17962C80.74 9.30537 80.6758 8.55088 85.5584 8.86525L84.2092 9.30537C80.8685 9.43112 76.5641 9.80836 74.2513 9.80836C74.701 9.87123 74.958 9.93412 74.6367 10.0599C69.8826 10.4371 68.5335 10.9401 63.8436 11.0658C63.2011 10.7515 65.9637 10.6257 67.891 10.5C64.8715 10.3743 64.743 10.6257 60.1173 10.7515C59.8604 10.4371 63.2654 10.6257 63.7793 10.2485L58.6397 10.6258V10.5629C57.933 11.1287 54.7208 10.7515 51.5728 11.0658C47.8465 11.3173 45.6622 11.6317 43.9918 11.9461C42.2572 12.2605 40.9723 12.6377 38.9165 12.9521C37.8243 12.8892 37.4388 12.7635 37.9528 12.5748C39.8159 12.7006 39.4305 12.5748 40.0729 12.3862C37.5673 12.5748 34.5478 12.1347 35.9612 11.8832C31.978 12.2605 37.4388 12.0719 34.9975 12.3862L29.5367 12.6377C30.1791 12.8892 32.1065 12.8263 29.2797 13.2036C26.9026 13.3922 25.7462 13.4551 22.5982 13.5808C23.0479 13.3922 21.5703 13.2036 23.9474 13.0778C22.4055 13.0778 20.0927 13.2036 19.1933 13.518C22.5982 13.518 13.6039 14.0838 16.1737 14.3982H12.7687C13.5397 14.3353 13.6039 14.1467 14.7603 14.1467C13.7324 13.7695 11.9978 14.4611 10.7771 14.5868C9.55647 14.5868 6.40845 14.8383 6.15147 14.7126C5.63751 14.8383 4.67386 14.9012 3.77443 15.0269C3.32471 15.0898 2.87497 15.0898 2.29676 15.2156C2.23252 15.2156 2.10405 15.2784 2.03981 15.2784C1.91131 15.3413 1.7828 15.3413 1.65431 15.4042C1.65431 15.4042 1.4616 15.4671 1.39735 15.5299C1.26886 15.5928 1.20462 15.6557 1.07613 15.7186C0.883393 15.8443 0.69065 16.0329 0.626405 16.1587C0.497915 16.2844 0.43367 16.4731 0.30518 16.5988C0.30518 16.5988 0.240927 16.7874 0.176682 16.9132C0.112437 17.0389 0.112429 17.2275 0.0481838 17.3533C-0.0160613 17.6676 -0.0160613 17.982 0.0481838 18.2335C0.112429 18.5479 0.305196 18.988 0.562176 19.3024C0.690666 19.491 0.819125 19.6168 1.01186 19.7425C1.07611 19.8054 1.14037 19.8683 1.26886 19.9311L1.39735 19.994C1.65433 20.1197 1.91132 20.2455 2.1683 20.3084C2.36104 20.3712 2.29679 20.3713 2.36103 20.3713H2.48953C2.55377 20.3713 2.68224 20.3713 2.74649 20.3713C2.87498 20.3713 3.06773 20.3713 3.13198 20.3713C3.58169 20.3084 3.71017 20.2455 3.83866 20.2455C3.96715 20.1826 4.03141 20.1826 4.09566 20.1826C4.1599 20.1197 4.1599 20.1198 4.09566 20.0569C3.96717 19.994 3.71015 19.994 3.90289 19.8682L4.22411 19.8054C4.28836 19.8054 4.35264 19.8054 4.41688 19.8054L9.10676 19.5539C9.42799 19.7425 9.94195 20.3712 9.10676 20.497C11.1626 20.1826 9.81346 19.7425 12.9615 19.6168C11.2269 20.1826 17.1374 19.6796 14.5676 20.3713C16.3665 20.5599 21.4418 20.1826 24.2686 19.8682C26.0032 19.3652 21.2491 19.8682 21.3776 19.491C29.2155 18.7994 29.6652 17.7305 35.4473 17.5419H33.9696C37.5673 17.1018 37.1818 17.1646 39.2377 16.7245C38.274 17.2275 43.4136 17.6676 49.3242 17.1646C49.8381 16.9132 45.9834 16.976 46.9471 16.5359L50.8661 16.2215C51.1231 16.2215 50.7376 16.3473 50.2236 16.4102C53.7571 16.0329 56.8409 16.5359 57.8045 15.9701L61.4022 16.4102L59.9889 16.2215C60.4386 15.97 64.4218 15.6557 65.2569 15.5299C69.3044 15.0269 70.782 15.0898 72.9664 15.2784C72.2597 15.1527 70.4608 14.8383 73.6731 14.5239C73.6731 15.2784 80.3546 14.3353 80.2903 14.7126C81.5752 14.6497 83.888 14.7126 84.0165 14.3982L83.8238 14.8383C84.0808 14.1467 88.7707 13.8952 92.3684 13.5808C91.5974 14.4611 96.2873 13.2665 97.9577 13.9581C98.6002 13.3293 104.318 13.3922 104.896 12.8264C107.659 12.6377 107.402 13.2036 108.108 13.3293L109.393 13.015C110.807 13.2036 116.011 12.9521 119.094 13.015L121.921 12.3233L123.013 12.512C123.463 12.3862 125.84 12.1347 124.362 12.0719L125.904 12.009C126.033 11.4431 128.089 11.7575 131.172 11.3802C131.879 11.4431 131.686 11.5688 131.044 11.6946C132.586 11.6317 131.943 11.9461 132.779 12.0719C131.686 12.009 138.304 10.8143 134.128 10.7515C133.806 10.5629 136.248 10.2485 137.79 10.2485L138.753 10.6886L140.552 10.0599C142.929 9.87125 143.957 10.1856 145.885 10.1227C143.893 10.2485 141.516 11.3173 146.655 11.0658C143.957 11.2545 142.672 11.5689 141.323 11.7575C142.351 11.7575 142.929 11.7575 141.259 12.0719C145.242 11.7575 142.544 11.6946 146.527 11.4431C146.334 11.8832 147.426 12.009 150.896 12.009L148.326 11.7575C148.454 11.6946 148.647 11.6317 148.84 11.6317C147.876 11.6317 147.555 11.5688 147.362 11.3802C148.133 11.3173 151.924 10.6257 152.566 10.8772C148.583 10.3114 159.44 10.0599 156.935 9.7455C157.384 9.61975 160.147 9.49402 160.404 9.68264C157.127 10.1228 162.909 10.1227 162.396 10.4371C163.616 10.2485 159.761 10.1856 161.432 9.93412C163.423 9.80837 164.837 10.0599 165.929 10.1856L165.094 10.3114L168.113 10.4371C168.627 10.1856 165.158 10.1856 167.985 9.93412C168.692 9.99699 171.518 9.80839 171.454 9.99701C170.105 10.3743 171.133 10.7515 168.756 10.8772C170.747 10.8144 177.043 10.5629 174.474 10.1856L176.851 10.1227C175.373 9.99698 171.197 9.74551 175.951 9.55689L175.887 9.61975L179.164 9.17962L180.577 9.36827C180.513 9.24252 181.027 9.11676 182.247 9.11676C182.569 9.24251 183.725 9.24251 183.661 9.43113C187.194 9.30538 186.937 9.11675 187.387 8.991C189.378 8.92813 190.085 8.991 189.186 9.30537C191.884 9.30537 196.638 9.17965 198.501 9.36827C202.099 9.11677 197.73 9.30539 199.85 8.92814C202.998 9.68264 211.864 9.11677 217.775 9.0539C216.169 8.36228 219.381 8.991 220.473 8.36226C219.188 8.55088 226.062 8.92814 220.923 9.11676L224.071 9.0539C226.255 9.43115 218.867 9.30539 222.079 9.87126C225.613 9.87126 227.926 9.11676 232.101 9.43113C230.688 9.87125 235.314 9.30539 234.286 9.87126C233.386 10.0599 232.23 9.93414 231.074 9.99701L231.78 10.1227C239.554 10.3742 234.029 9.55687 238.076 9.30537C242.83 9.30537 241.803 9.80839 242.059 9.99701C242.766 10.1228 245.143 10.1228 246.428 9.99701C243.537 10.2485 241.096 9.55689 242.445 9.24252C244.501 9.87126 249.448 9.494 250.733 9.30537C243.987 8.55088 246.043 9.11675 239.747 8.36226C238.847 8.55088 238.976 9.0539 235.185 8.73953C237.562 8.55091 235.057 8.48801 234.35 8.36226C235.057 8.67663 231.716 8.42513 230.56 8.55088C229.532 8.29938 232.872 7.92214 229.018 7.73352L228.311 8.42516C226.769 8.29941 228.953 7.92214 225.741 8.04789C227.476 7.73352 225.227 7.48202 229.596 7.41915C224.392 6.79041 221.629 7.67064 217.582 7.92213C217.968 7.85926 218.032 7.79639 218.417 7.73352C217.582 7.92214 215.976 7.92213 214.82 7.92213C212.121 7.79639 216.94 7.60777 216.233 7.41915H211.929C211.864 7.41915 211.8 7.35629 211.8 7.35629C210.644 7.41916 209.551 7.48204 209.166 7.35629C210.451 7.10479 210.965 6.91617 211.8 6.72755L207.239 7.23053C207.753 6.97904 203.512 6.85327 206.725 6.66465L199.979 6.79041L199.401 6.35028C197.795 6.47603 197.73 6.53892 199.658 6.60179C197.345 6.53892 189.507 7.54489 190.663 6.66465C185.395 7.16764 183.468 7.0419 177.108 7.41915C181.99 6.85328 171.454 7.04192 176.658 6.72755C173.574 6.6018 172.996 7.10477 170.619 7.29339C168.37 7.16764 169.334 6.66466 171.775 6.47604L168.949 6.79041L169.013 6.72755L166.507 7.04192C163.873 6.91617 165.929 6.60178 163.231 6.66465L162.653 7.10478L160.789 6.91616C161.496 7.10478 159.89 7.23052 157.898 7.29339L157.963 7.23053L155.586 7.41915C157.963 7.10478 153.401 7.41915 154.493 7.10478C152.438 7.16765 152.373 7.16765 148.711 7.41915L149.354 7.67066C144.535 8.11078 149.161 7.2934 145.242 7.41915L145.499 7.73352C139.846 7.41915 135.991 8.48803 131.815 8.2994C134.192 8.11078 133.549 7.7964 133.549 7.85928C129.952 8.11077 124.105 8.36228 120.443 8.92814C119.094 8.5509 118.709 8.42516 114.918 8.42516C112.156 8.61378 111.77 8.67663 110.871 8.991C108.173 8.92813 103.162 9.49399 103.033 9.17962C102.455 9.49399 100.592 9.24252 99.1784 9.55689L98.8572 9.43113L99.1141 9.7455C94.2957 9.30538 91.0835 10.6257 86.2651 10.2485L87.1003 10.1227L85.1087 10.3742C84.7875 10.2485 85.6227 10.1227 85.6869 9.93412L76.3071 10.5L78.1702 10.6258C76.1786 10.8144 74.8937 11.1916 72.6451 11.1287C76.3713 10.4371 69.4971 11.3174 68.9189 11.003L70.9105 10.7515C68.148 10.9401 68.148 10.9401 68.405 11.2545C64.8715 11.5689 65.8994 10.8143 62.6229 11.3802L64.9357 11.2545C65.6424 11.3802 63.9721 11.7575 62.4302 11.8832C62.0447 11.8832 60.9525 11.7575 62.109 11.6946C59.2822 12.009 55.1063 12.1347 53.8856 12.3233C52.3437 12.3233 52.8577 12.0718 53.6286 11.9461C47.6538 12.6377 50.9303 12.0718 44.8913 12.7635L44.9555 12.5748L42.8997 12.9521L39.9444 12.7635L41.0366 12.9521C39.045 13.1407 37.8243 13.3293 35.5115 13.3922L36.4109 13.0778C30.8858 13.5808 29.9222 13.0778 24.7183 13.8323C24.3328 13.8323 25.168 13.6437 25.6178 13.5808C20.7351 14.3353 21.8915 13.3922 17.0089 14.2725C17.3301 14.1467 16.7519 14.0838 16.9447 14.0209L14.6961 14.3353L14.8246 13.9581L13.0257 14.6497L11.6123 14.3353L10.7771 14.5868C9.87769 14.3982 8.91403 14.3353 7.82186 14.3982C6.7297 14.4611 5.57327 14.5239 4.35261 14.5239C4.15988 14.5239 3.96715 14.5239 3.83866 14.5868L3.32471 14.6497H3.00348H2.93921C2.93921 14.6497 2.93921 14.5868 2.93921 14.7754L3.00348 15.4042L3.06771 15.9072L3.13198 16.8503C3.13198 16.976 3.13198 17.1018 3.13198 17.2275C3.13198 17.3533 3.13198 17.4161 3.13198 17.479C3.13198 17.5419 3.13196 17.6677 3.06771 17.7305C3.06771 17.7934 3.06773 17.8563 3.00348 17.8563C2.93924 17.9192 3.00346 17.9191 2.93921 17.9191H3.00348C3.00348 17.9191 3.13196 17.982 3.19621 17.982L3.26044 18.0449L3.32471 18.1078C2.7465 17.6048 3.13197 17.982 3.00348 17.8563C3.06773 17.9192 3.13198 17.982 3.13198 18.0449C3.19622 18.1078 3.13195 18.1706 3.26044 18.2964C3.51742 18.7994 3.58168 19.1137 3.83866 19.8682C3.96715 20.1826 4.03141 20.5599 4.09566 20.8742V21H4.15988H4.41688C4.22415 20.8743 4.09563 20.7485 4.03139 20.6227C4.09563 20.5599 4.28836 20.497 4.54534 20.4341C4.73808 20.3712 4.99508 20.3084 5.25206 20.2455C5.76602 20.1198 6.27996 20.0569 6.79392 19.994C7.88608 19.8682 8.97826 19.7425 10.1347 19.6168C12.4475 19.4281 14.8246 19.3653 17.3301 19.3024C22.277 19.1766 27.4166 19.1137 32.4277 18.6107L32.2992 18.988L36.4109 18.3593C38.6595 18.5479 35.126 18.7365 35.7685 18.8623C40.1371 18.4221 37.5673 18.2335 42.7069 17.8563C45.341 17.982 41.8075 18.1707 40.5869 18.3593C42.9639 18.1707 45.9834 17.9191 48.8102 17.6676C51.5728 17.479 54.2068 17.2904 55.9414 17.2904C56.0057 17.2275 56.1984 17.1646 56.0699 17.1646C59.2822 16.7874 63.5224 16.7245 67.0558 16.5359C66.9916 16.7245 66.0921 16.7874 65.2569 16.8503C66.5418 16.7874 68.2765 16.8503 69.3686 16.5988L68.0837 16.976C70.782 16.9132 75.9859 16.3473 76.6283 16.6617C76.3071 16.5359 76.4356 16.2844 78.7484 16.1587C80.0976 16.6617 85.1087 15.5928 88.8992 15.7814C88.4495 15.9072 85.6869 16.0958 86.4578 16.0329C88.3209 16.0958 90.0556 15.7814 91.6617 15.5299L91.1477 15.7814L99.8851 15.0898C101.234 15.5928 108.173 14.7126 107.594 15.0898C110.742 14.9641 104.96 14.9641 108.944 14.7126C110.036 14.9012 112.541 14.4611 112.349 14.8383L111.899 14.9012L114.661 14.7754L112.927 15.2156C115.304 15.0269 117.039 14.6497 117.167 14.3353C119.416 14.4611 122.628 14.2096 123.656 14.4611L122.821 14.5868C129.181 14.2096 133.357 15.2156 138.304 14.4611C138.689 14.5239 138.625 14.5868 137.854 14.5868L141.773 14.5239L140.873 14.8383L147.362 14.2725L147.298 14.4611C151.602 14.3982 158.284 14.1467 163.809 13.9581L162.974 14.0838C168.949 13.6437 168.756 14.1467 173.189 13.8323C173.06 13.8952 172.868 13.8952 172.739 13.8952L176.722 13.8323L175.823 14.0209C178.714 13.5808 184.239 14.3353 182.376 14.0838C184.046 13.8952 186.873 13.6437 187.387 13.3922C191.691 13.2664 188.479 13.5808 191.113 13.7066C194.261 13.6437 194.775 13.3293 199.015 13.3922L198.951 13.5808C200.943 13.5179 202.163 13.3293 204.926 13.2664L204.091 13.3922C208.588 12.8892 209.744 13.8323 213.213 12.9521C215.077 13.0778 218.674 12.8263 218.546 13.2036C224.135 12.8263 228.504 12.5748 234.093 12.1347C234.993 12.7006 235.314 12.009 238.719 12.1976L238.462 11.8832C240.453 11.7575 242.509 11.6946 244.629 11.6317C245.657 11.6317 246.749 11.5689 247.842 11.5689C248.484 11.5689 249.64 11.6317 250.925 11.6317C251.246 11.6317 251.632 11.6317 252.017 11.5689C252.21 11.5689 252.467 11.506 252.724 11.506C252.981 11.4431 253.367 11.3802 253.881 11.1916C254.009 11.1287 254.202 11.0659 254.33 11.003C254.587 10.8772 254.78 10.7515 254.973 10.6258C255.101 10.5 255.294 10.3742 255.422 10.2485L255.615 10.0599L255.744 9.93412L255.872 9.80836C256.258 9.36824 256.579 8.92814 256.772 8.17365C257.029 7.48203 257.029 6.85328 256.964 6.16166C256.9 5.78442 256.836 5.65866 256.772 5.40717C256.707 5.21854 256.643 4.96705 256.515 4.77842C256.386 4.46405 256.258 4.27546 256.065 4.02396C256.001 3.89822 255.936 3.83533 255.872 3.77245L255.679 3.58384C255.422 3.33234 255.23 3.14372 254.973 2.9551C254.716 2.7036 254.523 2.64072 254.395 2.51497C254.009 2.26347 253.752 2.13773 253.431 2.01198C253.174 1.88623 252.917 1.82334 252.724 1.76047L252.082 1.57186L251.503 1.4461L250.989 1.32034C250.347 1.19459 249.705 1.06886 249.062 0.943113C246.621 0.565868 244.372 0.440119 242.124 0.314371L241.867 0L240.068 0.314371C230.495 -0.125748 218.353 1.53464e-05 210.901 0.251512C209.68 0.377261 208.138 0.565852 206.403 0.691601C204.669 0.880224 202.87 0.943113 200.943 0.943113L201.328 0.880254C194.582 1.19463 187.451 1.509 180.063 1.509C180.513 1.38325 179.806 1.2575 180.577 1.19463C178.842 1.57187 176.272 1.32037 174.666 1.38324L176.529 1.57186C174.474 1.9491 171.454 1.76048 170.362 1.57186L167.085 2.01198C166.893 2.01198 166.507 1.9491 166.507 1.88623L165.929 2.07484L164.13 1.69761C163.295 1.82336 158.926 2.07483 157.577 2.57783C157.256 2.45208 154.172 2.45208 156.549 2.26346L144.471 2.70358L146.334 2.76648C146.591 3.08085 142.929 3.4581 141.066 3.39522C143.507 3.01798 141.259 2.9551 140.167 2.76648C138.561 3.01798 141.58 2.95507 140.745 3.20657C138.689 3.52094 134.32 3.83533 133.228 3.77245L134.449 3.58384C131.622 3.83533 130.337 3.33232 127.575 3.52094C125.133 3.89819 123.27 3.77244 123.784 4.27544C120.187 4.58981 122.371 3.96107 121.214 3.96107C119.544 4.33831 114.533 4.46408 113.826 4.21258C111.899 5.15569 104.125 4.52694 103.483 5.21855L100.528 5.02994C100.463 5.21856 99.8851 5.65869 97.508 5.91019C95.2594 5.84732 95.7734 5.53293 95.0667 5.34431L93.5891 6.09881C90.3126 6.09881 86.8433 6.28743 83.1813 6.41318C81.3825 6.53892 79.5194 6.6018 77.592 6.72755C76.6283 6.79042 75.7289 6.85329 74.7653 6.91616C73.8658 6.97904 72.9021 6.97904 72.0027 7.04192C64.5502 7.35629 56.6481 7.16764 49.3242 7.29339C46.0477 7.54489 42.3215 7.92216 38.4668 8.61377C36.5394 8.92814 34.5478 9.36826 32.5562 9.87126C31.5283 10.1228 30.5646 10.4371 29.5367 10.7515C29.4082 10.8143 29.344 10.8144 28.83 11.003C28.83 11.003 28.3803 11.1916 28.0591 11.3802L27.9948 11.4431C27.8663 11.506 27.8021 11.5688 27.6736 11.6946C27.4808 11.8832 27.2881 12.0718 27.0954 12.2605C26.9027 12.4491 26.7742 12.7006 26.6457 12.8892C26.5814 13.015 26.5172 13.1407 26.4529 13.2036C26.3887 13.3293 26.1317 13.8952 26.0674 14.3982C26.0032 14.9641 26.0032 15.5928 26.1959 16.2215C26.3887 16.8503 26.6457 17.3533 26.9669 17.7934C27.2881 18.2335 27.6736 18.485 27.6736 18.485C27.7378 18.5479 27.8663 18.6108 27.9306 18.6736C28.316 18.9251 28.7658 19.1138 29.1512 19.3024C29.2155 19.3024 29.4082 19.3652 29.4725 19.3652H29.5367H29.6652L29.9221 19.4281H30.1791H30.3076C30.4361 19.4281 30.6289 19.4281 30.6931 19.4281C31.0143 19.4281 31.2071 19.4281 31.3356 19.4281L31.7853 19.3652C32.2992 19.3024 32.8132 19.3024 33.2629 19.2395L32.4277 19.4281L34.2908 19.2395C34.9333 19.1766 35.4472 19.1138 35.9612 19.1138L39.6232 18.9251L36.9249 18.988H35.64C35.3188 18.988 34.869 18.988 34.4193 19.0509C34.8048 18.988 35.126 18.9251 35.4473 18.8623C35.7042 18.7994 36.0897 18.7365 36.4109 18.7365C37.1176 18.6736 37.8243 18.5479 38.5952 18.485C46.6901 18.1707 57.4191 17.7934 67.3128 16.7874C73.6731 15.5928 71.6172 17.1646 77.7205 16.2215C77.2066 16.3473 77.0138 16.473 76.5641 16.5359C83.1814 15.8443 86.7791 15.4671 93.3321 14.7126C92.6254 15.5299 97.6365 14.4611 97.0583 14.9012L97.5723 14.5868C99.0499 14.7126 102.519 14.6497 102.069 14.9012L104.96 14.3982L105.217 14.7126C109.072 14.5868 117.424 14.021 119.48 14.5868C129.052 13.7695 144.278 13.5179 156.357 13.3922C158.027 13.0778 161.56 13.0149 164.323 12.9521L167.278 13.2664C170.105 13.0778 173.06 12.5748 175.694 12.7635C175.694 12.8263 175.566 12.8263 175.373 12.8892C178.2 12.7635 180.962 12.9521 183.596 12.512C186.744 12.512 189.764 12.6377 188.8 13.015C189.122 12.3862 195.418 13.015 195.418 13.015C195.418 13.015 205.44 12.9521 221.116 12.8892C225.034 12.8892 229.275 12.8892 233.9 12.7635C236.213 12.7006 238.59 12.7006 240.967 12.6377C242.124 12.6377 243.344 12.5748 244.565 12.5748C245.207 12.5748 245.85 12.5749 246.557 12.512H247.135L247.52 12.4491L247.842 12.3862L248.098 12.3233C248.227 12.3233 248.291 12.3233 248.484 12.2605C249.062 12.0718 248.42 12.4491 250.026 11.6317C252.274 13.7695 253.238 0.943113 250.411 2.82934C248.805 1.88623 249.512 2.38921 248.869 2.07484C248.548 2.01197 248.612 2.01196 248.484 1.94908C248.227 1.88621 248.163 1.88623 248.034 1.88623C247.906 1.88623 247.906 1.88624 247.842 1.82337L247.328 1.76047C245.978 1.57185 244.565 1.38325 243.216 1.19463C241.867 1.06888 240.518 1.006 239.104 0.880254C238.397 0.81738 237.691 0.754498 237.048 0.754498C236.342 0.754498 235.699 0.691601 234.993 0.691601C233.643 0.691601 232.23 0.628742 230.817 0.628742C228.054 0.691616 225.227 0.62875 222.4 0.754498C220.987 0.817372 219.574 0.880254 218.16 0.880254C216.747 0.943128 215.333 1.00598 213.92 1.13173C202.549 1.76047 190.985 2.89221 179.677 4.08682C168.435 5.28143 157.384 6.60179 147.298 7.5449C142.223 7.98502 137.276 8.42514 132.65 8.80239C128.024 9.17963 123.591 9.61977 119.544 9.99701C117.552 10.1856 115.561 10.3743 113.762 10.6258C111.963 10.8144 110.229 11.003 108.622 11.1916C105.346 11.4431 102.326 11.6946 99.8851 12.009C98.6002 12.3233 94.8097 12.8263 96.2874 13.0778C94.8097 13.2664 93.7818 13.2664 92.7539 13.3922C92.4326 13.4551 92.2399 13.5179 91.9829 13.5808C91.7902 13.6437 91.5974 13.7695 91.7259 13.8323C91.9187 13.8952 92.1756 13.8323 92.3684 13.9581C92.0472 13.9581 91.8544 14.021 91.7259 13.9581C91.6617 13.8952 91.7902 13.8323 91.9187 13.8323C91.9829 13.7695 92.1114 13.7695 92.1757 13.7695C92.4969 13.7066 92.7539 13.7066 92.8181 13.7066C93.0108 13.7694 92.8181 13.8952 92.6254 14.0838C92.4326 14.2725 92.3041 14.4611 92.4969 14.4611C92.5611 14.5239 92.7539 14.4611 93.0751 14.4611C93.3321 14.4611 93.7175 14.4611 94.2315 14.3982C93.7818 14.4611 93.3963 14.5239 92.9466 14.6497C92.6896 14.7126 92.4969 14.7754 92.3042 14.9641C92.2399 15.0898 92.3042 15.1527 92.4326 15.1527C92.4969 15.2155 92.6254 15.2156 92.7539 15.2156C92.8824 15.2784 92.7539 15.2784 92.4969 15.2156C92.4326 15.2156 92.3684 15.1527 92.3684 15.0898C92.3684 15.0269 92.4969 14.9641 92.5611 14.9012C92.7538 14.7754 93.0108 14.7126 93.2036 14.6497C94.103 14.3982 94.8739 14.3353 94.617 14.5868L95.2594 13.9581C97.251 13.8952 98.3432 13.9581 99.0499 14.1467C100.849 13.8323 102.005 13.0149 106.438 13.2664L105.217 13.3293C108.751 13.2665 107.402 13.6437 108.173 13.7695H107.402L108.879 13.8952H109.265C109.393 13.8952 109.458 13.8952 109.586 13.8952H110.357C110.1 13.8952 109.779 13.8952 109.458 13.8952C109.136 13.8952 108.815 13.8952 108.558 13.8952C107.916 13.8952 107.273 13.9581 106.824 14.0209C105.86 14.1467 105.41 14.2724 106.374 14.2096C110.614 14.2724 105.282 14.0838 108.43 13.9581C108.944 13.9581 109.265 13.9581 109.458 13.9581C109.715 13.9581 109.779 14.0209 109.843 14.0209C109.972 14.0838 109.779 14.2724 109.779 14.3353L113.312 14.0838C113.184 14.3353 110.999 14.2096 112.413 14.3982L116.846 13.8323C117.745 14.4611 121.664 13.2036 123.72 13.7066C120.508 14.0838 124.041 13.8952 123.527 14.1467L131.365 13.5808C132.136 13.6437 129.309 13.8952 130.53 13.8323C132.008 13.9581 132.971 13.518 133.742 13.4551C134.449 13.5808 139.589 13.0778 139.396 13.518C144.728 13.4551 141.58 12.8263 146.591 12.7006C147.234 12.9521 142.672 13.015 144.857 13.2036C146.591 13.0778 148.262 12.8892 149.996 12.7006C149.547 12.8892 149.033 13.2036 147.105 13.3293C154.108 13.015 159.505 12.8892 164.708 12.7635C169.912 12.6377 174.988 12.3862 181.348 11.5689C183.147 11.6946 180.063 11.9461 178.842 12.2605C187.965 10.9401 191.82 11.6946 199.593 11.003L199.722 10.7515C202.484 10.7515 205.311 10.6257 208.267 10.5C211.222 10.3743 214.241 10.1856 217.325 10.0599C223.428 9.80838 229.789 9.55687 235.763 9.93412L234.35 9.68264C235.185 9.55689 236.277 9.49399 237.37 9.49399C238.462 9.49399 239.618 9.55689 240.646 9.55689C240.903 9.74551 239.233 9.99701 242.638 10.1856C241.995 9.99701 240.518 9.80839 240.967 9.68264C242.252 9.80839 243.601 10.1227 245.143 10.3742C245.529 10.4371 245.914 10.5 246.3 10.5629H246.428C246.428 10.5629 246.492 10.5629 246.428 10.5629L246.557 9.87126L246.878 8.42516C246.942 8.23654 246.942 8.0479 247.006 7.85928C247.071 7.67065 247.135 7.41916 247.135 7.35629C247.199 7.23054 247.199 7.10477 247.263 6.97902C247.328 6.91615 247.263 6.91618 247.328 6.8533L247.392 6.79041C247.392 6.79041 247.328 6.72752 247.328 6.66465C247.263 6.5389 247.263 6.41317 247.199 6.28742C247.199 6.16167 247.135 5.97306 247.071 5.78443C247.006 5.59581 247.006 5.40717 247.006 5.21855C246.942 4.77843 246.878 4.27545 246.814 3.77245L246.749 3.39522L246.685 2.9551H246.621H246.364C245.529 2.9551 244.629 2.9551 243.666 2.9551C241.738 2.9551 239.618 2.9551 237.498 2.9551C235.378 2.9551 233.129 3.01795 230.881 3.01795C221.758 3.08083 211.8 3.14373 203.063 3.08085C179.42 3.58384 153.787 3.39521 130.53 4.21258C134.063 4.08683 132.586 4.77844 129.888 4.71557C122.564 3.77245 117.231 5.28144 109.715 4.84132C96.1588 5.72156 84.0165 5.3443 71.4887 7.10478L71.2318 6.79041C69.3687 6.79041 68.8547 7.04193 66.8631 7.16767L66.9273 7.10478C62.2374 7.2934 56.6481 7.98503 53.9498 7.98503L53.8213 8.36226C51.0588 8.55088 52.3437 8.17363 49.5169 8.55088L49.5812 8.36226L46.3046 8.92814C46.5616 8.2994 38.531 9.43112 36.2824 9.30537C35.8327 9.36825 35.3187 9.43112 34.7405 9.49399C34.0981 9.55686 33.5199 9.68263 32.8774 9.7455C32.2992 9.80838 31.6568 9.93414 31.0786 9.99701C30.9501 9.99701 30.8216 10.0599 30.6931 10.0599H30.5646V10.3114V11.003C30.5646 11.3802 30.5646 11.7575 30.5646 12.1347V12.7006C30.5646 12.8263 30.5646 13.015 30.5646 13.1407C30.5646 13.7695 30.5004 14.2096 30.4361 14.3982C30.3719 14.4611 30.3719 14.4611 30.3719 14.4611C30.4361 14.4611 30.4361 14.5239 30.5004 14.5868C30.6289 14.7126 30.6931 14.9012 30.7574 15.0898C30.8859 15.3413 31.0143 15.6557 31.1428 15.9072L31.3356 16.3473L31.5283 16.9132C31.6568 17.2904 31.7853 17.6677 31.9138 18.0449L31.978 18.3593C31.978 18.4221 32.0423 18.6108 32.0423 18.5479L32.492 18.4221C34.869 17.6048 37.6316 17.0389 40.2014 16.7245C40.4583 16.7874 41.0365 16.7245 41.8075 16.6617C42.5784 16.5988 43.6063 16.5359 44.6985 16.473C46.9471 16.3473 49.5169 16.2215 51.637 16.2215C55.6845 15.97 60.6313 15.9072 65.9637 15.7814C68.662 15.7185 71.4245 15.6557 74.2513 15.467C76.9496 15.2784 79.7121 15.1527 82.3462 14.9641L82.1534 14.5868L84.916 14.3982C84.8517 14.4611 85.2372 14.5239 84.8517 14.5868C87.036 14.9012 91.1477 14.0209 93.3963 14.1467C91.9829 13.8952 91.469 14.2096 89.9271 14.3353C87.6785 14.2724 89.7986 13.7695 92.8181 13.7695L92.7539 13.8323L94.8097 13.4551C95.0667 13.7695 96.9298 13.7695 97.1868 14.0838C106.181 13.4551 112.284 12.512 121.6 12.1347C120.636 12.512 128.281 11.6946 126.418 12.3862C132.008 11.8204 125.455 11.9461 128.024 11.3802C129.566 11.3173 131.237 11.0659 131.494 11.2545C130.787 11.4431 132.779 11.5688 131.494 11.6946L135.22 11.4431C135.605 11.4431 134.77 11.6317 134.32 11.6946C141.901 10.9401 147.812 11.4431 154.622 10.7515C155.136 10.5 151.924 10.8144 152.373 10.5629C159.248 9.80837 158.477 10.6886 164.837 10.1227L163.552 10.5C165.608 10.1856 166.507 9.93412 169.912 10.0599C170.49 10.4371 167.021 10.4371 165.415 10.6886C167.728 10.6257 173.638 10.3114 171.84 10.0599C174.666 9.87125 175.694 10.1228 177.172 10.1856C177.236 10.1228 174.538 9.99698 176.208 9.80836C179.999 9.87123 185.909 9.68262 190.599 9.61975C190.535 9.68262 190.92 9.87126 190.471 9.87126C194.197 10.3114 193.811 11.1287 198.951 10.9401Z" fill="#FF9594"/>
</svg>
