<svg width="206" height="20" viewBox="0 0 206 20" fill="none" xmlns="http://www.w3.org/2000/svg">
<path d="M3.12066 12.2109C2.55656 12.5098 4.06076 10.4776 5.75306 9.87989C8.57356 8.92357 11.6761 8.20633 14.6846 7.54886C20.7017 6.23391 44.5819 0.495983 49.9409 4.2615C53.7015 6.89139 42.4196 15.4385 47.6846 16.8132C51.4452 17.7695 58.4964 14.781 61.505 14.004C71.6588 11.3144 84.257 5.03851 96.1971 5.87529C107.197 6.59253 94.4108 14.8408 99.4877 15.4385C110.958 16.873 121.582 8.02702 132.111 7.84771C137.94 7.72817 137 12.6293 141.231 12.8684C144.992 13.0477 156.65 8.44541 162.479 7.90748C169.248 7.25001 170.846 11.0155 177.145 11.1351C185.701 11.2546 194.821 8.32587 203 7.30977" stroke="#242457" stroke-width="5" stroke-miterlimit="1.5" stroke-linecap="round"/>
</svg>
