<svg width="336" height="16" viewBox="0 0 336 16" fill="none" xmlns="http://www.w3.org/2000/svg">
<path d="M333.722 3.43743C338 0.0624261 286.327 11.2187 279.251 11.9687C271.517 12.7187 257.858 14.4062 251.111 11.5937C246.174 9.62493 249.794 5.49993 241.566 5.12493C225.933 4.37493 207.666 11.4999 192.033 12.7187C178.703 13.7499 186.109 5.68743 177.387 5.87493C155.335 6.24993 134.107 14.4062 110.903 13.8437C100.7 13.6562 108.599 7.09368 100.207 6.43743C84.0794 5.21868 68.4458 12.1562 52.6478 12.9062C39.9764 13.4687 46.2298 7.09368 37.3434 5.31243C28.1279 3.53118 11.3424 8.03118 2.78516 9.24993" stroke="#72CBA6" stroke-width="4" stroke-miterlimit="1.5" stroke-linecap="round"/>
</svg>
