<svg width="245" height="205" viewBox="0 0 245 205" fill="none" xmlns="http://www.w3.org/2000/svg">
<path d="M28.9513 28.3239C29.8485 28.9603 27.8464 28.1531 25.387 29.7188C16.4306 35.2579 5.36112 52.4171 16.772 61.7381C50.0495 89.1465 113.972 74.0483 147.636 102.467C180.217 129.994 153.561 166.012 127.544 151.356C101.772 136.873 162.571 105.092 186.145 108.329C223.675 113.497 238.248 151.544 207.818 174.218" stroke="#285F5E" stroke-width="4" stroke-miterlimit="1.5" stroke-linecap="round"/>
<path d="M218.354 179.241C218.075 179.288 217.946 178.952 217.096 178.594C212.881 176.585 201.2 169.892 200.75 171.044C198.594 176.503 190.185 196.653 190.779 197.197C191.293 197.684 221.808 179.73 218.027 179.009" stroke="#285F5E" stroke-width="4" stroke-miterlimit="1.5" stroke-linecap="round"/>
</svg>
